<svg version="1.1" id="Layer_1" xmlns="http://www.w3.org/2000/svg" xmlns:xlink="http://www.w3.org/1999/xlink" x="0px" y="0px"
	 width="100%" viewBox="0 0 848 688" enable-background="new 0 0 848 688" xml:space="preserve">
<path fill="#000000" opacity="1.000000" stroke="none" 
	d="
M267.491547,648.881287 
	C249.725067,652.312561 232.254059,652.648071 214.982040,649.137634 
	C199.711456,646.033936 185.449722,639.959045 172.500198,631.093933 
	C150.094101,615.754822 133.971878,595.438965 124.809929,569.864990 
	C114.449249,540.945129 115.276993,512.142395 126.599274,483.590729 
	C135.103363,462.145782 148.519470,444.317688 166.929077,430.592560 
	C185.873886,416.468475 207.243149,408.043152 231.052490,406.674805 
	C246.923370,405.762634 262.634216,406.675262 277.915375,411.630615 
	C294.578430,417.034058 309.690094,425.164124 322.653534,437.032715 
	C325.171661,439.338165 327.292877,440.349792 330.470612,438.054504 
	C356.787506,419.045746 383.150330,400.100098 409.578857,381.246948 
	C412.617523,379.079254 413.778015,376.656067 413.757874,372.914978 
	C413.613281,346.083954 413.599518,319.251312 413.758698,292.420471 
	C413.784821,288.017853 412.464935,285.799347 407.997284,284.786652 
	C389.189514,280.523407 372.225830,272.287628 357.320709,260.024689 
	C339.825623,245.630905 327.265350,227.720078 319.620880,206.363129 
	C311.490082,183.647415 310.255249,160.436234 315.745636,137.097168 
	C323.639893,103.539574 342.619598,77.744263 372.117645,59.791836 
	C394.479004,46.182796 418.906097,40.825527 444.799072,42.776035 
	C472.741425,44.880920 497.292480,55.418869 518.114990,74.369118 
	C539.797485,94.102043 552.458923,118.786919 556.886963,147.469025 
	C560.998047,174.098129 556.207886,199.520706 543.355225,223.281769 
	C528.812927,250.166504 507.077728,268.948242 478.619720,279.895477 
	C473.055389,282.035950 467.194000,283.466766 461.388428,284.894806 
	C457.670685,285.809296 456.278656,287.707886 456.295959,291.557007 
	C456.418549,318.888245 456.471191,346.221008 456.263153,373.551147 
	C456.230774,377.805359 458.513367,379.988037 461.289764,382.076294 
	C477.656647,394.386536 494.081573,406.619598 510.493347,418.870026 
	C518.230042,424.645020 526.054688,430.305664 533.685730,436.216614 
	C536.382080,438.305237 538.290100,438.516724 541.023682,436.127411 
	C559.727478,419.779510 581.533325,409.672455 606.132507,407.015015 
	C642.634399,403.071716 675.348083,412.636841 703.166809,437.281342 
	C723.029602,454.877686 735.741882,476.734863 741.264587,502.561523 
	C750.682007,546.601929 738.397522,584.480774 707.332092,616.469299 
	C691.124390,633.158508 671.163879,644.016357 648.555237,648.652832 
	C610.760864,656.403503 575.653076,649.582520 545.133972,625.017273 
	C512.561646,598.799438 497.414337,564.281494 498.801788,522.666565 
	C499.309052,507.451752 502.817719,492.661011 509.341400,478.804291 
	C511.226471,474.800293 510.431641,472.396851 507.110870,469.916992 
	C484.700500,453.181610 462.327148,436.396149 440.015961,419.528778 
	C436.352844,416.759430 433.178864,417.019135 429.618530,419.594269 
	C416.128723,429.351349 402.551270,438.987122 389.031860,448.703400 
	C377.946075,456.670624 366.963165,464.783264 355.786499,472.620209 
	C352.731232,474.762482 352.290314,476.767822 353.678162,480.134247 
	C360.282898,496.155212 363.682312,512.854065 363.319244,530.221802 
	C362.607727,564.255798 350.339355,593.291016 325.897919,617.192322 
	C309.500122,633.227661 289.937988,643.208984 267.491547,648.881287 
M255.431046,534.053711 
	C243.770493,534.131958 232.092224,533.840454 220.454620,534.397827 
	C209.874695,534.904541 201.687424,540.418335 195.336502,548.742126 
	C186.447433,560.392517 185.822876,573.951050 186.268204,587.780884 
	C186.356522,590.523071 187.584076,591.714417 190.255066,591.686951 
	C193.253265,591.656250 196.252228,591.708374 199.250854,591.709229 
	C228.073288,591.717590 256.895721,591.726074 285.718140,591.726990 
	C294.876312,591.727295 294.884491,591.716797 294.848938,582.340027 
	C294.836304,579.008911 294.913544,575.669250 294.710236,572.348206 
	C293.391113,550.801147 276.410492,533.025146 255.431046,534.053711 
M650.109558,536.295532 
	C647.622314,535.389282 645.247314,534.276001 642.455444,534.283630 
	C629.638550,534.318665 616.821167,534.144775 604.004272,534.182373 
	C589.502319,534.224915 579.821533,541.984924 572.746094,553.915466 
	C566.824036,563.901184 567.286377,574.911926 567.132202,585.905334 
	C567.071655,590.220459 568.500183,591.871521 572.865723,591.774536 
	C582.184875,591.567505 591.511963,591.724243 600.835754,591.720520 
	C623.645813,591.711426 646.455994,591.644165 669.265686,591.729370 
	C673.470825,591.745056 676.016602,590.687012 675.746643,585.868408 
	C675.514038,581.717651 675.944519,577.516968 675.543091,573.390747 
	C673.922302,556.730530 666.995300,543.518005 650.109558,536.295532 
M465.499969,227.891418 
	C471.997986,227.879044 478.496490,227.814514 484.993774,227.877411 
	C488.014313,227.906631 489.659576,226.866501 489.687103,223.567719 
	C489.757874,215.075012 490.224213,206.528809 487.372894,198.347473 
	C482.329742,183.877014 473.422546,173.285645 457.427246,170.972748 
	C444.693817,169.131516 431.812897,170.257584 419.003784,170.286301 
	C403.901764,170.320145 393.416412,177.977814 386.161163,190.965073 
	C380.914520,200.356766 381.132996,210.428268 381.220978,220.591492 
	C381.282196,227.665298 381.459656,227.884216 388.521881,227.886948 
	C413.847931,227.896744 439.173950,227.891708 465.499969,227.891418 
M243.185638,521.671753 
	C265.853333,519.684692 283.138062,496.818512 274.745697,473.650757 
	C269.381775,458.843170 258.427307,450.599854 242.875977,449.610748 
	C228.927521,448.723633 217.454239,454.135986 210.018951,466.467377 
	C203.239960,477.710297 202.620941,489.703461 208.368317,501.269135 
	C215.167999,514.952454 226.771057,521.876038 243.185638,521.671753 
M586.665100,495.737396 
	C589.612610,504.811462 595.123657,511.997192 603.328735,516.757507 
	C616.661865,524.492859 630.137939,523.599731 642.331299,514.718323 
	C655.243042,505.313812 659.825623,491.996094 656.123718,476.358154 
	C651.542969,457.007263 631.729004,445.657013 611.964050,450.711121 
	C592.675720,455.643433 581.189331,475.543884 586.665100,495.737396 
M470.853882,115.726311 
	C469.957947,112.009712 469.131561,108.277931 467.195679,104.903732 
	C459.519958,91.525200 447.798279,84.417633 432.589172,85.646950 
	C418.002838,86.825928 407.166962,94.621414 401.590302,108.807312 
	C396.783905,121.033897 398.573700,132.558640 406.028229,142.841873 
	C414.156158,154.054031 425.678345,158.739319 439.586487,157.380142 
	C459.250366,155.458481 473.862244,136.449951 470.853882,115.726311 
z"/>
</svg>