<svg version="1.1" id="Layer_1" xmlns="http://www.w3.org/2000/svg" xmlns:xlink="http://www.w3.org/1999/xlink" x="0px" y="0px"
	 width="100%" viewBox="0 0 225 225" enable-background="new 0 0 225 225" xml:space="preserve">
<path fill="#FDFDFD" opacity="1.000000" stroke="none" 
	d="
M1.000000,86.000000 
	C1.000000,57.333340 1.000000,29.166677 1.000000,1.000011 
	C75.999977,1.000008 150.999954,1.000008 225.999954,1.000004 
	C225.999969,75.999969 225.999969,150.999939 225.999985,225.999939 
	C151.000046,225.999954 76.000092,225.999954 1.000068,225.999969 
	C1.000000,179.500000 1.000000,133.000000 1.000000,86.000000 
M156.497818,23.237139 
	C141.832932,23.207371 127.167946,23.129744 112.503174,23.158087 
	C84.509247,23.212193 56.512733,23.127384 28.522816,23.507198 
	C16.080103,23.676043 9.905412,30.500277 9.904991,42.627396 
	C9.903831,76.124100 10.295672,109.627983 9.680656,143.113388 
	C9.480494,154.011597 18.485483,163.466522 29.519903,163.158310 
	C47.836102,162.646713 66.178360,163.068253 84.509636,163.096039 
	C86.223740,163.098648 87.937843,163.096390 89.651947,163.096390 
	C90.031189,163.737793 90.410423,164.379196 90.789665,165.020599 
	C80.678162,174.658905 70.567337,184.297928 60.454693,193.935028 
	C58.012470,196.262390 56.593571,198.864761 59.664818,201.565277 
	C62.356663,203.932205 64.864937,203.381470 67.448555,200.720734 
	C75.806168,192.113647 84.367805,183.704407 92.872841,175.241058 
	C93.698715,174.419235 94.677040,173.750626 96.019196,172.656631 
	C96.019196,174.884262 95.993721,176.372299 96.023560,177.859222 
	C96.160553,184.686111 96.000877,191.543915 96.678673,198.317474 
	C96.848785,200.017487 99.724930,201.446701 101.357452,203.000336 
	C102.880257,201.336807 105.010513,199.905243 105.758690,197.945908 
	C106.540268,195.899155 106.014816,193.344498 106.020020,191.011795 
	C106.033485,184.973404 106.024536,178.934967 106.024536,172.896545 
	C106.603401,172.605148 107.182266,172.313751 107.761131,172.022354 
	C116.507469,181.155609 125.222122,190.319565 134.020813,199.402084 
	C136.439377,201.898666 139.155960,205.048859 142.773239,201.401855 
	C146.546570,197.597504 142.745850,195.028519 140.489319,192.674927 
	C132.072372,183.895889 123.473671,175.291260 114.969650,166.595306 
	C114.157753,165.765076 113.530457,164.754349 112.190475,163.012299 
	C130.005600,163.012299 146.753937,163.012299 163.865097,163.012299 
	C163.701797,159.617249 163.563644,156.744766 163.415314,153.661011 
	C161.164352,153.661011 159.516037,153.668686 157.867813,153.659912 
	C115.041611,153.431671 72.215370,153.208603 29.389238,152.965286 
	C22.275864,152.924881 19.889988,150.771027 19.869995,143.935364 
	C19.770569,109.940552 19.736271,75.945473 19.739161,41.950493 
	C19.739651,36.162384 22.931177,33.029644 28.664669,33.028099 
	C73.826500,33.015934 118.988632,32.972126 164.149628,33.172813 
	C167.704102,33.188606 171.244507,35.001522 174.806335,35.921589 
	C175.499069,36.100529 176.324280,36.214378 176.979584,36.009796 
	C179.319412,35.279327 181.612396,34.398804 184.462662,33.382710 
	C180.501999,27.482981 176.212280,22.860146 168.493896,23.208710 
	C164.835052,23.373945 161.162567,23.237120 156.497818,23.237139 
M169.948868,187.467270 
	C169.966095,190.465530 169.859085,193.470901 170.030014,196.460388 
	C170.279419,200.822601 173.402435,203.877045 177.292435,203.805328 
	C181.226608,203.732803 184.220078,200.726166 184.292557,196.305725 
	C184.426392,188.145767 184.342697,179.982162 184.344376,171.820084 
	C184.346939,159.372620 184.345062,146.925156 184.345062,134.477692 
	C185.013382,134.236603 185.681702,133.995514 186.350021,133.754425 
	C187.056702,134.700165 188.200455,135.571884 188.375809,136.607590 
	C188.704880,138.551086 188.475494,140.589417 188.475510,142.588318 
	C188.475677,160.578476 188.481995,178.568634 188.470154,196.558792 
	C188.467224,200.995148 190.907440,203.392609 195.043076,203.891556 
	C198.979675,204.366501 201.929840,201.663940 202.386520,197.410553 
	C202.705963,194.435608 202.815750,191.426163 202.823593,188.431595 
	C202.905548,157.116013 202.948105,125.800316 203.000931,94.484650 
	C203.003967,92.676903 203.001328,90.869141 203.001328,89.061386 
	C203.577652,88.858604 204.153976,88.655823 204.730316,88.453041 
	C205.371628,89.859573 206.553192,91.259811 206.569687,92.673630 
	C206.715317,105.165100 206.749115,117.660118 206.598114,130.151459 
	C206.550598,134.081909 207.682693,136.892807 211.883362,136.957443 
	C216.374634,137.026566 217.043472,133.659729 217.041748,130.047760 
	C217.038116,122.385475 217.164978,114.721138 217.026062,107.061485 
	C216.881409,99.085472 216.937576,91.064148 216.062897,83.155876 
	C215.326279,76.496025 209.317230,71.158234 202.758820,71.106750 
	C175.942825,70.896210 149.123642,70.911903 122.308853,71.173500 
	C120.711090,71.189087 117.927666,74.042732 117.881416,75.639053 
	C117.829529,77.429802 120.008522,79.607788 121.720314,80.996964 
	C122.637329,81.741135 124.612450,81.205727 126.110092,81.206375 
	C140.557999,81.212662 155.005890,81.210152 169.253479,81.210152 
	C169.593903,81.964981 169.836716,82.252251 169.837112,82.539871 
	C169.885864,117.185661 169.916702,151.831467 169.948868,187.467270 
M35.025349,57.478817 
	C33.605652,60.019417 32.376583,62.189411 35.618584,64.741470 
	C38.649918,67.127693 36.966686,73.544189 33.036663,74.596519 
	C29.200420,75.623741 30.049646,78.072174 30.580393,80.401733 
	C31.140554,82.860413 30.430855,86.279945 34.981995,86.125031 
	C39.982422,85.954811 43.016895,90.726044 40.900585,95.356155 
	C39.162304,99.159218 42.352665,100.009377 44.205547,101.420273 
	C46.098125,102.861404 48.259384,104.385124 50.737061,101.687225 
	C54.031311,98.100212 59.806385,99.157043 61.263245,103.648994 
	C62.493435,107.442078 65.028000,106.786751 67.609619,106.058899 
	C70.106941,105.354813 73.448151,105.644531 72.909889,101.161308 
	C72.419189,97.074181 77.863823,93.173004 81.316208,95.154549 
	C85.086136,97.318344 86.486053,94.809509 88.040764,92.477585 
	C89.591728,90.151276 91.295654,87.913437 87.950760,85.242691 
	C84.597191,82.565010 86.022652,76.158745 90.193726,75.199211 
	C94.141884,74.290962 93.245834,71.555901 92.743706,69.419014 
	C92.185265,67.042465 92.716354,63.469845 88.133636,63.745399 
	C83.303703,64.035812 80.052162,58.929344 82.195122,54.444157 
	C83.894539,50.887302 81.059906,49.991451 79.286232,48.678715 
	C77.271759,47.187759 75.125107,45.240685 72.343063,48.005066 
	C68.524788,51.799088 64.215424,50.721928 61.784168,45.895176 
	C61.254486,44.843590 59.664280,43.828007 58.463947,43.696671 
	C52.539951,43.048481 50.728592,44.973827 50.577911,52.470417 
	C48.044724,53.241135 44.711109,55.469604 42.561375,54.637932 
	C38.918148,53.228466 37.357418,54.616936 35.025349,57.478817 
M80.804230,98.845673 
	C79.277542,100.973450 77.504158,102.976410 76.335846,105.285515 
	C75.809212,106.326363 76.020859,108.296379 76.702255,109.296585 
	C79.642036,113.611839 79.365639,117.845375 76.858749,122.244781 
	C75.923630,123.885834 76.864571,127.052559 77.782562,129.161163 
	C78.655365,131.165955 79.749199,132.770752 83.295319,132.643921 
	C86.518219,132.528641 91.392258,135.300095 92.788864,138.147568 
	C94.612282,141.865234 97.134880,141.360413 99.588020,141.493439 
	C102.002785,141.624390 104.889801,141.928284 105.893684,138.213577 
	C106.840408,134.710403 112.756508,132.422516 116.374084,132.461029 
	C118.164375,132.480103 120.493782,130.486435 121.644363,128.774902 
	C122.882233,126.933533 125.487480,124.701027 122.226913,121.953430 
	C119.671387,119.799973 119.496315,112.508240 122.112053,110.393669 
	C125.687553,107.503227 122.812363,105.322922 121.764862,103.092079 
	C120.773956,100.981758 119.851227,98.507355 116.262268,99.502563 
	C112.613754,100.514290 106.946419,96.991241 105.959816,93.354156 
	C104.863930,89.314217 101.506073,90.282272 99.042900,90.335358 
	C97.259399,90.373810 94.618088,91.658562 93.917488,93.129623 
	C91.888435,97.390076 86.044342,100.393806 80.804230,98.845673 
M189.435989,41.901028 
	C181.007614,40.228806 173.966949,45.195759 173.171051,53.375389 
	C172.446915,60.817387 178.285294,67.135490 186.046524,67.308830 
	C191.911362,67.439812 197.391586,63.553757 198.808258,58.259434 
	C200.705856,51.167820 197.807739,45.692287 189.435989,41.901028 
z"/>
<path fill="#080808" opacity="1.000000" stroke="none" 
	d="
M156.997040,23.237141 
	C161.162567,23.237120 164.835052,23.373945 168.493896,23.208710 
	C176.212280,22.860146 180.501999,27.482981 184.462662,33.382710 
	C181.612396,34.398804 179.319412,35.279327 176.979584,36.009796 
	C176.324280,36.214378 175.499069,36.100529 174.806335,35.921589 
	C171.244507,35.001522 167.704102,33.188606 164.149628,33.172813 
	C118.988632,32.972126 73.826500,33.015934 28.664669,33.028099 
	C22.931177,33.029644 19.739651,36.162384 19.739161,41.950493 
	C19.736271,75.945473 19.770569,109.940552 19.869995,143.935364 
	C19.889988,150.771027 22.275864,152.924881 29.389238,152.965286 
	C72.215370,153.208603 115.041611,153.431671 157.867813,153.659912 
	C159.516037,153.668686 161.164352,153.661011 163.415314,153.661011 
	C163.563644,156.744766 163.701797,159.617249 163.865097,163.012299 
	C146.753937,163.012299 130.005600,163.012299 112.190475,163.012299 
	C113.530457,164.754349 114.157753,165.765076 114.969650,166.595306 
	C123.473671,175.291260 132.072372,183.895889 140.489319,192.674927 
	C142.745850,195.028519 146.546570,197.597504 142.773239,201.401855 
	C139.155960,205.048859 136.439377,201.898666 134.020813,199.402084 
	C125.222122,190.319565 116.507469,181.155609 107.761131,172.022354 
	C107.182266,172.313751 106.603401,172.605148 106.024536,172.896545 
	C106.024536,178.934967 106.033485,184.973404 106.020020,191.011795 
	C106.014816,193.344498 106.540268,195.899155 105.758690,197.945908 
	C105.010513,199.905243 102.880257,201.336807 101.357452,203.000336 
	C99.724930,201.446701 96.848785,200.017487 96.678673,198.317474 
	C96.000877,191.543915 96.160553,184.686111 96.023560,177.859222 
	C95.993721,176.372299 96.019196,174.884262 96.019196,172.656631 
	C94.677040,173.750626 93.698715,174.419235 92.872841,175.241058 
	C84.367805,183.704407 75.806168,192.113647 67.448555,200.720734 
	C64.864937,203.381470 62.356663,203.932205 59.664818,201.565277 
	C56.593571,198.864761 58.012470,196.262390 60.454693,193.935028 
	C70.567337,184.297928 80.678162,174.658905 90.789665,165.020599 
	C90.410423,164.379196 90.031189,163.737793 89.651947,163.096390 
	C87.937843,163.096390 86.223740,163.098648 84.509636,163.096039 
	C66.178360,163.068253 47.836102,162.646713 29.519903,163.158310 
	C18.485483,163.466522 9.480494,154.011597 9.680656,143.113388 
	C10.295672,109.627983 9.903831,76.124100 9.904991,42.627396 
	C9.905412,30.500277 16.080103,23.676043 28.522816,23.507198 
	C56.512733,23.127384 84.509247,23.212193 112.503174,23.158087 
	C127.167946,23.129744 141.832932,23.207371 156.997040,23.237141 
z"/>
<path fill="#020202" opacity="1.000000" stroke="none" 
	d="
M169.948669,186.972275 
	C169.916702,151.831467 169.885864,117.185661 169.837112,82.539871 
	C169.836716,82.252251 169.593903,81.964981 169.253479,81.210152 
	C155.005890,81.210152 140.557999,81.212662 126.110092,81.206375 
	C124.612450,81.205727 122.637329,81.741135 121.720314,80.996964 
	C120.008522,79.607788 117.829529,77.429802 117.881416,75.639053 
	C117.927666,74.042732 120.711090,71.189087 122.308853,71.173500 
	C149.123642,70.911903 175.942825,70.896210 202.758820,71.106750 
	C209.317230,71.158234 215.326279,76.496025 216.062897,83.155876 
	C216.937576,91.064148 216.881409,99.085472 217.026062,107.061485 
	C217.164978,114.721138 217.038116,122.385475 217.041748,130.047760 
	C217.043472,133.659729 216.374634,137.026566 211.883362,136.957443 
	C207.682693,136.892807 206.550598,134.081909 206.598114,130.151459 
	C206.749115,117.660118 206.715317,105.165100 206.569687,92.673630 
	C206.553192,91.259811 205.371628,89.859573 204.730316,88.453041 
	C204.153976,88.655823 203.577652,88.858604 203.001328,89.061386 
	C203.001328,90.869141 203.003967,92.676903 203.000931,94.484650 
	C202.948105,125.800316 202.905548,157.116013 202.823593,188.431595 
	C202.815750,191.426163 202.705963,194.435608 202.386520,197.410553 
	C201.929840,201.663940 198.979675,204.366501 195.043076,203.891556 
	C190.907440,203.392609 188.467224,200.995148 188.470154,196.558792 
	C188.481995,178.568634 188.475677,160.578476 188.475510,142.588318 
	C188.475494,140.589417 188.704880,138.551086 188.375809,136.607590 
	C188.200455,135.571884 187.056702,134.700165 186.350021,133.754425 
	C185.681702,133.995514 185.013382,134.236603 184.345062,134.477692 
	C184.345062,146.925156 184.346939,159.372620 184.344376,171.820084 
	C184.342697,179.982162 184.426392,188.145767 184.292557,196.305725 
	C184.220078,200.726166 181.226608,203.732803 177.292435,203.805328 
	C173.402435,203.877045 170.279419,200.822601 170.030014,196.460388 
	C169.859085,193.470901 169.966095,190.465530 169.948669,186.972275 
z"/>
<path fill="#040404" opacity="1.000000" stroke="none" 
	d="
M35.266075,57.191128 
	C37.357418,54.616936 38.918148,53.228466 42.561375,54.637932 
	C44.711109,55.469604 48.044724,53.241135 50.577911,52.470417 
	C50.728592,44.973827 52.539951,43.048481 58.463947,43.696671 
	C59.664280,43.828007 61.254486,44.843590 61.784168,45.895176 
	C64.215424,50.721928 68.524788,51.799088 72.343063,48.005066 
	C75.125107,45.240685 77.271759,47.187759 79.286232,48.678715 
	C81.059906,49.991451 83.894539,50.887302 82.195122,54.444157 
	C80.052162,58.929344 83.303703,64.035812 88.133636,63.745399 
	C92.716354,63.469845 92.185265,67.042465 92.743706,69.419014 
	C93.245834,71.555901 94.141884,74.290962 90.193726,75.199211 
	C86.022652,76.158745 84.597191,82.565010 87.950760,85.242691 
	C91.295654,87.913437 89.591728,90.151276 88.040764,92.477585 
	C86.486053,94.809509 85.086136,97.318344 81.316208,95.154549 
	C77.863823,93.173004 72.419189,97.074181 72.909889,101.161308 
	C73.448151,105.644531 70.106941,105.354813 67.609619,106.058899 
	C65.028000,106.786751 62.493435,107.442078 61.263245,103.648994 
	C59.806385,99.157043 54.031311,98.100212 50.737061,101.687225 
	C48.259384,104.385124 46.098125,102.861404 44.205547,101.420273 
	C42.352665,100.009377 39.162304,99.159218 40.900585,95.356155 
	C43.016895,90.726044 39.982422,85.954811 34.981995,86.125031 
	C30.430855,86.279945 31.140554,82.860413 30.580393,80.401733 
	C30.049646,78.072174 29.200420,75.623741 33.036663,74.596519 
	C36.966686,73.544189 38.649918,67.127693 35.618584,64.741470 
	C32.376583,62.189411 33.605652,60.019417 35.266075,57.191128 
M65.800163,87.934814 
	C73.396591,84.758308 76.402824,79.314735 74.966812,71.336227 
	C73.984329,65.877533 67.939072,61.150253 61.841732,61.072666 
	C55.467323,60.991550 49.950165,65.297134 48.389935,71.570412 
	C45.964584,81.322121 53.448990,88.737617 65.800163,87.934814 
z"/>
<path fill="#050505" opacity="1.000000" stroke="none" 
	d="
M81.191917,98.772400 
	C86.044342,100.393806 91.888435,97.390076 93.917488,93.129623 
	C94.618088,91.658562 97.259399,90.373810 99.042900,90.335358 
	C101.506073,90.282272 104.863930,89.314217 105.959816,93.354156 
	C106.946419,96.991241 112.613754,100.514290 116.262268,99.502563 
	C119.851227,98.507355 120.773956,100.981758 121.764862,103.092079 
	C122.812363,105.322922 125.687553,107.503227 122.112053,110.393669 
	C119.496315,112.508240 119.671387,119.799973 122.226913,121.953430 
	C125.487480,124.701027 122.882233,126.933533 121.644363,128.774902 
	C120.493782,130.486435 118.164375,132.480103 116.374084,132.461029 
	C112.756508,132.422516 106.840408,134.710403 105.893684,138.213577 
	C104.889801,141.928284 102.002785,141.624390 99.588020,141.493439 
	C97.134880,141.360413 94.612282,141.865234 92.788864,138.147568 
	C91.392258,135.300095 86.518219,132.528641 83.295319,132.643921 
	C79.749199,132.770752 78.655365,131.165955 77.782562,129.161163 
	C76.864571,127.052559 75.923630,123.885834 76.858749,122.244781 
	C79.365639,117.845375 79.642036,113.611839 76.702255,109.296585 
	C76.020859,108.296379 75.809212,106.326363 76.335846,105.285515 
	C77.504158,102.976410 79.277542,100.973450 81.191917,98.772400 
M107.395020,107.062477 
	C101.568954,102.949173 96.048439,102.970673 91.581047,107.124084 
	C87.371925,111.037361 86.452339,117.399452 89.414360,122.113922 
	C93.134010,128.034225 100.701035,129.570984 106.345345,125.552368 
	C112.092743,121.460373 112.747383,114.100616 107.395020,107.062477 
z"/>
<path fill="#030303" opacity="1.000000" stroke="none" 
	d="
M189.820953,41.953854 
	C197.807739,45.692287 200.705856,51.167820 198.808258,58.259434 
	C197.391586,63.553757 191.911362,67.439812 186.046524,67.308830 
	C178.285294,67.135490 172.446915,60.817387 173.171051,53.375389 
	C173.966949,45.195759 181.007614,40.228806 189.820953,41.953854 
z"/>
<path fill="#FBFBFB" opacity="1.000000" stroke="none" 
	d="
M65.380615,87.961899 
	C53.448990,88.737617 45.964584,81.322121 48.389935,71.570412 
	C49.950165,65.297134 55.467323,60.991550 61.841732,61.072666 
	C67.939072,61.150253 73.984329,65.877533 74.966812,71.336227 
	C76.402824,79.314735 73.396591,84.758308 65.380615,87.961899 
z"/>
<path fill="#FAFAFA" opacity="1.000000" stroke="none" 
	d="
M107.668655,107.330681 
	C112.747383,114.100616 112.092743,121.460373 106.345345,125.552368 
	C100.701035,129.570984 93.134010,128.034225 89.414360,122.113922 
	C86.452339,117.399452 87.371925,111.037361 91.581047,107.124084 
	C96.048439,102.970673 101.568954,102.949173 107.668655,107.330681 
z"/>
</svg>