<svg version="1.1" id="Layer_1" xmlns="http://www.w3.org/2000/svg" xmlns:xlink="http://www.w3.org/1999/xlink" x="0px" y="0px"
	 width="100%" viewBox="0 0 820 862" enable-background="new 0 0 820 862" xml:space="preserve">
<path fill="#F5F5F5" opacity="1.000000" stroke="none" 
	d="
M821.000000,337.000000 
	C821.000000,512.666565 821.000000,687.833191 821.000000,862.999817 
	C547.666870,862.999878 274.333710,862.999878 1.000421,862.999939 
	C1.000281,575.666992 1.000281,288.333954 1.000140,1.000691 
	C274.332916,1.000461 547.665833,1.000461 820.999390,1.000230 
	C821.000000,112.833336 821.000000,224.666672 821.000000,337.000000 
M278.499847,842.741760 
	C416.991608,842.741699 555.483337,842.753540 693.975098,842.693359 
	C698.950134,842.691162 704.020203,842.466125 708.884094,841.516052 
	C736.807129,836.062195 755.166870,812.984436 755.175049,783.395813 
	C755.211365,652.403564 755.192261,521.411377 755.193176,390.419128 
	C755.193176,388.788208 755.193237,387.157318 755.193237,385.331329 
	C735.952332,385.331329 717.085571,385.331329 697.808228,385.331329 
	C697.808228,518.782593 697.808228,651.870056 697.808228,785.074097 
	C487.186127,785.074097 276.976837,785.074097 66.868118,785.074097 
	C66.868118,574.685730 66.868118,364.661652 66.868118,154.160614 
	C201.047104,154.160614 334.787231,154.160614 468.751434,154.160614 
	C468.751434,135.606766 468.751434,117.530647 468.751434,99.140434 
	C467.095947,99.059128 465.637970,98.924911 464.179993,98.924812 
	C332.354492,98.916084 200.528992,98.877762 68.703522,98.946648 
	C35.923836,98.963776 11.022449,124.163635 11.016957,157.197357 
	C10.982184,366.351593 10.990735,575.505798 11.058818,784.660034 
	C11.060270,789.121887 11.521123,793.677307 12.486176,798.029785 
	C18.411961,824.755798 41.511715,842.700806 70.012161,842.723083 
	C139.174667,842.776978 208.337265,842.741272 278.499847,842.741760 
M622.275330,170.225021 
	C611.969849,159.869385 601.664368,149.513748 591.848450,139.650024 
	C497.602417,234.004196 403.851257,327.862976 310.898315,420.922607 
	C350.617218,460.752899 390.785858,501.034210 431.030365,541.391602 
	C524.378723,447.814941 618.011047,353.953674 711.789978,259.945404 
	C682.283936,230.369324 652.531067,200.545776 622.275330,170.225021 
M699.026855,163.473450 
	C717.265808,181.875122 735.504822,200.276794 753.851257,218.786911 
	C767.877136,204.776566 781.388855,191.685593 794.440186,178.150620 
	C815.484314,156.326599 815.590942,121.890701 794.576843,99.943962 
	C780.646912,85.395737 766.402161,71.126114 751.840515,57.210903 
	C729.320557,35.690681 694.830322,36.037334 672.454773,57.744129 
	C660.624756,69.220505 649.122375,81.034103 637.365112,92.586624 
	C635.860107,94.065437 633.708618,94.886307 631.703857,96.104851 
	C654.999146,119.416458 676.762634,141.195175 699.026855,163.473450 
M329.003265,524.496338 
	C308.249847,503.667694 287.496429,482.839050 266.583954,461.850739 
	C265.192932,464.132202 264.281281,465.898041 263.122894,467.483612 
	C255.400314,478.054382 251.552612,489.833832 251.688080,502.950378 
	C251.709900,505.064026 251.348648,507.271271 250.705612,509.289001 
	C237.271530,551.444092 223.768494,593.577209 210.292145,635.718933 
	C209.606873,637.861816 209.039383,640.042297 208.250854,642.782959 
	C210.340012,642.249268 211.764160,641.962341 213.139542,641.522888 
	C246.723785,630.791504 280.248291,619.868835 313.908356,609.381226 
	C328.415802,604.861023 342.491486,598.554077 358.229309,598.555115 
	C362.699127,598.555359 367.412170,596.740234 371.580811,594.818542 
	C377.547699,592.067993 383.116791,588.454468 389.500610,584.844727 
	C369.247406,564.643616 349.374084,544.821350 329.003265,524.496338 
z"/>
<path fill="#020202" opacity="1.000000" stroke="none" 
	d="
M277.999817,842.741699 
	C208.337265,842.741272 139.174667,842.776978 70.012161,842.723083 
	C41.511715,842.700806 18.411961,824.755798 12.486176,798.029785 
	C11.521123,793.677307 11.060270,789.121887 11.058818,784.660034 
	C10.990735,575.505798 10.982184,366.351593 11.016957,157.197357 
	C11.022449,124.163635 35.923836,98.963776 68.703522,98.946648 
	C200.528992,98.877762 332.354492,98.916084 464.179993,98.924812 
	C465.637970,98.924911 467.095947,99.059128 468.751434,99.140434 
	C468.751434,117.530647 468.751434,135.606766 468.751434,154.160614 
	C334.787231,154.160614 201.047104,154.160614 66.868118,154.160614 
	C66.868118,364.661652 66.868118,574.685730 66.868118,785.074097 
	C276.976837,785.074097 487.186127,785.074097 697.808228,785.074097 
	C697.808228,651.870056 697.808228,518.782593 697.808228,385.331329 
	C717.085571,385.331329 735.952332,385.331329 755.193237,385.331329 
	C755.193237,387.157318 755.193176,388.788208 755.193176,390.419128 
	C755.192261,521.411377 755.211365,652.403564 755.175049,783.395813 
	C755.166870,812.984436 736.807129,836.062195 708.884094,841.516052 
	C704.020203,842.466125 698.950134,842.691162 693.975098,842.693359 
	C555.483337,842.753540 416.991608,842.741699 277.999817,842.741699 
z"/>
<path fill="#010101" opacity="1.000000" stroke="none" 
	d="
M622.526733,170.473633 
	C652.531067,200.545776 682.283936,230.369324 711.789978,259.945404 
	C618.011047,353.953674 524.378723,447.814941 431.030365,541.391602 
	C390.785858,501.034210 350.617218,460.752899 310.898315,420.922607 
	C403.851257,327.862976 497.602417,234.004196 591.848450,139.650024 
	C601.664368,149.513748 611.969849,159.869385 622.526733,170.473633 
z"/>
<path fill="#010101" opacity="1.000000" stroke="none" 
	d="
M698.776489,163.223679 
	C676.762634,141.195175 654.999146,119.416458 631.703857,96.104851 
	C633.708618,94.886307 635.860107,94.065437 637.365112,92.586624 
	C649.122375,81.034103 660.624756,69.220505 672.454773,57.744129 
	C694.830322,36.037334 729.320557,35.690681 751.840515,57.210903 
	C766.402161,71.126114 780.646912,85.395737 794.576843,99.943962 
	C815.590942,121.890701 815.484314,156.326599 794.440186,178.150620 
	C781.388855,191.685593 767.877136,204.776566 753.851257,218.786911 
	C735.504822,200.276794 717.265808,181.875122 698.776489,163.223679 
z"/>
<path fill="#020202" opacity="1.000000" stroke="none" 
	d="
M329.252014,524.747681 
	C349.374084,544.821350 369.247406,564.643616 389.500610,584.844727 
	C383.116791,588.454468 377.547699,592.067993 371.580811,594.818542 
	C367.412170,596.740234 362.699127,598.555359 358.229309,598.555115 
	C342.491486,598.554077 328.415802,604.861023 313.908356,609.381226 
	C280.248291,619.868835 246.723785,630.791504 213.139542,641.522888 
	C211.764160,641.962341 210.340012,642.249268 208.250854,642.782959 
	C209.039383,640.042297 209.606873,637.861816 210.292145,635.718933 
	C223.768494,593.577209 237.271530,551.444092 250.705612,509.289001 
	C251.348648,507.271271 251.709900,505.064026 251.688080,502.950378 
	C251.552612,489.833832 255.400314,478.054382 263.122894,467.483612 
	C264.281281,465.898041 265.192932,464.132202 266.583954,461.850739 
	C287.496429,482.839050 308.249847,503.667694 329.252014,524.747681 
z"/>
</svg>