<svg version="1.1" id="Layer_1" xmlns="http://www.w3.org/2000/svg" xmlns:xlink="http://www.w3.org/1999/xlink" x="0px" y="0px"
	 width="100%" viewBox="0 0 225 225" enable-background="new 0 0 225 225" xml:space="preserve">
<path fill="#FEFEFE" opacity="1.000000" stroke="none" 
	d="
M0.999998,138.000000 
	C1.000000,92.376694 1.000000,46.753387 1.000000,1.065041 
	C75.885376,1.065041 150.770828,1.065041 226.000000,1.065041 
	C226.000000,33.686756 226.000000,66.374718 225.639099,99.492508 
	C222.633026,98.613312 220.033539,96.297752 217.334473,96.175179 
	C207.368881,95.722603 197.344086,95.544685 187.391815,96.125099 
	C177.941071,96.676270 169.577438,94.539124 161.300354,90.039314 
	C150.334061,84.077515 138.920822,78.937851 127.358986,73.278130 
	C133.109528,65.059578 138.556183,57.345158 143.925415,49.577240 
	C147.511795,44.388683 146.989761,41.447033 141.947113,37.878914 
	C136.116821,33.753487 130.265457,29.657581 124.402451,25.578749 
	C117.897285,21.053171 115.490158,21.475681 110.937691,27.943653 
	C103.783249,38.108402 96.651550,48.289165 89.347267,58.695320 
	C80.748970,54.507111 73.139549,57.611019 65.421547,61.115433 
	C38.605431,73.291481 45.606647,66.620209 29.676231,91.602371 
	C19.901791,106.930702 10.544569,122.525085 0.999998,138.000000 
z"/>
<path fill="#030303" opacity="1.000000" stroke="none" 
	d="
M0.999998,138.444168 
	C10.544569,122.525085 19.901791,106.930702 29.676231,91.602371 
	C45.606647,66.620209 38.605431,73.291481 65.421547,61.115433 
	C73.139549,57.611019 80.748970,54.507111 89.347267,58.695320 
	C96.651550,48.289165 103.783249,38.108402 110.937691,27.943653 
	C115.490158,21.475681 117.897285,21.053171 124.402451,25.578749 
	C130.265457,29.657581 136.116821,33.753487 141.947113,37.878914 
	C146.989761,41.447033 147.511795,44.388683 143.925415,49.577240 
	C138.556183,57.345158 133.109528,65.059578 127.358986,73.278130 
	C138.920822,78.937851 150.334061,84.077515 161.300354,90.039314 
	C169.577438,94.539124 177.941071,96.676270 187.391815,96.125099 
	C197.344086,95.544685 207.368881,95.722603 217.334473,96.175179 
	C220.033539,96.297752 222.633026,98.613312 225.639099,99.961166 
	C226.000000,127.687561 226.000000,155.375122 225.660278,183.618500 
	C224.487000,185.172150 223.852905,186.552292 222.788467,187.107727 
	C213.829651,191.782700 204.907837,196.558777 195.730957,200.773300 
	C190.897659,202.993011 186.848160,199.828293 186.698593,194.318893 
	C186.564606,189.383499 186.670380,184.441620 186.670380,178.947739 
	C159.813797,191.152420 133.275681,191.244934 106.710312,179.412796 
	C105.600586,201.152542 86.178192,206.262436 73.170853,196.646881 
	C68.470810,200.618958 62.666504,202.638901 56.964588,200.824783 
	C51.584873,199.113174 46.845600,195.388596 41.159821,192.173599 
	C34.925453,195.576462 27.621229,199.895782 19.989944,203.527939 
	C17.671051,204.631653 13.654133,204.923996 11.863559,203.611542 
	C10.048214,202.280960 9.783237,198.547897 9.309501,195.786407 
	C9.042895,194.232315 9.627814,192.492737 9.997850,190.875305 
	C12.228939,181.123306 11.039961,170.581085 16.943649,161.439926 
	C8.255379,159.678192 3.831389,153.640869 1.000000,146.000000 
	C1.000000,143.629440 1.000000,141.258896 0.999998,138.444168 
M105.318756,163.943558 
	C130.500656,177.813156 156.073349,178.945862 182.199448,166.575562 
	C185.483261,165.020706 186.838104,163.367264 186.773819,159.567490 
	C186.517395,144.412399 186.668060,129.250443 186.668045,114.091019 
	C186.668045,112.488724 186.668045,110.886421 186.668045,108.795433 
	C176.696198,109.980743 168.079361,108.466393 159.654724,103.883629 
	C146.720367,96.847740 133.273010,90.754936 119.747871,84.116905 
	C110.926651,96.723854 102.224503,109.160637 93.033333,122.296303 
	C95.070366,122.296303 96.174522,122.365562 97.267731,122.285416 
	C106.588715,121.602112 114.503807,117.832901 121.311676,111.483932 
	C124.427094,108.578514 127.857368,108.263382 131.012360,111.452065 
	C133.774048,114.243225 133.409912,117.953590 130.065170,121.107986 
	C121.043968,129.615799 110.436699,134.833374 97.934074,135.150879 
	C83.617256,135.514465 69.285332,135.242233 54.964062,135.486221 
	C46.082691,135.637527 40.659359,140.922470 40.763668,148.745422 
	C40.874443,157.053833 46.292824,161.950745 55.463840,161.963943 
	C69.457123,161.984100 83.451302,161.891693 97.442947,162.044189 
	C99.829651,162.070206 102.205627,163.080658 105.318756,163.943558 
M56.354614,105.858925 
	C64.627327,94.039925 72.900032,82.220932 81.172745,70.401932 
	C80.802567,69.920799 80.432381,69.439674 80.062195,68.958542 
	C70.636810,73.239731 61.192657,77.480782 51.814888,81.863861 
	C50.871368,82.304848 50.233494,83.544327 49.615677,84.516167 
	C38.403385,102.153297 27.253944,119.830566 15.983736,137.430527 
	C14.219357,140.185822 12.904358,143.092880 15.329434,145.584717 
	C16.958750,147.258896 19.821651,148.623810 22.094763,148.568558 
	C25.397839,148.488266 27.494158,146.174179 28.281898,142.499023 
	C29.571667,136.481705 33.105923,131.778992 37.808212,127.734871 
	C41.741470,124.352150 45.356075,120.539230 48.742702,116.599533 
	C51.435509,113.466957 53.570587,109.854942 56.354614,105.858925 
M199.431274,164.499100 
	C199.431274,170.900436 199.431274,177.301788 199.431274,184.352921 
	C203.068207,182.563873 205.915756,180.910645 208.949402,179.739380 
	C212.213013,178.479309 213.093658,176.442795 213.058350,173.005066 
	C212.872345,154.889938 212.971130,136.771881 212.971085,118.654839 
	C212.971069,115.553429 212.971085,112.452019 212.971085,109.388916 
	C208.187698,109.388916 203.981171,109.388916 199.431305,109.388916 
	C199.431305,127.643799 199.431305,145.571609 199.431274,164.499100 
M82.184059,91.690346 
	C75.199333,101.719627 68.214607,111.748909 60.755951,122.458694 
	C65.989189,122.458694 70.441055,122.571762 74.879692,122.379417 
	C75.993073,122.331169 77.460175,121.582100 78.095802,120.682480 
	C90.546097,103.061417 102.897354,85.370369 115.427879,67.466400 
	C111.699699,64.856880 108.203453,62.409698 104.542168,59.847000 
	C97.121826,70.452751 89.885506,80.795479 82.184059,91.690346 
M39.881973,175.486206 
	C40.534767,174.456665 41.187565,173.427124 41.628220,172.732162 
	C38.060879,169.624069 34.876732,166.849838 31.861931,164.223160 
	C25.244352,170.138275 24.687561,177.964722 25.265219,186.944641 
	C29.988417,183.306076 34.711617,179.667526 39.881973,175.486206 
M121.657104,39.591393 
	C120.501244,39.831631 118.859001,39.672886 118.276260,40.383266 
	C116.104431,43.030781 114.280365,45.963573 112.109802,49.101570 
	C115.716423,51.650677 119.147713,54.075863 122.939705,56.755985 
	C125.523094,53.064430 127.938431,49.613022 130.533752,45.904419 
	C127.588753,43.804672 124.933189,41.911285 121.657104,39.591393 
M80.711563,184.380280 
	C82.442841,187.946671 85.501717,189.214081 88.941238,187.843262 
	C94.862923,185.483200 93.214828,180.132538 93.262077,175.391068 
	C88.746841,175.391068 84.418198,175.391068 79.890053,175.391068 
	C80.038689,178.384491 80.169319,181.015289 80.711563,184.380280 
M54.035759,177.993103 
	C53.196091,181.606796 53.221157,185.365997 56.865047,187.096390 
	C58.856380,188.042007 62.309380,187.981155 64.117729,186.828308 
	C68.473679,184.051392 66.933678,179.392227 66.681686,173.875290 
	C62.228832,175.116425 58.370174,176.191925 54.035759,177.993103 
z"/>
<path fill="#FDFDFD" opacity="1.000000" stroke="none" 
	d="
M1.000000,146.468658 
	C3.831389,153.640869 8.255379,159.678192 16.943649,161.439926 
	C11.039961,170.581085 12.228939,181.123306 9.997850,190.875305 
	C9.627814,192.492737 9.042895,194.232315 9.309501,195.786407 
	C9.783237,198.547897 10.048214,202.280960 11.863559,203.611542 
	C13.654133,204.923996 17.671051,204.631653 19.989944,203.527939 
	C27.621229,199.895782 34.925453,195.576462 41.159821,192.173599 
	C46.845600,195.388596 51.584873,199.113174 56.964588,200.824783 
	C62.666504,202.638901 68.470810,200.618958 73.170853,196.646881 
	C86.178192,206.262436 105.600586,201.152542 106.710312,179.412796 
	C133.275681,191.244934 159.813797,191.152420 186.670380,178.947739 
	C186.670380,184.441620 186.564606,189.383499 186.698593,194.318893 
	C186.848160,199.828293 190.897659,202.993011 195.730957,200.773300 
	C204.907837,196.558777 213.829651,191.782700 222.788467,187.107727 
	C223.852905,186.552292 224.487000,185.172150 225.660278,184.087158 
	C226.000000,197.982330 226.000000,211.964661 226.000000,225.973495 
	C151.112335,225.973495 76.224655,225.973495 1.000000,225.973495 
	C1.000000,199.646729 1.000000,173.292023 1.000000,146.468658 
z"/>
<path fill="#FCFCFC" opacity="1.000000" stroke="none" 
	d="
M104.952660,163.789948 
	C102.205627,163.080658 99.829651,162.070206 97.442947,162.044189 
	C83.451302,161.891693 69.457123,161.984100 55.463840,161.963943 
	C46.292824,161.950745 40.874443,157.053833 40.763668,148.745422 
	C40.659359,140.922470 46.082691,135.637527 54.964062,135.486221 
	C69.285332,135.242233 83.617256,135.514465 97.934074,135.150879 
	C110.436699,134.833374 121.043968,129.615799 130.065170,121.107986 
	C133.409912,117.953590 133.774048,114.243225 131.012360,111.452065 
	C127.857368,108.263382 124.427094,108.578514 121.311676,111.483932 
	C114.503807,117.832901 106.588715,121.602112 97.267731,122.285416 
	C96.174522,122.365562 95.070366,122.296303 93.033333,122.296303 
	C102.224503,109.160637 110.926651,96.723854 119.747871,84.116905 
	C133.273010,90.754936 146.720367,96.847740 159.654724,103.883629 
	C168.079361,108.466393 176.696198,109.980743 186.668045,108.795433 
	C186.668045,110.886421 186.668045,112.488724 186.668045,114.091019 
	C186.668060,129.250443 186.517395,144.412399 186.773819,159.567490 
	C186.838104,163.367264 185.483261,165.020706 182.199448,166.575562 
	C156.073349,178.945862 130.500656,177.813156 104.952660,163.789948 
z"/>
<path fill="#FAFAFA" opacity="1.000000" stroke="none" 
	d="
M56.153946,106.157356 
	C53.570587,109.854942 51.435509,113.466957 48.742702,116.599533 
	C45.356075,120.539230 41.741470,124.352150 37.808212,127.734871 
	C33.105923,131.778992 29.571667,136.481705 28.281898,142.499023 
	C27.494158,146.174179 25.397839,148.488266 22.094763,148.568558 
	C19.821651,148.623810 16.958750,147.258896 15.329434,145.584717 
	C12.904358,143.092880 14.219357,140.185822 15.983736,137.430527 
	C27.253944,119.830566 38.403385,102.153297 49.615677,84.516167 
	C50.233494,83.544327 50.871368,82.304848 51.814888,81.863861 
	C61.192657,77.480782 70.636810,73.239731 80.062195,68.958542 
	C80.432381,69.439674 80.802567,69.920799 81.172745,70.401932 
	C72.900032,82.220932 64.627327,94.039925 56.153946,106.157356 
z"/>
<path fill="#F4F4F4" opacity="1.000000" stroke="none" 
	d="
M199.431290,163.999268 
	C199.431305,145.571609 199.431305,127.643799 199.431305,109.388916 
	C203.981171,109.388916 208.187698,109.388916 212.971085,109.388916 
	C212.971085,112.452019 212.971069,115.553429 212.971085,118.654839 
	C212.971130,136.771881 212.872345,154.889938 213.058350,173.005066 
	C213.093658,176.442795 212.213013,178.479309 208.949402,179.739380 
	C205.915756,180.910645 203.068207,182.563873 199.431274,184.352921 
	C199.431274,177.301788 199.431274,170.900436 199.431290,163.999268 
z"/>
<path fill="#FAFAFA" opacity="1.000000" stroke="none" 
	d="
M82.416626,91.414276 
	C89.885506,80.795479 97.121826,70.452751 104.542168,59.847000 
	C108.203453,62.409698 111.699699,64.856880 115.427879,67.466400 
	C102.897354,85.370369 90.546097,103.061417 78.095802,120.682480 
	C77.460175,121.582100 75.993073,122.331169 74.879692,122.379417 
	C70.441055,122.571762 65.989189,122.458694 60.755951,122.458694 
	C68.214607,111.748909 75.199333,101.719627 82.416626,91.414276 
z"/>
<path fill="#F5F5F5" opacity="1.000000" stroke="none" 
	d="
M39.658394,175.757584 
	C34.711617,179.667526 29.988417,183.306076 25.265219,186.944641 
	C24.687561,177.964722 25.244352,170.138275 31.861931,164.223160 
	C34.876732,166.849838 38.060879,169.624069 41.628220,172.732162 
	C41.187565,173.427124 40.534767,174.456665 39.658394,175.757584 
z"/>
<path fill="#F6F6F6" opacity="1.000000" stroke="none" 
	d="
M121.967361,39.804646 
	C124.933189,41.911285 127.588753,43.804672 130.533752,45.904419 
	C127.938431,49.613022 125.523094,53.064430 122.939705,56.755985 
	C119.147713,54.075863 115.716423,51.650677 112.109802,49.101570 
	C114.280365,45.963573 116.104431,43.030781 118.276260,40.383266 
	C118.859001,39.672886 120.501244,39.831631 121.967361,39.804646 
z"/>
<path fill="#FAFAFA" opacity="1.000000" stroke="none" 
	d="
M80.505753,184.013184 
	C80.169319,181.015289 80.038689,178.384491 79.890053,175.391068 
	C84.418198,175.391068 88.746841,175.391068 93.262077,175.391068 
	C93.214828,180.132538 94.862923,185.483200 88.941238,187.843262 
	C85.501717,189.214081 82.442841,187.946671 80.505753,184.013184 
z"/>
<path fill="#F9F9F9" opacity="1.000000" stroke="none" 
	d="
M54.273636,177.630264 
	C58.370174,176.191925 62.228832,175.116425 66.681686,173.875290 
	C66.933678,179.392227 68.473679,184.051392 64.117729,186.828308 
	C62.309380,187.981155 58.856380,188.042007 56.865047,187.096390 
	C53.221157,185.365997 53.196091,181.606796 54.273636,177.630264 
z"/>
</svg>