<svg version="1.1" id="Layer_1" xmlns="http://www.w3.org/2000/svg" xmlns:xlink="http://www.w3.org/1999/xlink" x="0px" y="0px"
	 width="100%" viewBox="0 0 200 200" enable-background="new 0 0 200 200" xml:space="preserve">
<path fill="#FEFEFE" opacity="1.000000" stroke="none" 
	d="
M132.000000,201.000000 
	C88.000000,201.000000 44.500004,201.000000 1.000006,201.000000 
	C1.000004,134.333344 1.000004,67.666679 1.000002,1.000015 
	C67.666656,1.000010 134.333313,1.000010 200.999969,1.000005 
	C200.999985,67.666649 200.999985,134.333298 201.000000,200.999969 
	C178.166672,201.000000 155.333328,201.000000 132.000000,201.000000 
M63.321365,185.825073 
	C64.541260,189.478745 67.304497,190.244781 70.808563,190.168915 
	C77.467972,190.024780 84.133286,190.073334 90.795090,190.142761 
	C97.180672,190.209290 103.486679,189.276352 109.969589,189.930817 
	C118.048553,190.746414 126.274399,190.215683 134.433945,190.085709 
	C139.759903,190.000870 142.270798,187.090622 141.930313,181.781952 
	C141.838120,180.344696 141.564178,178.919098 141.356369,177.358292 
	C142.920044,176.730042 144.288620,176.165543 145.667847,175.628311 
	C157.641510,170.964539 160.170883,166.711060 158.184998,153.905884 
	C156.764511,144.746338 155.096680,135.625183 153.478806,126.132500 
	C158.732788,125.337395 162.496643,122.904800 163.034790,117.423340 
	C163.773819,109.895767 158.699860,106.049736 153.176193,102.614609 
	C163.293518,94.276711 164.211594,83.338333 161.800186,71.707535 
	C159.047989,58.433067 147.719940,56.318298 137.094772,53.718819 
	C136.041428,31.975403 123.609863,17.780153 105.172081,17.012321 
	C96.484627,16.650536 88.726982,19.159925 82.065392,24.715139 
	C73.147766,32.151707 69.555374,42.002235 69.895538,53.770950 
	C54.108353,54.337135 47.740482,64.278236 45.166584,77.977318 
	C45.135838,78.140953 45.146996,78.323303 45.077118,78.467041 
	C44.454067,79.748665 44.030270,81.198868 43.148415,82.270889 
	C38.712078,87.663826 37.611805,93.881302 38.574352,100.548050 
	C38.796375,102.085793 39.740604,103.605141 40.638386,104.940781 
	C42.286732,107.393044 44.212700,109.657204 45.900600,112.084824 
	C47.408558,114.253639 48.276077,117.204407 50.270336,118.625526 
	C53.963711,121.257408 53.278061,124.360146 52.678905,127.819084 
	C50.948441,137.809158 48.935184,147.769531 47.726315,157.824921 
	C46.641903,166.845078 49.892982,171.414185 58.271950,174.733551 
	C60.101116,175.458176 61.932564,176.177032 63.627445,176.845123 
	C63.448971,179.775696 63.289345,182.396820 63.321365,185.825073 
z"/>
<path fill="#050505" opacity="1.000000" stroke="none" 
	d="
M63.225540,185.421509 
	C63.289345,182.396820 63.448971,179.775696 63.627445,176.845123 
	C61.932564,176.177032 60.101116,175.458176 58.271950,174.733551 
	C49.892982,171.414185 46.641903,166.845078 47.726315,157.824921 
	C48.935184,147.769531 50.948441,137.809158 52.678905,127.819084 
	C53.278061,124.360146 53.963711,121.257408 50.270336,118.625526 
	C48.276077,117.204407 47.408558,114.253639 45.900600,112.084824 
	C44.212700,109.657204 42.286732,107.393044 40.638386,104.940781 
	C39.740604,103.605141 38.796375,102.085793 38.574352,100.548050 
	C37.611805,93.881302 38.712078,87.663826 43.148415,82.270889 
	C44.030270,81.198868 44.454067,79.748665 45.077118,78.467041 
	C45.146996,78.323303 45.135838,78.140953 45.166584,77.977318 
	C47.740482,64.278236 54.108353,54.337135 69.895538,53.770950 
	C69.555374,42.002235 73.147766,32.151707 82.065392,24.715139 
	C88.726982,19.159925 96.484627,16.650536 105.172081,17.012321 
	C123.609863,17.780153 136.041428,31.975403 137.094772,53.718819 
	C147.719940,56.318298 159.047989,58.433067 161.800186,71.707535 
	C164.211594,83.338333 163.293518,94.276711 153.176193,102.614609 
	C158.699860,106.049736 163.773819,109.895767 163.034790,117.423340 
	C162.496643,122.904800 158.732788,125.337395 153.478806,126.132500 
	C155.096680,135.625183 156.764511,144.746338 158.184998,153.905884 
	C160.170883,166.711060 157.641510,170.964539 145.667847,175.628311 
	C144.288620,176.165543 142.920044,176.730042 141.356369,177.358292 
	C141.564178,178.919098 141.838120,180.344696 141.930313,181.781952 
	C142.270798,187.090622 139.759903,190.000870 134.433945,190.085709 
	C126.274399,190.215683 118.048553,190.746414 109.969589,189.930817 
	C103.486679,189.276352 97.180672,190.209290 90.795090,190.142761 
	C84.133286,190.073334 77.467972,190.024780 70.808563,190.168915 
	C67.304497,190.244781 64.541260,189.478745 63.225540,185.421509 
M73.192780,93.981819 
	C96.153770,99.993500 119.451538,101.747330 142.995911,98.876404 
	C146.485138,98.450943 150.926025,96.764992 152.833588,94.140778 
	C158.457764,86.403641 158.497040,77.228371 154.346115,69.014900 
	C150.715668,61.831238 142.803375,61.021004 136.246384,60.018661 
	C132.960632,65.405617 130.059296,70.162338 127.130478,74.964127 
	C130.095520,75.614983 133.285660,75.995178 136.198044,77.104553 
	C137.446609,77.580154 138.117554,79.572174 139.050934,80.875198 
	C137.569229,81.515671 136.038605,82.790665 134.614761,82.680847 
	C129.827789,82.311646 125.052422,80.726036 120.319870,80.898979 
	C98.227325,81.706352 76.139114,82.761452 54.074245,84.129555 
	C45.931858,84.634415 41.871124,93.047974 45.729164,101.147903 
	C49.878361,99.773643 54.048550,98.186584 58.334686,97.028725 
	C62.933567,95.786362 67.641457,94.947502 73.192780,93.981819 
M70.744926,117.221786 
	C83.203735,116.984375 95.662560,116.747223 108.121361,116.509468 
	C117.418648,116.332054 126.721230,115.895737 136.010910,116.086983 
	C140.526031,116.179932 145.111694,117.103493 149.482666,118.312035 
	C152.021210,119.013931 154.822876,121.372528 156.326782,118.136864 
	C157.125809,116.417740 156.037018,112.797684 154.545258,111.230263 
	C150.164658,106.627495 144.178436,105.512817 138.028671,105.785942 
	C116.495392,106.742287 95.139595,106.000099 74.155960,100.317604 
	C71.584846,99.621323 68.444969,99.927788 65.838455,100.690994 
	C60.604099,102.223625 55.556053,104.392570 50.441181,106.295166 
	C53.477016,117.005295 58.486046,119.848389 70.744926,117.221786 
M98.655792,169.688889 
	C98.920609,169.818375 99.185425,169.947861 99.450241,170.077347 
	C99.633957,169.679901 99.977486,169.282791 99.978287,168.884979 
	C100.007095,154.579224 100.012825,140.273376 99.989571,125.967598 
	C99.987534,124.714775 99.766129,123.462311 99.710236,122.876526 
	C89.878044,122.876526 80.513077,122.876526 71.022278,122.876526 
	C71.022278,138.030334 71.022278,152.279221 71.022278,166.939713 
	C80.767998,161.312485 89.832512,161.501205 98.655792,169.688889 
M114.507286,122.809174 
	C111.767982,122.809174 109.028679,122.809174 106.401520,122.809174 
	C106.401520,138.346619 106.401520,153.644547 106.401520,169.424576 
	C115.381729,161.485260 124.596191,161.288712 134.573380,167.281021 
	C135.096268,151.823624 135.596542,137.034485 136.076981,122.831863 
	C128.772095,122.831863 122.140152,122.831863 114.507286,122.809174 
M75.083282,77.967285 
	C77.437622,77.643906 79.791962,77.320526 81.383591,77.101906 
	C78.188469,71.910324 75.209991,66.838928 71.947884,61.957058 
	C71.257729,60.924206 69.487312,59.945446 68.287773,60.026352 
	C58.693169,60.673466 52.798569,67.172958 51.830170,78.023369 
	C59.287495,78.023369 66.729958,78.023369 75.083282,77.967285 
M119.510017,184.112198 
	C124.939598,184.112198 130.369171,184.112198 135.804474,184.112198 
	C135.441269,175.014145 129.485168,168.993286 121.418823,169.042313 
	C113.310692,169.091599 107.395729,175.165695 107.158524,184.112198 
	C110.948486,184.112198 114.733170,184.112198 119.510017,184.112198 
M94.247574,184.111130 
	C95.473389,183.980957 96.699196,183.850784 97.899788,183.723282 
	C97.374367,174.633118 90.957069,168.579529 82.751396,169.060150 
	C74.778130,169.527161 69.061310,175.861420 69.477524,184.111160 
	C77.406593,184.111160 85.354988,184.111160 94.247574,184.111130 
M113.457825,67.053825 
	C103.085648,67.053825 92.713463,67.053825 81.555679,67.053825 
	C85.825943,71.463348 89.232765,75.871666 95.373466,75.696251 
	C101.509270,75.520981 107.632675,74.948929 113.766792,74.665039 
	C118.707512,74.436386 121.489677,71.353050 124.849365,67.055527 
	C120.657776,67.055527 117.547340,67.055527 113.457825,67.053825 
z"/>
<path fill="#FBFBFB" opacity="1.000000" stroke="none" 
	d="
M72.747276,93.957184 
	C67.641457,94.947502 62.933567,95.786362 58.334686,97.028725 
	C54.048550,98.186584 49.878361,99.773643 45.729164,101.147903 
	C41.871124,93.047974 45.931858,84.634415 54.074245,84.129555 
	C76.139114,82.761452 98.227325,81.706352 120.319870,80.898979 
	C125.052422,80.726036 129.827789,82.311646 134.614761,82.680847 
	C136.038605,82.790665 137.569229,81.515671 139.050934,80.875198 
	C138.117554,79.572174 137.446609,77.580154 136.198044,77.104553 
	C133.285660,75.995178 130.095520,75.614983 127.130478,74.964127 
	C130.059296,70.162338 132.960632,65.405617 136.246384,60.018661 
	C142.803375,61.021004 150.715668,61.831238 154.346115,69.014900 
	C158.497040,77.228371 158.457764,86.403641 152.833588,94.140778 
	C150.926025,96.764992 146.485138,98.450943 142.995911,98.876404 
	C119.451538,101.747330 96.153770,99.993500 72.747276,93.957184 
z"/>
<path fill="#FAFAFA" opacity="1.000000" stroke="none" 
	d="
M70.300095,117.315552 
	C58.486046,119.848389 53.477016,117.005295 50.441181,106.295166 
	C55.556053,104.392570 60.604099,102.223625 65.838455,100.690994 
	C68.444969,99.927788 71.584846,99.621323 74.155960,100.317604 
	C95.139595,106.000099 116.495392,106.742287 138.028671,105.785942 
	C144.178436,105.512817 150.164658,106.627495 154.545258,111.230263 
	C156.037018,112.797684 157.125809,116.417740 156.326782,118.136864 
	C154.822876,121.372528 152.021210,119.013931 149.482666,118.312035 
	C145.111694,117.103493 140.526031,116.179932 136.010910,116.086983 
	C126.721230,115.895737 117.418648,116.332054 108.121361,116.509468 
	C95.662560,116.747223 83.203735,116.984375 70.300095,117.315552 
z"/>
<path fill="#FEFEFE" opacity="1.000000" stroke="none" 
	d="
M98.407806,169.436066 
	C89.832512,161.501205 80.767998,161.312485 71.022278,166.939713 
	C71.022278,152.279221 71.022278,138.030334 71.022278,122.876526 
	C80.513077,122.876526 89.878044,122.876526 99.710236,122.876526 
	C99.766129,123.462311 99.987534,124.714775 99.989571,125.967598 
	C100.012825,140.273376 100.007095,154.579224 99.978287,168.884979 
	C99.977486,169.282791 99.633957,169.679901 99.450241,170.077362 
	C99.185425,169.947861 98.920609,169.818375 98.407806,169.436066 
z"/>
<path fill="#FCFCFC" opacity="1.000000" stroke="none" 
	d="
M115.007751,122.820518 
	C122.140152,122.831863 128.772095,122.831863 136.076981,122.831863 
	C135.596542,137.034485 135.096268,151.823624 134.573380,167.281021 
	C124.596191,161.288712 115.381729,161.485260 106.401520,169.424576 
	C106.401520,153.644547 106.401520,138.346619 106.401520,122.809174 
	C109.028679,122.809174 111.767982,122.809174 115.007751,122.820518 
z"/>
<path fill="#F9F9F9" opacity="1.000000" stroke="none" 
	d="
M74.627853,77.995331 
	C66.729958,78.023369 59.287495,78.023369 51.830170,78.023369 
	C52.798569,67.172958 58.693169,60.673466 68.287773,60.026352 
	C69.487312,59.945446 71.257729,60.924206 71.947884,61.957058 
	C75.209991,66.838928 78.188469,71.910324 81.383591,77.101906 
	C79.791962,77.320526 77.437622,77.643906 74.627853,77.995331 
z"/>
<path fill="#FAFAFA" opacity="1.000000" stroke="none" 
	d="
M119.013931,184.112198 
	C114.733170,184.112198 110.948486,184.112198 107.158524,184.112198 
	C107.395729,175.165695 113.310692,169.091599 121.418823,169.042313 
	C129.485168,168.993286 135.441269,175.014145 135.804474,184.112198 
	C130.369171,184.112198 124.939598,184.112198 119.013931,184.112198 
z"/>
<path fill="#FAFAFA" opacity="1.000000" stroke="none" 
	d="
M93.775475,184.111145 
	C85.354988,184.111160 77.406593,184.111160 69.477524,184.111160 
	C69.061310,175.861420 74.778130,169.527161 82.751396,169.060150 
	C90.957069,168.579529 97.374367,174.633118 97.899788,183.723282 
	C96.699196,183.850784 95.473389,183.980957 93.775475,184.111145 
z"/>
<path fill="#F6F6F6" opacity="1.000000" stroke="none" 
	d="
M113.947357,67.054672 
	C117.547340,67.055527 120.657776,67.055527 124.849365,67.055527 
	C121.489677,71.353050 118.707512,74.436386 113.766792,74.665039 
	C107.632675,74.948929 101.509270,75.520981 95.373466,75.696251 
	C89.232765,75.871666 85.825943,71.463348 81.555679,67.053825 
	C92.713463,67.053825 103.085648,67.053825 113.947357,67.054672 
z"/>
</svg>