<svg version="1.1" id="Layer_1" xmlns="http://www.w3.org/2000/svg" xmlns:xlink="http://www.w3.org/1999/xlink" x="0px" y="0px"
	 width="100%" viewBox="0 0 225 225" enable-background="new 0 0 225 225" xml:space="preserve">
<path fill="#FEFEFE" opacity="1.000000" stroke="none" 
	d="
M1.000000,85.000000 
	C1.000000,56.666672 1.000000,28.833344 1.000000,1.000011 
	C75.999977,1.000007 150.999954,1.000007 225.999954,1.000004 
	C225.999969,75.999969 225.999969,150.999939 225.999985,225.999939 
	C151.000046,225.999954 76.000092,225.999954 1.000068,225.999969 
	C1.000000,179.166672 1.000000,132.333328 1.000000,85.000000 
M23.069548,109.390160 
	C24.525805,111.868416 27.326784,114.431068 27.177563,116.808556 
	C26.783752,123.083038 23.429144,125.701118 16.750393,126.780243 
	C7.988197,128.195999 7.983001,128.195999 7.989378,136.859604 
	C7.999226,150.238037 6.744116,147.523560 19.707220,149.961075 
	C22.378716,150.463409 23.709681,151.366974 25.226053,153.873352 
	C28.477713,159.247986 26.298393,162.840744 23.134581,166.972641 
	C18.377453,173.185349 18.511671,173.362518 24.022068,178.779709 
	C34.173965,188.759872 30.966263,188.383209 42.664436,180.159760 
	C44.677719,178.744492 46.281490,178.802887 48.821190,179.341690 
	C55.503338,180.759262 55.991673,185.547333 56.766232,190.729385 
	C57.840405,197.915970 57.968605,197.896790 65.154175,197.898636 
	C77.491203,197.901810 77.453117,197.894180 79.916046,185.612778 
	C80.209312,184.150345 80.829659,182.121155 81.919044,181.560379 
	C86.594124,179.153793 91.314201,176.856262 95.978401,182.220352 
	C97.917183,184.450073 101.021904,185.665985 103.594788,187.341843 
	C96.536346,197.773438 96.536346,197.773438 104.160110,205.364441 
	C110.385536,211.563110 110.385529,211.563095 117.446854,206.331177 
	C121.848839,203.069611 126.219460,204.888672 126.884468,210.259125 
	C127.968269,219.011795 127.968269,219.011795 136.904572,219.011795 
	C147.152145,219.011810 147.152161,219.011810 149.480347,209.176971 
	C150.420898,205.203857 154.813248,203.410446 158.022125,205.852676 
	C166.229248,212.098999 165.335312,212.286987 172.850281,204.618301 
	C173.083374,204.380447 173.335693,204.161545 173.571823,203.926529 
	C181.568939,195.967972 180.017349,197.584412 174.630371,190.420456 
	C172.605103,187.727097 172.435287,185.147964 174.345169,183.404465 
	C176.146210,181.760254 179.138885,181.033310 181.709122,180.708832 
	C185.768417,180.196381 187.657364,178.598068 187.204102,174.289520 
	C186.874710,171.158295 186.946182,167.949539 187.189819,164.802521 
	C187.480042,161.053604 186.058365,159.110748 182.249496,158.965195 
	C181.088989,158.920822 179.925720,158.759293 178.779602,158.560059 
	C172.910233,157.539658 171.365311,153.570236 174.974991,148.762161 
	C177.701782,145.130096 181.883179,141.677948 175.418518,137.489197 
	C211.686188,122.746719 226.299103,84.943542 215.349945,53.265488 
	C204.348099,21.435003 171.685242,2.383528 139.050156,9.217635 
	C122.271103,12.731331 108.496498,21.266951 98.402763,35.200989 
	C84.665756,54.164421 82.429245,75.071495 89.042717,97.062904 
	C81.640091,96.463585 79.350311,92.125313 78.889397,85.550903 
	C78.395615,78.507729 77.896011,78.406456 70.421112,78.457481 
	C55.197906,78.561394 58.360214,76.769310 55.838558,90.743256 
	C54.967087,95.572594 46.871136,98.887466 42.796638,96.089104 
	C30.685270,87.771034 34.403084,87.236954 23.390072,97.995026 
	C18.462761,102.808281 18.519247,102.869972 23.069548,109.390160 
z"/>
<path fill="#070707" opacity="1.000000" stroke="none" 
	d="
M22.880703,109.063644 
	C18.519247,102.869972 18.462761,102.808281 23.390072,97.995026 
	C34.403084,87.236954 30.685270,87.771034 42.796638,96.089104 
	C46.871136,98.887466 54.967087,95.572594 55.838558,90.743256 
	C58.360214,76.769310 55.197906,78.561394 70.421112,78.457481 
	C77.896011,78.406456 78.395615,78.507729 78.889397,85.550903 
	C79.350311,92.125313 81.640091,96.463585 89.042717,97.062904 
	C82.429245,75.071495 84.665756,54.164421 98.402763,35.200989 
	C108.496498,21.266951 122.271103,12.731331 139.050156,9.217635 
	C171.685242,2.383528 204.348099,21.435003 215.349945,53.265488 
	C226.299103,84.943542 211.686188,122.746719 175.418518,137.489197 
	C181.883179,141.677948 177.701782,145.130096 174.974991,148.762161 
	C171.365311,153.570236 172.910233,157.539658 178.779602,158.560059 
	C179.925720,158.759293 181.088989,158.920822 182.249496,158.965195 
	C186.058365,159.110748 187.480042,161.053604 187.189819,164.802521 
	C186.946182,167.949539 186.874710,171.158295 187.204102,174.289520 
	C187.657364,178.598068 185.768417,180.196381 181.709122,180.708832 
	C179.138885,181.033310 176.146210,181.760254 174.345169,183.404465 
	C172.435287,185.147964 172.605103,187.727097 174.630371,190.420456 
	C180.017349,197.584412 181.568939,195.967972 173.571823,203.926529 
	C173.335693,204.161545 173.083374,204.380447 172.850281,204.618301 
	C165.335312,212.286987 166.229248,212.098999 158.022125,205.852676 
	C154.813248,203.410446 150.420898,205.203857 149.480347,209.176971 
	C147.152161,219.011810 147.152145,219.011810 136.904572,219.011795 
	C127.968269,219.011795 127.968269,219.011795 126.884468,210.259125 
	C126.219460,204.888672 121.848839,203.069611 117.446854,206.331177 
	C110.385529,211.563095 110.385536,211.563110 104.160110,205.364441 
	C96.536346,197.773438 96.536346,197.773438 103.594788,187.341843 
	C101.021904,185.665985 97.917183,184.450073 95.978401,182.220352 
	C91.314201,176.856262 86.594124,179.153793 81.919044,181.560379 
	C80.829659,182.121155 80.209312,184.150345 79.916046,185.612778 
	C77.453117,197.894180 77.491203,197.901810 65.154175,197.898636 
	C57.968605,197.896790 57.840405,197.915970 56.766232,190.729385 
	C55.991673,185.547333 55.503338,180.759262 48.821190,179.341690 
	C46.281490,178.802887 44.677719,178.744492 42.664436,180.159760 
	C30.966263,188.383209 34.173965,188.759872 24.022068,178.779709 
	C18.511671,173.362518 18.377453,173.185349 23.134581,166.972641 
	C26.298393,162.840744 28.477713,159.247986 25.226053,153.873352 
	C23.709681,151.366974 22.378716,150.463409 19.707220,149.961075 
	C6.744116,147.523560 7.999226,150.238037 7.989378,136.859604 
	C7.983001,128.195999 7.988197,128.195999 16.750393,126.780243 
	C23.429144,125.701118 26.783752,123.083038 27.177563,116.808556 
	C27.326784,114.431068 24.525805,111.868416 22.880703,109.063644 
M99.666328,115.902664 
	C97.342209,112.470436 95.018089,109.038208 93.309181,106.514503 
	C87.457710,104.354118 82.222298,102.748726 77.271553,100.512985 
	C70.623405,97.510704 74.650551,89.892311 71.277260,85.435417 
	C68.810463,85.435417 66.386879,85.435417 63.567646,85.435417 
	C62.386868,92.590820 62.447346,98.830330 53.355042,102.965637 
	C43.629082,107.389122 39.502720,101.486732 33.903923,98.320755 
	C31.760094,100.376022 29.883831,102.174767 27.898335,104.078239 
	C31.647108,109.982582 36.292648,114.307159 32.744358,123.692307 
	C28.970592,133.673828 21.424919,131.886536 15.250963,134.191727 
	C15.250963,137.131119 15.250963,139.568588 15.250963,142.265762 
	C22.245523,143.804871 28.825752,143.212418 32.747547,152.683655 
	C36.700520,162.230209 31.423815,166.379990 27.621666,172.621643 
	C29.536171,174.515411 31.403208,176.362244 33.301220,178.239700 
	C39.519814,174.634384 43.547050,169.202637 53.157719,173.136337 
	C62.870800,177.111938 62.055611,183.980209 63.774094,190.790268 
	C66.595444,190.790268 69.058090,190.790268 71.724701,190.790268 
	C73.677925,184.132065 72.704102,177.383179 82.015511,173.272278 
	C91.727943,168.984299 96.012917,174.519424 102.127098,178.159027 
	C104.202911,176.187668 106.090492,174.395065 107.971642,172.608582 
	C104.273697,166.337387 98.958611,162.288147 102.807388,152.707230 
	C106.744720,142.905823 113.785782,143.965088 120.551125,142.113251 
	C120.551125,139.291153 120.551125,136.839233 120.551125,134.178772 
	C118.802299,133.807617 117.202660,133.220398 115.585976,133.168976 
	C109.419991,132.972839 104.745659,131.325470 103.714996,124.095711 
	C103.338181,121.452423 101.317467,119.043480 99.666328,115.902664 
M179.415955,128.008865 
	C203.484711,114.937546 215.169601,91.350128 210.990005,64.272682 
	C206.364716,34.307755 177.221985,12.175893 146.357330,15.188697 
	C115.413712,18.209209 90.862495,45.922035 92.204552,76.315056 
	C94.155670,120.501656 138.739456,147.304520 179.415955,128.008865 
M120.523827,196.595779 
	C127.602448,199.020966 135.046982,201.100739 134.058533,211.081421 
	C134.037018,211.298691 134.409378,211.554947 134.582489,211.773438 
	C137.043015,211.773438 139.483688,211.773438 142.141983,211.773438 
	C142.958099,206.206421 143.060760,201.504562 150.033691,198.485260 
	C157.299515,195.339127 160.701263,199.583115 164.296936,201.807877 
	C166.992188,199.891190 169.038361,198.436081 171.135635,196.944626 
	C167.192444,192.132462 164.103806,188.734604 166.832413,181.679810 
	C169.676804,174.325653 175.076248,174.889618 180.163559,173.664459 
	C180.643265,166.201004 180.627869,166.275391 173.436569,164.787079 
	C171.916214,164.472427 170.021759,163.767578 169.206711,162.606033 
	C164.549698,155.969482 164.746780,151.096176 169.492111,144.525253 
	C169.874908,143.995209 170.170227,143.401993 171.253799,141.583374 
	C168.563675,141.089294 166.387161,140.182175 164.353378,140.432877 
	C161.164047,140.826004 157.972198,142.963379 154.956833,142.653763 
	C147.591324,141.897446 140.345322,140.042847 133.012115,138.876129 
	C129.797974,138.364746 126.896713,139.041565 127.364677,143.388458 
	C127.754356,147.008118 125.955872,148.569931 122.608978,148.980698 
	C120.469063,149.243301 118.344681,149.970978 116.220268,149.944046 
	C112.843124,149.901230 111.738220,151.812057 110.099625,154.453247 
	C106.730637,159.883591 109.699242,163.217346 112.644661,167.085480 
	C117.276215,173.167969 117.259789,173.341003 111.840942,178.503067 
	C109.690346,180.551743 108.574150,182.121552 110.273308,185.220459 
	C111.049065,186.635254 110.368591,189.260712 109.596870,191.004379 
	C108.693001,193.046616 106.970383,194.726501 105.636871,196.517944 
	C107.533913,198.652451 109.262474,200.597382 110.785286,202.310806 
	C114.145325,200.192169 116.935349,198.432938 120.523827,196.595779 
z"/>
<path fill="#FAFAFA" opacity="1.000000" stroke="none" 
	d="
M99.856506,116.215149 
	C101.317467,119.043480 103.338181,121.452423 103.714996,124.095711 
	C104.745659,131.325470 109.419991,132.972839 115.585976,133.168976 
	C117.202660,133.220398 118.802299,133.807617 120.551125,134.178772 
	C120.551125,136.839233 120.551125,139.291153 120.551125,142.113251 
	C113.785782,143.965088 106.744720,142.905823 102.807388,152.707230 
	C98.958611,162.288147 104.273697,166.337387 107.971642,172.608582 
	C106.090492,174.395065 104.202911,176.187668 102.127098,178.159027 
	C96.012917,174.519424 91.727943,168.984299 82.015511,173.272278 
	C72.704102,177.383179 73.677925,184.132065 71.724701,190.790268 
	C69.058090,190.790268 66.595444,190.790268 63.774094,190.790268 
	C62.055611,183.980209 62.870800,177.111938 53.157719,173.136337 
	C43.547050,169.202637 39.519814,174.634384 33.301220,178.239700 
	C31.403208,176.362244 29.536171,174.515411 27.621666,172.621643 
	C31.423815,166.379990 36.700520,162.230209 32.747547,152.683655 
	C28.825752,143.212418 22.245523,143.804871 15.250963,142.265762 
	C15.250963,139.568588 15.250963,137.131119 15.250963,134.191727 
	C21.424919,131.886536 28.970592,133.673828 32.744358,123.692307 
	C36.292648,114.307159 31.647108,109.982582 27.898335,104.078239 
	C29.883831,102.174767 31.760094,100.376022 33.903923,98.320755 
	C39.502720,101.486732 43.629082,107.389122 53.355042,102.965637 
	C62.447346,98.830330 62.386868,92.590820 63.567646,85.435417 
	C66.386879,85.435417 68.810463,85.435417 71.277260,85.435417 
	C74.650551,89.892311 70.623405,97.510704 77.271553,100.512985 
	C82.222298,102.748726 87.457710,104.354118 93.309181,106.514503 
	C95.018089,109.038208 97.342209,112.470436 99.856506,116.215149 
M44.806828,146.473129 
	C49.144272,157.140274 58.445179,163.299850 69.163055,162.603165 
	C80.037300,161.896317 88.485954,154.981522 91.487267,144.331894 
	C94.270126,134.457443 90.210953,123.756195 81.395821,117.727592 
	C73.329781,112.211288 61.966152,112.323929 53.746132,118.001671 
	C44.978302,124.057808 41.727360,133.788437 44.806828,146.473129 
z"/>
<path fill="#F6F6F6" opacity="1.000000" stroke="none" 
	d="
M179.079742,128.174683 
	C138.739456,147.304520 94.155670,120.501656 92.204552,76.315056 
	C90.862495,45.922035 115.413712,18.209209 146.357330,15.188697 
	C177.221985,12.175893 206.364716,34.307755 210.990005,64.272682 
	C215.169601,91.350128 203.484711,114.937546 179.079742,128.174683 
M202.124603,58.458042 
	C192.266205,29.232042 160.917252,14.620740 132.465836,25.991060 
	C104.689102,37.091751 91.827087,69.504013 104.330620,96.891800 
	C115.612221,121.603065 144.404236,133.592178 170.119675,124.286613 
	C196.600861,114.703949 210.180267,87.316895 202.124603,58.458042 
z"/>
<path fill="#F9F9F9" opacity="1.000000" stroke="none" 
	d="
M120.124603,196.634735 
	C116.935349,198.432938 114.145325,200.192169 110.785286,202.310806 
	C109.262474,200.597382 107.533913,198.652451 105.636871,196.517944 
	C106.970383,194.726501 108.693001,193.046616 109.596870,191.004379 
	C110.368591,189.260712 111.049065,186.635254 110.273308,185.220459 
	C108.574150,182.121552 109.690346,180.551743 111.840942,178.503067 
	C117.259789,173.341003 117.276215,173.167969 112.644661,167.085480 
	C109.699242,163.217346 106.730637,159.883591 110.099625,154.453247 
	C111.738220,151.812057 112.843124,149.901230 116.220268,149.944046 
	C118.344681,149.970978 120.469063,149.243301 122.608978,148.980698 
	C125.955872,148.569931 127.754356,147.008118 127.364677,143.388458 
	C126.896713,139.041565 129.797974,138.364746 133.012115,138.876129 
	C140.345322,140.042847 147.591324,141.897446 154.956833,142.653763 
	C157.972198,142.963379 161.164047,140.826004 164.353378,140.432877 
	C166.387161,140.182175 168.563675,141.089294 171.253799,141.583374 
	C170.170227,143.401993 169.874908,143.995209 169.492111,144.525253 
	C164.746780,151.096176 164.549698,155.969482 169.206711,162.606033 
	C170.021759,163.767578 171.916214,164.472427 173.436569,164.787079 
	C180.627869,166.275391 180.643265,166.201004 180.163559,173.664459 
	C175.076248,174.889618 169.676804,174.325653 166.832413,181.679810 
	C164.103806,188.734604 167.192444,192.132462 171.135635,196.944626 
	C169.038361,198.436081 166.992188,199.891190 164.296936,201.807877 
	C160.701263,199.583115 157.299515,195.339127 150.033691,198.485260 
	C143.060760,201.504562 142.958099,206.206421 142.141983,211.773438 
	C139.483688,211.773438 137.043015,211.773438 134.582489,211.773438 
	C134.409378,211.554947 134.037018,211.298691 134.058533,211.081421 
	C135.046982,201.100739 127.602448,199.020966 120.124603,196.634735 
M157.178986,178.434967 
	C157.667633,177.029526 158.284973,175.654312 158.623611,174.213608 
	C160.520737,166.142654 156.942963,157.167145 149.988281,152.374725 
	C143.010910,147.566666 133.171906,147.607773 126.133949,152.474396 
	C119.095306,157.341492 115.666672,166.170395 117.666946,174.277298 
	C119.913658,183.382980 126.201813,189.450531 135.538376,190.551559 
	C145.093918,191.678421 152.236176,187.533661 157.178986,178.434967 
z"/>
<path fill="#070707" opacity="1.000000" stroke="none" 
	d="
M44.641136,146.111786 
	C41.727360,133.788437 44.978302,124.057808 53.746132,118.001671 
	C61.966152,112.323929 73.329781,112.211288 81.395821,117.727592 
	C90.210953,123.756195 94.270126,134.457443 91.487267,144.331894 
	C88.485954,154.981522 80.037300,161.896317 69.163055,162.603165 
	C58.445179,163.299850 49.144272,157.140274 44.641136,146.111786 
M50.088661,137.597504 
	C50.401783,139.555984 50.461227,141.597885 51.072952,143.458176 
	C53.431244,150.629913 58.629597,154.768768 65.960884,155.639053 
	C72.957603,156.469604 78.685173,153.543213 82.522827,147.627838 
	C86.361435,141.711014 86.436523,135.439453 82.997910,129.277390 
	C79.582039,123.156075 72.380226,119.629837 65.834373,120.658737 
	C56.909645,122.061554 52.147388,126.946060 50.088661,137.597504 
z"/>
<path fill="#080808" opacity="1.000000" stroke="none" 
	d="
M202.253296,58.838890 
	C210.180267,87.316895 196.600861,114.703949 170.119675,124.286613 
	C144.404236,133.592178 115.612221,121.603065 104.330620,96.891800 
	C91.827087,69.504013 104.689102,37.091751 132.465836,25.991060 
	C160.917252,14.620740 192.266205,29.232042 202.253296,58.838890 
M148.768234,30.238770 
	C148.426743,29.937487 148.054001,29.344521 147.748276,29.377264 
	C138.305405,30.388556 129.862289,33.694607 122.646187,40.124222 
	C124.267288,41.966988 125.644066,43.532028 127.118744,45.208344 
	C125.343765,46.863323 123.834908,48.270180 122.278793,49.721092 
	C120.529808,48.090576 119.075905,46.735149 117.346886,45.123241 
	C111.296860,52.898239 107.107201,61.199936 106.857452,71.236977 
	C109.242867,71.386971 111.039345,71.499939 112.963806,71.620949 
	C112.963806,73.895737 112.963806,75.933006 112.963806,77.933846 
	C110.744888,78.131813 108.848595,78.300995 106.746399,78.488541 
	C107.506874,88.562614 111.059364,96.972176 117.476875,104.405769 
	C119.382538,102.705223 120.932518,101.322067 121.480721,100.832870 
	C123.537529,102.304680 125.245880,103.527145 126.929062,104.731590 
	C125.436264,106.431740 124.075935,107.981026 122.600098,109.661865 
	C130.461044,115.932007 138.734222,119.822891 148.622055,120.146935 
	C148.819321,117.666039 148.972382,115.740936 149.109100,114.021515 
	C151.395187,114.021515 153.315552,114.021515 155.367798,114.021515 
	C155.554779,116.215057 155.717010,118.118095 155.897858,120.239586 
	C165.963943,119.508575 174.354950,115.890717 181.712250,109.543022 
	C180.094650,107.715004 178.714981,106.155884 177.835587,105.162102 
	C179.299911,103.093742 180.530502,101.355522 181.743607,99.642014 
	C183.775116,101.536446 185.206543,102.871277 186.876236,104.428299 
	C193.415375,96.851524 196.782227,88.303825 197.714462,78.409439 
	C195.408112,78.243454 193.326950,78.093681 191.310287,77.948547 
	C191.310287,75.663933 191.310287,73.615387 191.310287,71.582130 
	C193.600128,71.409325 195.536957,71.263161 197.738113,71.097054 
	C196.718994,61.156647 193.318497,52.644676 186.887375,45.253754 
	C185.061859,46.862022 183.512741,48.226795 181.828751,49.710388 
	C180.197784,47.996574 178.854797,46.585361 177.417267,45.074806 
	C179.143204,43.665859 180.664597,42.423893 182.543671,40.889935 
	C174.508667,33.647587 165.901047,30.405962 155.923294,29.223845 
	C155.740967,31.465767 155.572250,33.540264 155.388718,35.797009 
	C153.142242,35.797009 151.071014,35.797009 148.847351,35.797009 
	C148.847351,34.064880 148.847351,32.579914 148.768234,30.238770 
z"/>
<path fill="#070707" opacity="1.000000" stroke="none" 
	d="
M157.058716,178.800705 
	C152.236176,187.533661 145.093918,191.678421 135.538376,190.551559 
	C126.201813,189.450531 119.913658,183.382980 117.666946,174.277298 
	C115.666672,166.170395 119.095306,157.341492 126.133949,152.474396 
	C133.171906,147.607773 143.010910,147.566666 149.988281,152.374725 
	C156.942963,157.167145 160.520737,166.142654 158.623611,174.213608 
	C158.284973,175.654312 157.667633,177.029526 157.058716,178.800705 
M149.119583,178.469162 
	C153.261124,171.970871 153.166367,165.703308 148.849869,160.627136 
	C144.969177,156.063461 138.592773,154.406189 133.083344,156.622330 
	C127.468048,158.881058 124.433235,163.132614 124.046722,169.127563 
	C123.677582,174.852951 127.103745,180.365402 132.388275,182.635498 
	C138.614716,185.310196 144.008209,183.748367 149.119583,178.469162 
z"/>
<path fill="#FBFBFB" opacity="1.000000" stroke="none" 
	d="
M50.106964,137.184326 
	C52.147388,126.946060 56.909645,122.061554 65.834373,120.658737 
	C72.380226,119.629837 79.582039,123.156075 82.997910,129.277390 
	C86.436523,135.439453 86.361435,141.711014 82.522827,147.627838 
	C78.685173,153.543213 72.957603,156.469604 65.960884,155.639053 
	C58.629597,154.768768 53.431244,150.629913 51.072952,143.458176 
	C50.461227,141.597885 50.401783,139.555984 50.106964,137.184326 
z"/>
<path fill="#FCFCFC" opacity="1.000000" stroke="none" 
	d="
M148.807800,30.666857 
	C148.847351,32.579914 148.847351,34.064880 148.847351,35.797009 
	C151.071014,35.797009 153.142242,35.797009 155.388718,35.797009 
	C155.572250,33.540264 155.740967,31.465767 155.923294,29.223845 
	C165.901047,30.405962 174.508667,33.647587 182.543671,40.889935 
	C180.664597,42.423893 179.143204,43.665859 177.417267,45.074806 
	C178.854797,46.585361 180.197784,47.996574 181.828751,49.710388 
	C183.512741,48.226795 185.061859,46.862022 186.887375,45.253754 
	C193.318497,52.644676 196.718994,61.156647 197.738113,71.097054 
	C195.536957,71.263161 193.600128,71.409325 191.310287,71.582130 
	C191.310287,73.615387 191.310287,75.663933 191.310287,77.948547 
	C193.326950,78.093681 195.408112,78.243454 197.714462,78.409439 
	C196.782227,88.303825 193.415375,96.851524 186.876236,104.428299 
	C185.206543,102.871277 183.775116,101.536446 181.743607,99.642014 
	C180.530502,101.355522 179.299911,103.093742 177.835587,105.162102 
	C178.714981,106.155884 180.094650,107.715004 181.712250,109.543022 
	C174.354950,115.890717 165.963943,119.508575 155.897858,120.239586 
	C155.717010,118.118095 155.554779,116.215057 155.367798,114.021515 
	C153.315552,114.021515 151.395187,114.021515 149.109100,114.021515 
	C148.972382,115.740936 148.819321,117.666039 148.622055,120.146935 
	C138.734222,119.822891 130.461044,115.932007 122.600098,109.661865 
	C124.075935,107.981026 125.436264,106.431740 126.929062,104.731590 
	C125.245880,103.527145 123.537529,102.304680 121.480721,100.832870 
	C120.932518,101.322067 119.382538,102.705223 117.476875,104.405769 
	C111.059364,96.972176 107.506874,88.562614 106.746399,78.488541 
	C108.848595,78.300995 110.744888,78.131813 112.963806,77.933846 
	C112.963806,75.933006 112.963806,73.895737 112.963806,71.620949 
	C111.039345,71.499939 109.242867,71.386971 106.857452,71.236977 
	C107.107201,61.199936 111.296860,52.898239 117.346886,45.123241 
	C119.075905,46.735149 120.529808,48.090576 122.278793,49.721092 
	C123.834908,48.270180 125.343765,46.863323 127.118744,45.208344 
	C125.644066,43.532028 124.267288,41.966988 122.646187,40.124222 
	C129.862289,33.694607 138.305405,30.388556 147.748276,29.377264 
	C148.054001,29.344521 148.426743,29.937487 148.807800,30.666857 
M135.763290,86.365799 
	C134.680466,87.549500 133.597656,88.733192 132.514832,89.916885 
	C132.983124,89.639267 133.451416,89.361649 133.919708,89.084023 
	C134.897430,90.996597 135.875168,92.909172 137.147614,95.398232 
	C139.052917,93.198189 140.192444,91.758820 141.460129,90.442917 
	C144.628113,87.154434 147.322433,83.734283 153.137604,84.931107 
	C157.406281,85.809654 160.576950,82.384148 161.995529,78.329689 
	C163.573212,73.820557 162.592651,69.495659 158.588379,66.779129 
	C155.929184,64.975121 155.477402,62.970249 155.557373,60.147865 
	C155.715714,54.559669 155.604126,48.963825 155.604126,43.479897 
	C152.953491,43.479897 151.039154,43.479897 149.199463,43.479897 
	C149.044601,44.078400 148.894241,44.391582 148.892685,44.705505 
	C148.866943,49.868259 148.738190,55.034863 148.897247,60.192436 
	C148.984161,63.009693 148.430954,64.889359 145.883530,66.780739 
	C143.893265,68.258461 141.698547,71.710144 142.121841,73.763840 
	C143.348923,79.717484 139.730484,82.572823 135.763290,86.365799 
z"/>
<path fill="#FBFBFB" opacity="1.000000" stroke="none" 
	d="
M148.899445,178.775284 
	C144.008209,183.748367 138.614716,185.310196 132.388275,182.635498 
	C127.103745,180.365402 123.677582,174.852951 124.046722,169.127563 
	C124.433235,163.132614 127.468048,158.881058 133.083344,156.622330 
	C138.592773,154.406189 144.969177,156.063461 148.849869,160.627136 
	C153.166367,165.703308 153.261124,171.970871 148.899445,178.775284 
z"/>
<path fill="#090909" opacity="1.000000" stroke="none" 
	d="
M136.020309,86.102554 
	C139.730484,82.572823 143.348923,79.717484 142.121841,73.763840 
	C141.698547,71.710144 143.893265,68.258461 145.883530,66.780739 
	C148.430954,64.889359 148.984161,63.009693 148.897247,60.192436 
	C148.738190,55.034863 148.866943,49.868259 148.892685,44.705505 
	C148.894241,44.391582 149.044601,44.078400 149.199463,43.479897 
	C151.039154,43.479897 152.953491,43.479897 155.604126,43.479897 
	C155.604126,48.963825 155.715714,54.559669 155.557373,60.147865 
	C155.477402,62.970249 155.929184,64.975121 158.588379,66.779129 
	C162.592651,69.495659 163.573212,73.820557 161.995529,78.329689 
	C160.576950,82.384148 157.406281,85.809654 153.137604,84.931107 
	C147.322433,83.734283 144.628113,87.154434 141.460129,90.442917 
	C140.192444,91.758820 139.052917,93.198189 137.147614,95.398232 
	C135.875168,92.909172 134.897430,90.996597 133.919708,89.084023 
	C133.451416,89.361649 132.983124,89.639267 132.514832,89.916885 
	C133.597656,88.733192 134.680466,87.549500 136.020309,86.102554 
M153.099472,78.172546 
	C153.908310,76.661148 155.287842,75.152802 155.295959,73.637123 
	C155.300308,72.825043 152.956848,71.407364 151.649231,71.379677 
	C150.700821,71.359581 148.715546,73.612701 148.925308,74.088715 
	C149.638321,75.706932 151.120163,76.986389 153.099472,78.172546 
z"/>
<path fill="#EAEAEA" opacity="1.000000" stroke="none" 
	d="
M152.703949,78.283875 
	C151.120163,76.986389 149.638321,75.706932 148.925308,74.088715 
	C148.715546,73.612701 150.700821,71.359581 151.649231,71.379677 
	C152.956848,71.407364 155.300308,72.825043 155.295959,73.637123 
	C155.287842,75.152802 153.908310,76.661148 152.703949,78.283875 
z"/>
</svg>