<svg version="1.1" id="Layer_1" xmlns="http://www.w3.org/2000/svg" xmlns:xlink="http://www.w3.org/1999/xlink" x="0px" y="0px"
	 width="100%" viewBox="0 0 245 206" enable-background="new 0 0 245 206" xml:space="preserve">
<path fill="#020202" opacity="1.000000" stroke="none" 
	d="
M1.000001,86.000000 
	C1.000000,84.285645 1.000000,82.571281 1.319384,80.308105 
	C3.816526,77.279968 6.153112,74.919189 8.120816,72.283073 
	C9.642099,70.245018 11.637858,67.930191 11.805929,65.620750 
	C12.588819,54.863205 12.794919,44.064133 13.251695,33.281792 
	C13.303558,32.057526 13.634285,30.845074 13.939775,28.997856 
	C19.848379,32.178349 25.210936,35.064919 30.774048,38.059441 
	C31.398371,32.249077 33.701992,27.371288 39.127735,24.812778 
	C42.544655,23.201529 46.192184,21.889984 49.876461,21.088127 
	C53.585999,20.280773 57.485462,19.843822 61.272991,19.989758 
	C73.384125,20.456408 80.903946,13.294872 87.793564,4.816050 
	C87.882812,4.894290 88.057411,5.055120 88.120453,5.434237 
	C85.812920,14.731365 80.769524,21.282310 71.374878,24.409096 
	C71.299515,25.026386 71.627861,25.571901 72.115158,26.412754 
	C79.844963,32.235119 87.799904,37.549881 97.294525,38.191086 
	C111.184654,39.129139 125.151779,38.972397 139.087799,39.111893 
	C140.408600,39.125118 141.918518,38.149776 143.039520,37.255798 
	C149.378220,32.200821 155.625015,27.030602 162.104660,22.057018 
	C162.456100,22.295612 162.606003,22.376827 162.645447,22.798100 
	C159.363525,27.813824 156.192062,32.489491 152.719421,37.303856 
	C152.943100,37.865543 153.467926,38.288532 154.454102,38.800339 
	C162.965454,39.546005 171.609909,36.512558 178.836975,42.420868 
	C160.676544,40.181839 144.117599,43.853050 129.323700,54.859505 
	C148.193100,55.896465 165.119751,61.355274 177.998901,76.040787 
	C177.719193,76.427917 177.622757,76.593544 177.166565,76.651718 
	C160.186722,69.223068 143.164398,68.077103 125.382263,73.259361 
	C131.174530,77.187645 137.622513,80.217415 139.059662,88.016792 
	C138.697372,88.528046 138.563675,88.740349 138.115128,88.784576 
	C128.972443,81.886497 113.150269,79.335709 109.845306,84.642410 
	C111.678253,84.792770 113.256531,84.922241 115.019547,85.263779 
	C115.224998,85.662201 115.245728,85.848557 114.889648,86.083237 
	C102.616692,90.756767 90.839203,95.985428 77.416840,92.917099 
	C79.974396,104.300667 84.051277,107.148605 94.659683,105.042221 
	C101.659767,103.652298 108.605515,101.987648 115.572121,100.430450 
	C125.390610,98.235794 135.294785,96.542465 145.024139,100.321228 
	C147.948044,101.456848 149.658432,101.197876 152.029556,99.356644 
	C162.407578,91.297874 174.144028,88.950340 186.844147,92.172096 
	C194.226639,94.044868 201.392426,96.895164 208.843933,98.324188 
	C212.984909,99.118324 217.512482,97.896500 222.317154,97.550797 
	C223.463669,101.321648 222.708984,105.662926 217.866013,109.427643 
	C222.759720,109.427643 227.653427,109.427643 232.715515,109.427643 
	C233.161743,114.030800 231.379898,118.258209 226.051926,120.911903 
	C232.689499,122.051582 236.646164,118.156525 240.876007,114.370201 
	C240.696365,124.072510 236.653915,128.413849 225.107376,132.547379 
	C228.587433,133.002090 232.284561,133.394760 235.469482,132.298904 
	C238.893723,131.120697 241.837280,128.545547 244.980469,126.586235 
	C244.620300,140.078308 234.909973,147.162018 222.109436,143.354614 
	C212.067017,140.367584 204.038010,134.311371 196.928101,126.923859 
	C186.389557,115.973892 173.606644,115.883713 161.309235,118.362053 
	C159.758194,126.430656 159.488129,134.186508 156.627609,140.826370 
	C154.064575,146.775726 155.076767,150.519669 159.215210,154.277985 
	C163.464447,158.136917 164.090714,162.661255 162.570114,167.890152 
	C161.643784,171.075592 160.346802,174.337357 160.357910,177.560913 
	C160.369675,180.972702 160.691071,185.303528 162.722870,187.599960 
	C167.186890,192.645370 168.272369,194.931015 163.283691,199.342834 
	C159.532455,202.660355 154.475632,204.501587 150.000000,207.000000 
	C147.629440,207.000000 145.258896,207.000000 142.246460,206.700241 
	C136.934052,205.271301 132.825470,203.433426 131.980667,200.077087 
	C127.522446,197.837265 123.810715,196.789978 121.208740,194.488190 
	C116.393654,190.228561 112.327248,185.135254 107.758408,180.580368 
	C104.512718,177.344574 102.647911,173.732376 102.790955,169.069916 
	C102.921959,164.799622 102.818764,160.522156 102.818764,156.210327 
	C98.042252,156.210327 93.563477,156.416565 89.114037,156.143906 
	C85.664223,155.932526 83.151108,156.661545 81.215981,159.817749 
	C79.514091,162.593521 75.585663,164.855087 75.390602,167.543289 
	C74.819069,175.419540 74.939156,183.494858 76.082382,191.302704 
	C77.122055,198.403290 75.826454,202.493301 68.695450,203.672699 
	C63.217697,204.578674 57.420753,204.695251 51.911957,204.001663 
	C43.948318,202.999023 41.944416,198.562500 45.032795,191.093597 
	C45.884083,189.034882 46.446209,186.856567 46.966293,185.267120 
	C41.325371,187.054337 35.943584,189.233734 30.350733,190.406982 
	C23.891594,191.761978 20.387119,189.031754 18.700153,182.538483 
	C15.829706,171.489899 16.366108,160.489151 19.001753,149.476685 
	C20.986279,141.184784 26.324629,136.352325 34.310104,134.113907 
	C35.721367,133.718307 37.167656,133.447647 38.030861,133.249466 
	C37.684486,124.968712 37.131901,117.036301 37.081760,109.100708 
	C37.029823,100.880493 31.053486,96.705757 23.486618,99.975311 
	C15.770729,103.309258 12.117359,102.281776 7.341166,95.374588 
	C5.195600,92.271744 3.111820,89.126175 1.000001,86.000000 
M105.920845,83.974823 
	C107.231567,83.902390 108.542282,83.829956 109.853004,83.757523 
	C109.809601,83.176865 109.766205,82.596199 109.722801,82.015541 
	C108.118401,82.266029 106.513992,82.516518 104.325333,82.950211 
	C104.550224,83.225365 104.775124,83.500519 105.920845,83.974823 
M121.717140,155.889252 
	C119.380035,160.161102 120.669182,163.626450 124.382004,166.208969 
	C127.623039,168.463333 131.114792,170.357895 134.501266,172.402313 
	C137.111877,173.978333 139.221786,173.071426 139.934677,170.446640 
	C141.177628,165.870239 142.080185,161.172546 142.670044,156.468613 
	C142.810760,155.346390 141.066315,152.874359 140.340546,152.932007 
	C134.215515,153.418472 128.125702,154.348328 121.717140,155.889252 
M43.266705,156.579773 
	C45.236633,162.258331 47.206562,167.936874 49.112930,173.432205 
	C52.278709,166.724716 55.379311,160.155319 58.478260,153.589401 
	C50.478989,149.910080 47.329342,150.349548 43.266705,156.579773 
M225.465408,120.180779 
	C223.683640,120.068932 221.901871,119.957085 220.120117,119.845238 
	C220.099991,120.272560 220.079865,120.699890 220.059753,121.127213 
	C221.946045,121.127213 223.832352,121.127213 225.465408,120.180779 
M125.236687,73.710968 
	C124.370964,73.522964 123.505241,73.334961 122.639511,73.146957 
	C122.587387,73.407593 122.535255,73.668236 122.483131,73.928871 
	C123.263969,74.113602 124.044815,74.298332 125.236687,73.710968 
M216.890671,119.945206 
	C217.543427,119.945206 218.196182,119.945206 218.848938,119.945206 
	C218.837479,119.669945 218.826035,119.394691 218.814575,119.119431 
	C217.971298,119.242638 217.128021,119.365852 216.890671,119.945206 
z"/>
<path fill="#FEFEFE" opacity="1.000000" stroke="none" 
	d="
M161.903107,21.899641 
	C155.625015,27.030602 149.378220,32.200821 143.039520,37.255798 
	C141.918518,38.149776 140.408600,39.125118 139.087799,39.111893 
	C125.151779,38.972397 111.184654,39.129139 97.294525,38.191086 
	C87.799904,37.549881 79.844963,32.235119 72.091034,25.965706 
	C71.864838,24.927986 71.821716,24.632652 71.778603,24.337318 
	C80.769524,21.282310 85.812920,14.731365 88.365204,5.410553 
	C88.504158,4.743865 88.461411,4.479979 88.418655,4.216092 
	C88.180542,4.389998 87.942421,4.563904 87.704308,4.737810 
	C80.903946,13.294872 73.384125,20.456408 61.272991,19.989758 
	C57.485462,19.843822 53.585999,20.280773 49.876461,21.088127 
	C46.192184,21.889984 42.544655,23.201529 39.127735,24.812778 
	C33.701992,27.371288 31.398371,32.249077 30.774048,38.059441 
	C25.210936,35.064919 19.848379,32.178349 13.939775,28.997856 
	C13.634285,30.845074 13.303558,32.057526 13.251695,33.281792 
	C12.794919,44.064133 12.588819,54.863205 11.805929,65.620750 
	C11.637858,67.930191 9.642099,70.245018 8.120816,72.283073 
	C6.153112,74.919189 3.816526,77.279968 1.319384,79.879646 
	C1.000000,53.685078 1.000000,27.370159 1.000000,1.027619 
	C82.591141,1.027619 164.182297,1.027619 245.886719,1.027619 
	C245.886719,69.542969 245.886719,138.086197 245.886719,207.000000 
	C214.313400,207.000000 182.625366,207.000000 150.468658,207.000000 
	C154.475632,204.501587 159.532455,202.660355 163.283691,199.342834 
	C168.272369,194.931015 167.186890,192.645370 162.722870,187.599960 
	C160.691071,185.303528 160.369675,180.972702 160.357910,177.560913 
	C160.346802,174.337357 161.643784,171.075592 162.570114,167.890152 
	C164.090714,162.661255 163.464447,158.136917 159.215210,154.277985 
	C155.076767,150.519669 154.064575,146.775726 156.627609,140.826370 
	C159.488129,134.186508 159.758194,126.430656 161.309235,118.362053 
	C173.606644,115.883713 186.389557,115.973892 196.928101,126.923859 
	C204.038010,134.311371 212.067017,140.367584 222.109436,143.354614 
	C234.909973,147.162018 244.620300,140.078308 244.980469,126.586235 
	C241.837280,128.545547 238.893723,131.120697 235.469482,132.298904 
	C232.284561,133.394760 228.587433,133.002090 225.107376,132.547379 
	C236.653915,128.413849 240.696365,124.072510 240.876007,114.370201 
	C236.646164,118.156525 232.689499,122.051582 226.051926,120.911903 
	C231.379898,118.258209 233.161743,114.030800 232.715515,109.427643 
	C227.653427,109.427643 222.759720,109.427643 217.866013,109.427643 
	C222.708984,105.662926 223.463669,101.321648 222.317154,97.550797 
	C217.512482,97.896500 212.984909,99.118324 208.843933,98.324188 
	C201.392426,96.895164 194.226639,94.044868 186.844147,92.172096 
	C174.144028,88.950340 162.407578,91.297874 152.029556,99.356644 
	C149.658432,101.197876 147.948044,101.456848 145.024139,100.321228 
	C135.294785,96.542465 125.390610,98.235794 115.572121,100.430450 
	C108.605515,101.987648 101.659767,103.652298 94.659683,105.042221 
	C84.051277,107.148605 79.974396,104.300667 77.416840,92.917099 
	C90.839203,95.985428 102.616692,90.756767 115.004036,85.933075 
	C115.275108,85.506958 115.054962,85.279335 114.834816,85.051712 
	C113.256531,84.922241 111.678253,84.792770 109.845306,84.642410 
	C113.150269,79.335709 128.972443,81.886497 138.271698,89.037636 
	C139.117615,89.516258 139.492096,89.573730 139.866608,89.631203 
	C139.673828,88.993408 139.481049,88.355621 139.288269,87.717834 
	C137.622513,80.217415 131.174530,77.187645 125.382263,73.259361 
	C143.164398,68.077103 160.186722,69.223068 177.399597,76.804642 
	C178.351685,77.155945 178.710968,77.246887 179.104584,77.591942 
	C179.455917,78.088013 179.760773,78.352287 180.106796,78.541168 
	C180.146088,78.562622 180.416656,78.160446 180.579971,77.954712 
	C180.139297,77.663506 179.698624,77.372299 179.192398,76.786385 
	C178.811951,76.267540 178.497070,76.043419 178.182175,75.819298 
	C165.119751,61.355274 148.193100,55.896465 129.323700,54.859505 
	C144.117599,43.853050 160.676544,40.181839 178.836975,42.420868 
	C171.609909,36.512558 162.965454,39.546005 154.258575,38.383873 
	C153.408005,37.640774 153.214294,37.402962 153.020599,37.165154 
	C156.192062,32.489491 159.363525,27.813824 162.803192,22.539894 
	C162.979675,21.673990 162.887970,21.406351 162.796265,21.138714 
	C162.498550,21.392359 162.200821,21.646000 161.903107,21.899641 
M241.414810,112.483528 
	C241.414810,112.483528 241.522797,112.419708 241.414810,112.483528 
M180.412704,43.483170 
	C180.412704,43.483170 180.522293,43.418179 180.412704,43.483170 
z"/>
<path fill="#FDFDFD" opacity="1.000000" stroke="none" 
	d="
M1.000001,86.468658 
	C3.111820,89.126175 5.195600,92.271744 7.341166,95.374588 
	C12.117359,102.281776 15.770729,103.309258 23.486618,99.975311 
	C31.053486,96.705757 37.029823,100.880493 37.081760,109.100708 
	C37.131901,117.036301 37.684486,124.968712 38.030861,133.249466 
	C37.167656,133.447647 35.721367,133.718307 34.310104,134.113907 
	C26.324629,136.352325 20.986279,141.184784 19.001753,149.476685 
	C16.366108,160.489151 15.829706,171.489899 18.700153,182.538483 
	C20.387119,189.031754 23.891594,191.761978 30.350733,190.406982 
	C35.943584,189.233734 41.325371,187.054337 46.966293,185.267120 
	C46.446209,186.856567 45.884083,189.034882 45.032795,191.093597 
	C41.944416,198.562500 43.948318,202.999023 51.911957,204.001663 
	C57.420753,204.695251 63.217697,204.578674 68.695450,203.672699 
	C75.826454,202.493301 77.122055,198.403290 76.082382,191.302704 
	C74.939156,183.494858 74.819069,175.419540 75.390602,167.543289 
	C75.585663,164.855087 79.514091,162.593521 81.215981,159.817749 
	C83.151108,156.661545 85.664223,155.932526 89.114037,156.143906 
	C93.563477,156.416565 98.042252,156.210327 102.818764,156.210327 
	C102.818764,160.522156 102.921959,164.799622 102.790955,169.069916 
	C102.647911,173.732376 104.512718,177.344574 107.758408,180.580368 
	C112.327248,185.135254 116.393654,190.228561 121.208740,194.488190 
	C123.810715,196.789978 127.522446,197.837265 131.980667,200.077087 
	C132.825470,203.433426 136.934052,205.271301 141.802292,206.700241 
	C95.078598,207.000000 48.157200,207.000000 1.000000,207.000000 
	C1.000000,166.979416 1.000000,126.958366 1.000001,86.468658 
z"/>
<path fill="#F8F8F8" opacity="1.000000" stroke="none" 
	d="
M121.871223,155.517090 
	C128.125702,154.348328 134.215515,153.418472 140.340546,152.932007 
	C141.066315,152.874359 142.810760,155.346390 142.670044,156.468613 
	C142.080185,161.172546 141.177628,165.870239 139.934677,170.446640 
	C139.221786,173.071426 137.111877,173.978333 134.501266,172.402313 
	C131.114792,170.357895 127.623039,168.463333 124.382004,166.208969 
	C120.669182,163.626450 119.380035,160.161102 121.871223,155.517090 
z"/>
<path fill="#F3F3F3" opacity="1.000000" stroke="none" 
	d="
M43.259872,156.200851 
	C47.329342,150.349548 50.478989,149.910080 58.478260,153.589401 
	C55.379311,160.155319 52.278709,166.724716 49.112930,173.432205 
	C47.206562,167.936874 45.236633,162.258331 43.259872,156.200851 
z"/>
<path fill="#FEFEFE" opacity="1.000000" stroke="none" 
	d="
M104.909592,82.767006 
	C106.513992,82.516518 108.118401,82.266029 109.722801,82.015541 
	C109.766205,82.596199 109.809601,83.176865 109.853004,83.757523 
	C108.542282,83.829956 107.231567,83.902390 105.446289,83.622322 
	C104.951012,83.102211 104.930298,82.934608 104.909592,82.767006 
z"/>
<path fill="#FEFEFE" opacity="1.000000" stroke="none" 
	d="
M225.592026,120.653992 
	C223.832352,121.127213 221.946045,121.127213 220.059753,121.127213 
	C220.079865,120.699890 220.099991,120.272560 220.120117,119.845238 
	C221.901871,119.957085 223.683640,120.068932 225.592026,120.653992 
z"/>
<path fill="#FEFEFE" opacity="1.000000" stroke="none" 
	d="
M125.031174,74.097015 
	C124.044815,74.298332 123.263969,74.113602 122.483131,73.928871 
	C122.535255,73.668236 122.587387,73.407593 122.639511,73.146957 
	C123.505241,73.334961 124.370964,73.522964 125.031174,74.097015 
z"/>
<path fill="#FDFDFD" opacity="1.000000" stroke="none" 
	d="
M216.587708,119.717133 
	C217.128021,119.365852 217.971298,119.242638 218.814575,119.119431 
	C218.826035,119.394691 218.837479,119.669945 218.848938,119.945206 
	C218.196182,119.945206 217.543427,119.945206 216.587708,119.717133 
z"/>
<path fill="#FDFDFD" opacity="1.000000" stroke="none" 
	d="
M152.719421,37.303856 
	C153.214294,37.402962 153.408005,37.640774 153.797241,38.295055 
	C153.467926,38.288532 152.943100,37.865543 152.719421,37.303856 
z"/>
<path fill="#FDFDFD" opacity="1.000000" stroke="none" 
	d="
M71.374878,24.409096 
	C71.821716,24.632652 71.864838,24.927986 71.932083,25.670368 
	C71.627861,25.571901 71.299515,25.026386 71.374878,24.409096 
z"/>
<path fill="#FDFDFD" opacity="1.000000" stroke="none" 
	d="
M115.019547,85.263779 
	C115.054962,85.279335 115.275108,85.506958 115.380859,85.884750 
	C115.245728,85.848557 115.224998,85.662201 115.019547,85.263779 
z"/>
<path fill="#FDFDFD" opacity="1.000000" stroke="none" 
	d="
M104.617462,82.858612 
	C104.930298,82.934608 104.951012,83.102211 104.985870,83.522751 
	C104.775124,83.500519 104.550224,83.225365 104.617462,82.858612 
z"/>
<path fill="#FDFDFD" opacity="1.000000" stroke="none" 
	d="
M179.257950,77.081100 
	C179.698624,77.372299 180.139297,77.663506 180.579971,77.954712 
	C180.416656,78.160446 180.146088,78.562622 180.106796,78.541168 
	C179.760773,78.352287 179.455917,78.088013 179.076508,77.472885 
	C179.014130,77.099724 179.257950,77.081100 179.257950,77.081100 
z"/>
<path fill="#020202" opacity="1.000000" stroke="none" 
	d="
M139.059662,88.016792 
	C139.481049,88.355621 139.673828,88.993408 139.866608,89.631203 
	C139.492096,89.573730 139.117615,89.516258 138.586548,89.205719 
	C138.563675,88.740349 138.697372,88.528046 139.059662,88.016792 
z"/>
<path fill="#020202" opacity="1.000000" stroke="none" 
	d="
M87.793564,4.816050 
	C87.942421,4.563904 88.180542,4.389998 88.418655,4.216092 
	C88.461411,4.479979 88.504158,4.743865 88.302162,5.031435 
	C88.057411,5.055120 87.882812,4.894290 87.793564,4.816050 
z"/>
<path fill="#020202" opacity="1.000000" stroke="none" 
	d="
M162.104660,22.057018 
	C162.200821,21.646000 162.498550,21.392359 162.796265,21.138714 
	C162.887970,21.406351 162.979675,21.673990 162.913635,22.199837 
	C162.606003,22.376827 162.456100,22.295612 162.104660,22.057018 
z"/>
<path fill="#FDFDFD" opacity="1.000000" stroke="none" 
	d="
M241.468811,112.451614 
	C241.522797,112.419708 241.414810,112.483528 241.468811,112.451614 
z"/>
<path fill="#020202" opacity="1.000000" stroke="none" 
	d="
M177.998901,76.040787 
	C178.497070,76.043419 178.811951,76.267540 179.192398,76.786385 
	C179.257950,77.081100 179.014130,77.099724 179.042206,77.218781 
	C178.710968,77.246887 178.351685,77.155945 177.759369,76.912079 
	C177.622757,76.593544 177.719193,76.427917 177.998901,76.040787 
z"/>
<path fill="#FDFDFD" opacity="1.000000" stroke="none" 
	d="
M180.467499,43.450676 
	C180.522293,43.418179 180.412704,43.483170 180.467499,43.450676 
z"/>
</svg>