<svg version="1.1" id="Layer_1" xmlns="http://www.w3.org/2000/svg" xmlns:xlink="http://www.w3.org/1999/xlink" x="0px" y="0px"
	 width="100%" viewBox="0 0 128 128" enable-background="new 0 0 128 128" xml:space="preserve">
<path fill="#080808" opacity="1.000000" stroke="none" 
	d="
M1.000000,70.000000 
	C1.000000,68.285645 1.000000,66.571281 1.349165,64.381310 
	C3.925806,62.331783 5.942150,60.108936 8.419467,59.302940 
	C16.575947,56.649216 24.899387,54.508659 33.174072,52.166656 
	C33.204967,52.047935 33.327007,51.828648 33.269886,51.761284 
	C32.309429,50.628708 31.288340,49.546055 30.354921,48.392277 
	C23.537128,39.964939 21.838358,30.515179 25.134165,20.268900 
	C27.533192,12.810594 29.310745,12.267355 36.263134,16.126236 
	C37.249893,16.673929 38.312477,17.085011 38.008327,16.944609 
	C42.596855,11.313132 46.798428,6.156566 51.000000,1.000000 
	C52.066669,1.000000 53.133339,1.000000 54.608185,1.346258 
	C60.443687,9.177125 65.871002,16.661736 71.443817,24.346989 
	C77.271378,15.560913 84.699013,9.732718 95.489738,11.050806 
	C99.923828,11.592431 102.529488,10.128915 105.264397,7.130082 
	C108.757172,3.300245 111.020706,3.529292 113.989929,7.758500 
	C115.194969,9.474888 115.772377,11.623780 116.711853,13.538348 
	C117.149269,14.429763 117.573227,15.556527 118.339691,16.018497 
	C121.827713,18.120852 125.435371,20.024738 129.000000,22.000000 
	C129.000000,22.444445 129.000000,22.888889 128.673889,23.774788 
	C121.119690,30.163845 119.844238,38.555096 117.961014,47.098824 
	C116.609596,53.229824 112.707535,58.798603 109.852074,64.810432 
	C120.292633,69.731064 126.080727,78.774757 129.000000,90.000000 
	C129.000000,93.692909 129.000000,97.385818 128.669113,101.698723 
	C125.173653,107.995689 123.036186,114.736122 118.562119,119.057259 
	C113.877213,123.582024 106.948158,125.783203 101.000000,129.000000 
	C97.307091,129.000000 93.614182,129.000000 89.260651,128.685883 
	C79.072929,126.201416 71.608231,121.069580 66.429962,112.757751 
	C61.266891,104.470322 60.690041,95.408432 62.382767,86.862610 
	C53.639381,83.875549 45.400955,80.955460 37.071487,78.323509 
	C35.746841,77.904945 33.840481,78.441261 32.498619,79.120224 
	C27.323166,81.738960 22.346832,84.755379 17.146172,87.319046 
	C11.380363,90.161301 5.212886,86.863884 6.047563,80.929550 
	C6.792182,75.635506 4.595716,72.752853 1.000000,70.000000 
M107.819748,20.713324 
	C108.329163,18.816263 108.838570,16.919201 109.347984,15.022141 
	C109.032013,14.720232 108.716042,14.418324 108.400070,14.116415 
	C105.188667,19.617809 100.826248,19.772039 95.460617,18.474899 
	C90.545555,17.286684 85.572792,19.015869 82.415283,23.014507 
	C79.175919,27.116817 76.273735,31.701923 74.265213,36.510635 
	C70.967209,44.406517 70.745285,44.767872 63.479866,40.571487 
	C53.175220,34.619686 42.859150,28.687670 31.751347,22.288258 
	C31.751347,27.074732 31.219978,31.066729 31.860535,34.860874 
	C33.249363,43.087185 39.646324,47.101944 46.247147,50.987698 
	C47.977440,52.006283 48.764698,54.626827 49.985043,56.511681 
	C48.024235,57.354168 46.137791,58.558334 44.090313,58.979332 
	C32.461975,61.370312 20.795149,63.574112 9.141417,65.841599 
	C8.962781,66.419006 8.784145,66.996422 8.605510,67.573830 
	C15.870549,69.639893 14.376913,75.112823 13.473033,80.780235 
	C19.752228,77.399773 25.138987,74.803352 30.194069,71.671562 
	C33.564064,69.583748 36.349510,69.823952 39.956837,71.158020 
	C47.226334,73.846420 54.717476,76.011330 62.248432,77.856461 
	C63.862534,78.251938 66.695267,76.897392 67.842484,75.454956 
	C75.686256,65.592781 85.640106,60.824398 98.279068,61.680130 
	C99.602364,61.769726 101.578522,61.621490 102.225998,60.787357 
	C107.038094,54.588020 111.977882,48.030487 111.819336,39.914055 
	C111.695702,33.585327 112.906654,28.610617 117.961205,24.752989 
	C118.041725,24.691536 117.798752,24.206205 117.700165,23.898136 
	C114.496094,22.535748 109.393196,29.160856 107.819748,20.713324 
M87.918694,70.051552 
	C76.559372,73.966209 70.001228,81.856178 69.113823,93.857430 
	C68.276810,105.177231 75.237099,115.581406 85.755058,119.706558 
	C95.961441,123.709511 108.091843,120.631462 115.213936,112.231438 
	C122.483528,103.657471 123.457977,91.131210 117.600700,81.550270 
	C111.606941,71.746078 100.359459,67.213707 87.918694,70.051552 
M58.497849,29.027338 
	C61.265663,30.554129 64.033478,32.080917 66.801300,33.607708 
	C67.115036,33.256264 67.428780,32.904819 67.742523,32.553375 
	C62.652393,25.250479 57.562260,17.947584 52.236305,10.306354 
	C51.164345,11.546139 50.463177,12.225957 49.914501,13.012192 
	C45.093533,19.920444 45.461449,21.582975 52.674274,25.730604 
	C54.393818,26.719400 56.118752,27.698814 58.497849,29.027338 
z"/>
<path fill="#FDFDFD" opacity="1.000000" stroke="none" 
	d="
M1.000000,70.468658 
	C4.595716,72.752853 6.792182,75.635506 6.047563,80.929550 
	C5.212886,86.863884 11.380363,90.161301 17.146172,87.319046 
	C22.346832,84.755379 27.323166,81.738960 32.498619,79.120224 
	C33.840481,78.441261 35.746841,77.904945 37.071487,78.323509 
	C45.400955,80.955460 53.639381,83.875549 62.382767,86.862610 
	C60.690041,95.408432 61.266891,104.470322 66.429962,112.757751 
	C71.608231,121.069580 79.072929,126.201416 88.800018,128.685883 
	C59.754223,129.000000 30.508446,129.000000 1.000000,129.000000 
	C1.000000,109.646561 1.000000,90.291939 1.000000,70.468658 
z"/>
<path fill="#FDFDFD" opacity="1.000000" stroke="none" 
	d="
M50.531342,1.000000 
	C46.798428,6.156566 42.596855,11.313132 38.008327,16.944609 
	C38.312477,17.085011 37.249893,16.673929 36.263134,16.126236 
	C29.310745,12.267355 27.533192,12.810594 25.134165,20.268900 
	C21.838358,30.515179 23.537128,39.964939 30.354921,48.392277 
	C31.288340,49.546055 32.309429,50.628708 33.269886,51.761284 
	C33.327007,51.828648 33.204967,52.047935 33.174072,52.166656 
	C24.899387,54.508659 16.575947,56.649216 8.419467,59.302940 
	C5.942150,60.108936 3.925806,62.331783 1.349165,63.952847 
	C1.000000,43.081631 1.000000,22.163263 1.000000,1.000000 
	C17.353413,1.000000 33.708050,1.000000 50.531342,1.000000 
z"/>
<path fill="#FCFCFC" opacity="1.000000" stroke="none" 
	d="
M129.000000,21.531088 
	C125.435371,20.024738 121.827713,18.120852 118.339691,16.018497 
	C117.573227,15.556527 117.149269,14.429763 116.711853,13.538348 
	C115.772377,11.623780 115.194969,9.474888 113.989929,7.758500 
	C111.020706,3.529292 108.757172,3.300245 105.264397,7.130082 
	C102.529488,10.128915 99.923828,11.592431 95.489738,11.050806 
	C84.699013,9.732718 77.271378,15.560913 71.443817,24.346989 
	C65.871002,16.661736 60.443687,9.177125 55.008183,1.346258 
	C79.552383,1.000000 104.104767,1.000000 129.000000,1.000000 
	C129.000000,7.683486 129.000000,14.372830 129.000000,21.531088 
z"/>
<path fill="#FBFBFB" opacity="1.000000" stroke="none" 
	d="
M129.000000,89.531342 
	C126.080727,78.774757 120.292633,69.731064 109.852074,64.810432 
	C112.707535,58.798603 116.609596,53.229824 117.961014,47.098824 
	C119.844238,38.555096 121.119690,30.163845 128.673889,24.108120 
	C129.000000,45.687561 129.000000,67.375122 129.000000,89.531342 
z"/>
<path fill="#FAFAFA" opacity="1.000000" stroke="none" 
	d="
M101.468658,129.000000 
	C106.948158,125.783203 113.877213,123.582024 118.562119,119.057259 
	C123.036186,114.736122 125.173653,107.995689 128.669113,102.159363 
	C129.000000,110.927780 129.000000,119.855560 129.000000,129.000000 
	C119.980263,129.000000 110.958786,129.000000 101.468658,129.000000 
z"/>
<path fill="#FBFBFB" opacity="1.000000" stroke="none" 
	d="
M107.750870,21.126953 
	C109.393196,29.160856 114.496094,22.535748 117.700165,23.898136 
	C117.798752,24.206205 118.041725,24.691536 117.961205,24.752989 
	C112.906654,28.610617 111.695702,33.585327 111.819336,39.914055 
	C111.977882,48.030487 107.038094,54.588020 102.225998,60.787357 
	C101.578522,61.621490 99.602364,61.769726 98.279068,61.680130 
	C85.640106,60.824398 75.686256,65.592781 67.842484,75.454956 
	C66.695267,76.897392 63.862534,78.251938 62.248432,77.856461 
	C54.717476,76.011330 47.226334,73.846420 39.956837,71.158020 
	C36.349510,69.823952 33.564064,69.583748 30.194069,71.671562 
	C25.138987,74.803352 19.752228,77.399773 13.473033,80.780235 
	C14.376913,75.112823 15.870549,69.639893 8.605510,67.573830 
	C8.784145,66.996422 8.962781,66.419006 9.141417,65.841599 
	C20.795149,63.574112 32.461975,61.370312 44.090313,58.979332 
	C46.137791,58.558334 48.024235,57.354168 49.985043,56.511681 
	C48.764698,54.626827 47.977440,52.006283 46.247147,50.987698 
	C39.646324,47.101944 33.249363,43.087185 31.860535,34.860874 
	C31.219978,31.066729 31.751347,27.074732 31.751347,22.288258 
	C42.859150,28.687670 53.175220,34.619686 63.479866,40.571487 
	C70.745285,44.767872 70.967209,44.406517 74.265213,36.510635 
	C76.273735,31.701923 79.175919,27.116817 82.415283,23.014507 
	C85.572792,19.015869 90.545555,17.286684 95.460617,18.474899 
	C100.826248,19.772039 105.188667,19.617809 108.400070,14.116415 
	C108.716042,14.418324 109.032013,14.720232 109.347984,15.022141 
	C108.838570,16.919201 108.329163,18.816263 107.750870,21.126953 
M97.085037,27.676447 
	C95.403915,26.817743 93.780830,25.660284 92.000092,25.314365 
	C91.565193,25.229885 90.033722,27.829212 90.086716,29.151283 
	C90.127533,30.169596 92.320618,32.123238 92.759995,31.921949 
	C94.405006,31.168327 95.722633,29.700073 97.085037,27.676447 
z"/>
<path fill="#FCFCFC" opacity="1.000000" stroke="none" 
	d="
M88.325043,69.984207 
	C100.359459,67.213707 111.606941,71.746078 117.600700,81.550270 
	C123.457977,91.131210 122.483528,103.657471 115.213936,112.231438 
	C108.091843,120.631462 95.961441,123.709511 85.755058,119.706558 
	C75.237099,115.581406 68.276810,105.177231 69.113823,93.857430 
	C70.001228,81.856178 76.559372,73.966209 88.325043,69.984207 
M99.017471,83.746323 
	C99.017448,83.246323 98.998734,82.745506 99.020500,82.246460 
	C99.147011,79.345329 98.733437,76.552307 95.059776,76.682899 
	C91.731743,76.801208 91.438393,79.524078 91.454399,82.185654 
	C91.478439,86.185455 91.077103,90.242668 91.649994,94.159424 
	C91.907005,95.916557 93.850853,98.416931 95.440468,98.780098 
	C98.606400,99.503380 102.108345,99.316399 105.364746,98.813812 
	C106.711670,98.605942 108.925972,96.357491 108.729080,95.500343 
	C108.384613,94.000763 106.696724,92.292686 105.176193,91.717361 
	C103.456360,91.066628 101.300858,91.567307 99.017471,91.567307 
	C99.017471,88.970062 99.017471,86.820518 99.017471,83.746323 
z"/>
<path fill="#F4F4F4" opacity="1.000000" stroke="none" 
	d="
M58.169525,28.854940 
	C56.118752,27.698814 54.393818,26.719400 52.674274,25.730604 
	C45.461449,21.582975 45.093533,19.920444 49.914501,13.012192 
	C50.463177,12.225957 51.164345,11.546139 52.236305,10.306354 
	C57.562260,17.947584 62.652393,25.250479 67.742523,32.553375 
	C67.428780,32.904819 67.115036,33.256264 66.801300,33.607708 
	C64.033478,32.080917 61.265663,30.554129 58.169525,28.854940 
z"/>
<path fill="#131313" opacity="1.000000" stroke="none" 
	d="
M97.124023,28.088104 
	C95.722633,29.700073 94.405006,31.168327 92.759995,31.921949 
	C92.320618,32.123238 90.127533,30.169596 90.086716,29.151283 
	C90.033722,27.829212 91.565193,25.229885 92.000092,25.314365 
	C93.780830,25.660284 95.403915,26.817743 97.124023,28.088104 
z"/>
<path fill="#0C0C0C" opacity="1.000000" stroke="none" 
	d="
M99.017471,84.208649 
	C99.017471,86.820518 99.017471,88.970062 99.017471,91.567307 
	C101.300858,91.567307 103.456360,91.066628 105.176193,91.717361 
	C106.696724,92.292686 108.384613,94.000763 108.729080,95.500343 
	C108.925972,96.357491 106.711670,98.605942 105.364746,98.813812 
	C102.108345,99.316399 98.606400,99.503380 95.440468,98.780098 
	C93.850853,98.416931 91.907005,95.916557 91.649994,94.159424 
	C91.077103,90.242668 91.478439,86.185455 91.454399,82.185654 
	C91.438393,79.524078 91.731743,76.801208 95.059776,76.682899 
	C98.733437,76.552307 99.147011,79.345329 99.020500,82.246460 
	C98.998734,82.745506 99.017448,83.246323 99.017471,84.208649 
z"/>
</svg>