<svg version="1.1" id="Layer_1" xmlns="http://www.w3.org/2000/svg" xmlns:xlink="http://www.w3.org/1999/xlink" x="0px" y="0px"
	 width="100%" viewBox="0 0 225 225" enable-background="new 0 0 225 225" xml:space="preserve">
<path fill="#FDFDFD" opacity="1.000000" stroke="none" 
	d="
M131.000000,226.000000 
	C87.333336,226.000000 44.166672,226.000000 1.000006,226.000000 
	C1.000004,151.000000 1.000004,76.000015 1.000002,1.000016 
	C75.999992,1.000011 150.999985,1.000011 225.999969,1.000005 
	C225.999985,75.999985 225.999985,150.999969 226.000000,225.999969 
	C194.500000,226.000000 163.000000,226.000000 131.000000,226.000000 
M175.436859,186.936768 
	C178.461258,183.835449 181.434052,180.681625 184.522095,177.645020 
	C189.212265,173.033005 189.645081,173.052094 194.557129,177.761459 
	C199.607986,182.603912 204.550140,187.561676 209.666504,192.333191 
	C212.945999,195.391632 214.578781,194.844635 215.856705,190.584641 
	C223.082397,166.497864 201.084381,140.690903 176.583908,145.915970 
	C166.772537,148.008377 160.721527,146.035278 155.314026,138.607574 
	C154.635742,137.675903 153.679428,136.947845 152.859528,136.117950 
	C146.339722,129.518616 139.821747,122.917458 132.425858,115.428490 
	C153.707016,94.538307 174.551956,74.076317 194.647964,54.349518 
	C187.108673,46.708401 180.028290,39.532394 171.578491,30.968464 
	C151.468430,51.607700 131.066727,72.546234 110.345634,93.812569 
	C100.741394,84.086494 91.464737,74.514549 81.955864,65.179131 
	C79.359726,62.630352 78.856255,60.544689 80.011032,56.960312 
	C84.288170,43.684193 81.582420,31.582354 72.039078,21.407690 
	C62.502014,11.239721 50.668507,7.818642 37.056870,11.044326 
	C31.831839,12.282554 31.324242,14.008240 35.042854,17.982403 
	C40.165344,23.456928 45.397346,28.831858 50.682659,34.149841 
	C53.012325,36.493908 53.231392,38.551876 50.774006,40.925865 
	C47.539486,44.050606 44.355885,47.235821 41.291061,50.526066 
	C38.680428,53.328720 36.399647,53.180614 33.742897,50.531174 
	C28.317881,45.121078 22.788895,39.812016 17.201298,34.569450 
	C14.113033,31.671885 11.922836,32.081829 11.327319,36.061867 
	C10.524852,41.425022 9.557856,47.126034 10.535356,52.330070 
	C14.686081,74.427811 36.524361,86.811684 57.948799,79.890114 
	C59.424431,79.413391 61.892662,79.215759 62.754734,80.058769 
	C73.084854,90.160362 83.198402,100.483421 93.550209,110.931938 
	C92.809525,111.749611 92.183136,112.496216 91.500237,113.186935 
	C72.520203,132.384323 53.427414,151.472229 34.636063,170.852448 
	C30.674612,174.938049 27.250809,179.791260 24.570944,184.819321 
	C19.745390,193.873245 15.655095,203.319977 11.298079,212.621567 
	C10.705049,213.887589 10.344796,215.262680 9.603548,217.360504 
	C11.584620,216.670258 12.807521,216.360718 13.929240,215.835220 
	C24.425760,210.917816 34.972618,206.099457 45.348690,200.938370 
	C48.540260,199.350876 51.583488,197.135345 54.129711,194.632645 
	C73.739853,175.357666 93.208885,155.939102 112.730759,136.574249 
	C113.849426,135.464584 115.047630,134.435074 117.054337,132.591492 
	C126.673111,142.603867 135.782593,152.341415 145.222351,161.747543 
	C147.855530,164.371338 148.096375,166.403168 147.128571,169.888855 
	C145.908203,174.284241 145.481735,179.080444 145.685928,183.660339 
	C146.673203,205.803162 168.731735,221.745010 190.066925,215.987778 
	C194.980057,214.661987 195.566269,213.016724 192.118958,209.310120 
	C187.013702,203.820831 181.612701,198.601624 176.630768,193.006409 
	C175.485916,191.720627 175.532425,189.374084 175.436859,186.936768 
M191.896652,13.273746 
	C187.851608,17.419430 183.806564,21.565113 180.001297,25.465055 
	C187.164902,32.563931 194.425247,39.758659 201.419800,46.690006 
	C205.502731,42.763363 209.934464,38.741848 214.082336,34.446262 
	C218.468857,29.903580 218.394409,27.202768 214.007767,22.498266 
	C210.952423,19.221529 207.778442,16.044714 204.512619,12.977487 
	C199.947815,8.690284 197.419098,8.720317 191.896652,13.273746 
z"/>
<path fill="#020202" opacity="1.000000" stroke="none" 
	d="
M175.233765,187.226227 
	C175.532425,189.374084 175.485916,191.720627 176.630768,193.006409 
	C181.612701,198.601624 187.013702,203.820831 192.118958,209.310120 
	C195.566269,213.016724 194.980057,214.661987 190.066925,215.987778 
	C168.731735,221.745010 146.673203,205.803162 145.685928,183.660339 
	C145.481735,179.080444 145.908203,174.284241 147.128571,169.888855 
	C148.096375,166.403168 147.855530,164.371338 145.222351,161.747543 
	C135.782593,152.341415 126.673111,142.603867 117.054337,132.591492 
	C115.047630,134.435074 113.849426,135.464584 112.730759,136.574249 
	C93.208885,155.939102 73.739853,175.357666 54.129711,194.632645 
	C51.583488,197.135345 48.540260,199.350876 45.348690,200.938370 
	C34.972618,206.099457 24.425760,210.917816 13.929240,215.835220 
	C12.807521,216.360718 11.584620,216.670258 9.603548,217.360504 
	C10.344796,215.262680 10.705049,213.887589 11.298079,212.621567 
	C15.655095,203.319977 19.745390,193.873245 24.570944,184.819321 
	C27.250809,179.791260 30.674612,174.938049 34.636063,170.852448 
	C53.427414,151.472229 72.520203,132.384323 91.500237,113.186935 
	C92.183136,112.496216 92.809525,111.749611 93.550209,110.931938 
	C83.198402,100.483421 73.084854,90.160362 62.754734,80.058769 
	C61.892662,79.215759 59.424431,79.413391 57.948799,79.890114 
	C36.524361,86.811684 14.686081,74.427811 10.535356,52.330070 
	C9.557856,47.126034 10.524852,41.425022 11.327319,36.061867 
	C11.922836,32.081829 14.113033,31.671885 17.201298,34.569450 
	C22.788895,39.812016 28.317881,45.121078 33.742897,50.531174 
	C36.399647,53.180614 38.680428,53.328720 41.291061,50.526066 
	C44.355885,47.235821 47.539486,44.050606 50.774006,40.925865 
	C53.231392,38.551876 53.012325,36.493908 50.682659,34.149841 
	C45.397346,28.831858 40.165344,23.456928 35.042854,17.982403 
	C31.324242,14.008240 31.831839,12.282554 37.056870,11.044326 
	C50.668507,7.818642 62.502014,11.239721 72.039078,21.407690 
	C81.582420,31.582354 84.288170,43.684193 80.011032,56.960312 
	C78.856255,60.544689 79.359726,62.630352 81.955864,65.179131 
	C91.464737,74.514549 100.741394,84.086494 110.345634,93.812569 
	C131.066727,72.546234 151.468430,51.607700 171.578491,30.968464 
	C180.028290,39.532394 187.108673,46.708401 194.647964,54.349518 
	C174.551956,74.076317 153.707016,94.538307 132.425858,115.428490 
	C139.821747,122.917458 146.339722,129.518616 152.859528,136.117950 
	C153.679428,136.947845 154.635742,137.675903 155.314026,138.607574 
	C160.721527,146.035278 166.772537,148.008377 176.583908,145.915970 
	C201.084381,140.690903 223.082397,166.497864 215.856705,190.584641 
	C214.578781,194.844635 212.945999,195.391632 209.666504,192.333191 
	C204.550140,187.561676 199.607986,182.603912 194.557129,177.761459 
	C189.645081,173.052094 189.212265,173.033005 184.522095,177.645020 
	C181.434052,180.681625 178.461258,183.835449 175.233765,187.226227 
z"/>
<path fill="#020202" opacity="1.000000" stroke="none" 
	d="
M192.181763,13.038453 
	C197.419098,8.720317 199.947815,8.690284 204.512619,12.977487 
	C207.778442,16.044714 210.952423,19.221529 214.007767,22.498266 
	C218.394409,27.202768 218.468857,29.903580 214.082336,34.446262 
	C209.934464,38.741848 205.502731,42.763363 201.419800,46.690006 
	C194.425247,39.758659 187.164902,32.563931 180.001297,25.465055 
	C183.806564,21.565113 187.851608,17.419430 192.181763,13.038453 
z"/>
</svg>