<svg version="1.1" id="Layer_1" xmlns="http://www.w3.org/2000/svg" xmlns:xlink="http://www.w3.org/1999/xlink" x="0px" y="0px"
	 width="100%" viewBox="0 0 1024 816" preserveAspectRatio="xMinYMin slice" enable-background="new 0 0 1024 816" xml:space="preserve">
<path fill="#000000" opacity="1.000000" stroke="none" 
	d="
M561.638306,469.572449 
	C524.587891,469.467957 489.814941,477.650299 456.574432,493.095154 
	C458.807587,489.271637 462.456635,487.559418 465.781128,485.564972 
	C488.254242,472.083008 512.804382,464.622528 538.559998,460.669098 
	C560.577576,457.289459 582.649902,457.274750 604.819580,458.832062 
	C617.336487,459.711273 626.354004,450.422363 625.718628,438.252441 
	C625.507812,434.214264 623.802673,430.805084 621.172119,427.951569 
	C618.684570,425.253113 618.397888,423.129120 621.078613,420.276611 
	C627.875610,413.043884 629.627380,404.482147 625.885864,395.314941 
	C622.908142,388.018951 623.537598,381.062500 625.916321,373.895203 
	C629.162903,364.113312 633.925598,354.867157 635.909729,344.630829 
	C637.519775,336.324707 636.700806,328.403107 633.149597,320.765167 
	C631.427063,317.060364 630.808533,313.430878 631.374390,309.200684 
	C633.558289,292.872345 635.342590,276.487305 633.681030,259.958130 
	C633.262878,255.798523 632.492981,251.717010 631.101013,247.787689 
	C627.953308,238.902237 621.830811,235.617371 612.683899,237.937393 
	C598.817688,241.454422 587.873474,249.919846 577.632996,259.310791 
	C552.559326,282.304474 533.504822,310.017059 516.233765,339.019958 
	C490.246796,382.659210 469.340790,428.736206 451.153595,476.094482 
	C450.533813,477.708282 450.520721,479.787781 448.553467,480.691864 
	C447.482330,479.833954 448.020416,478.887482 448.292755,477.960022 
	C463.573700,425.922546 482.019775,375.089111 506.689178,326.695251 
	C523.934021,292.866089 543.570984,260.591919 571.292847,234.069641 
	C587.291138,218.763641 605.214661,206.633087 627.531677,202.423355 
	C652.254089,197.759842 673.669434,221.232895 666.559753,245.363419 
	C663.458679,255.888519 659.687256,266.184967 658.064270,277.145538 
	C655.736633,292.864746 657.438843,308.156677 665.643799,321.557617 
	C676.338013,339.024261 674.410217,354.860474 663.411621,370.918732 
	C659.370300,376.819153 655.822754,383.064575 652.178833,389.228790 
	C646.015015,399.655518 645.798523,410.322998 651.030518,421.212372 
	C654.347900,428.116821 657.639648,435.039917 660.686890,442.065674 
	C662.952637,447.289490 664.395325,452.782104 663.610657,458.576080 
	C661.883789,471.326599 654.214355,478.143036 641.387756,478.276154 
	C630.506592,478.389069 619.901001,476.074829 609.244202,474.332184 
	C593.618103,471.777008 577.895935,470.304596 561.638306,469.572449 
z"/>
<path fill="#000000" opacity="1.000000" stroke="none" 
	d="
M469.904663,289.144257 
	C478.875458,302.661377 485.186920,316.806122 486.836487,332.796936 
	C487.496765,339.197205 487.107971,345.440521 484.994202,351.503174 
	C472.827240,386.399750 460.585602,421.269806 451.067688,457.020050 
	C450.280670,459.976105 450.338959,463.228882 447.714874,467.252045 
	C447.334381,458.924164 448.938416,452.182343 449.874725,445.473602 
	C453.069031,422.586700 457.001160,399.822083 462.705231,377.395447 
	C464.714386,369.496155 467.765717,361.893524 469.152985,353.816254 
	C470.576233,345.529816 468.733673,337.918762 464.579651,330.824524 
	C461.837708,326.141785 457.630829,324.032898 452.061981,324.124908 
	C432.954987,324.440613 421.527283,314.927765 417.763733,295.832001 
	C416.497223,289.405975 416.272003,282.995056 417.430084,276.486359 
	C417.947998,273.575531 417.905823,270.480011 417.595642,267.523102 
	C416.731079,259.281433 408.333466,255.582733 401.652161,260.465363 
	C396.966736,263.889465 395.394409,268.877563 395.245026,274.459229 
	C394.735565,293.498596 396.981476,312.357269 399.594391,331.128540 
	C404.116272,363.613953 410.881500,395.636230 421.170898,426.851746 
	C426.234558,442.213654 432.068115,457.250153 439.118530,471.812958 
	C439.723938,473.063416 440.952667,474.257416 440.155945,475.945892 
	C438.429871,475.821747 438.092102,474.329407 437.488434,473.266571 
	C414.122131,432.128143 394.266113,389.521912 383.430298,343.180298 
	C379.020935,324.322662 376.152130,305.226471 376.889343,285.824463 
	C377.802917,261.781769 383.237122,239.013153 397.991058,219.299713 
	C403.677368,211.701950 410.337555,205.093140 417.722107,199.580688 
	C419.333649,200.478592 419.075470,201.315857 418.875092,202.102631 
	C414.407898,219.643402 419.873169,234.322250 432.223022,246.720459 
	C443.633179,258.175293 455.291260,269.376404 465.021729,282.364563 
	C466.619171,284.496826 468.140320,286.686279 469.904663,289.144257 
z"/>
<path fill="#000000" opacity="1.000000" stroke="none" 
	d="
M596.573608,571.509216 
	C600.232727,560.289795 600.313171,548.859253 602.322266,537.752502 
	C604.624695,525.023804 608.879700,513.632996 622.083557,506.014893 
	C570.298462,490.677856 519.202271,486.950470 467.046783,496.081512 
	C467.610718,493.224579 469.837677,493.308258 471.357574,492.750366 
	C491.483063,485.363342 512.317078,481.371979 533.658203,479.627441 
	C584.098938,475.504089 632.829468,483.773743 680.557068,499.542389 
	C681.975647,500.011078 683.378723,500.531555 684.765625,501.086456 
	C685.025146,501.190308 685.172913,501.573669 685.395752,501.858063 
	C684.994141,503.767487 683.372009,503.150391 682.194824,503.340942 
	C663.248413,506.407990 646.234619,513.126526 633.971741,528.825439 
	C629.284851,534.825684 626.320801,541.662659 624.349365,548.964661 
	C620.185608,564.386841 616.221985,579.877808 610.062927,594.667969 
	C606.785095,602.539185 602.946777,610.123901 596.656372,616.129272 
	C590.618469,621.893555 583.530823,623.739563 575.475586,621.475037 
	C564.073425,618.269531 555.979553,610.254944 547.999451,602.193237 
	C538.141907,592.234863 529.421204,581.277344 520.572510,570.432983 
	C512.569153,560.624512 504.609375,550.765625 496.226959,541.285645 
	C487.886810,531.853455 479.130127,522.759155 465.702087,517.897827 
	C469.386658,516.295715 471.774139,516.791992 474.120972,517.246277 
	C489.362457,520.196594 500.563599,529.431213 510.076508,540.953979 
	C518.135193,550.715332 525.651306,560.927246 535.011230,569.548401 
	C543.522400,577.387756 552.497681,584.510559 563.803101,587.960510 
	C579.017578,592.603394 590.899902,586.734375 596.573608,571.509216 
z"/>
<path fill="#000000" opacity="1.000000" stroke="none" 
	d="
M365.551941,446.426147 
	C352.809998,431.243073 344.270172,414.305176 339.403809,395.472198 
	C338.723206,392.838257 338.635681,390.206940 338.684601,387.545471 
	C338.875153,377.177185 345.073242,372.740387 354.927185,376.191895 
	C356.000305,374.059174 356.892426,371.743744 358.233795,369.727081 
	C361.583893,364.690491 368.477203,363.183838 373.214386,366.257690 
	C377.693481,369.164093 379.062927,374.724030 376.450378,379.396973 
	C375.416901,381.245514 374.117828,383.000610 371.756958,381.927582 
	C369.677826,380.982605 369.740601,379.056244 370.724762,377.224091 
	C372.029999,374.794342 371.964813,372.633118 369.284302,371.335419 
	C366.418549,369.947937 364.421143,371.612579 363.049622,373.878693 
	C360.171997,378.633362 360.897247,384.027008 361.496582,389.028076 
	C364.983765,418.126801 377.346039,443.058136 397.652893,464.123871 
	C399.287598,465.819702 400.797455,466.424622 403.331299,465.940704 
	C413.215424,464.052948 420.538605,467.425110 425.723389,475.927704 
	C426.653687,477.453278 427.731018,478.383087 429.433655,478.954468 
	C433.227814,480.227905 436.856354,481.916199 440.241760,484.084534 
	C444.617188,486.886993 447.568970,490.543640 448.794281,495.824280 
	C450.869843,504.768860 454.282410,513.280029 458.461304,521.464172 
	C460.824097,526.091675 463.957275,530.091187 467.576294,533.877502 
	C482.321075,549.303467 492.615021,567.111633 494.894562,588.717041 
	C495.971619,598.925476 493.275726,608.576782 488.359283,617.496033 
	C485.625000,622.456543 481.836365,622.330872 478.963531,617.304749 
	C475.359680,610.999756 473.828766,603.954712 472.761597,596.875427 
	C470.929382,584.721191 469.509216,572.505066 467.692566,560.348328 
	C466.658508,553.428589 463.081451,547.957947 457.158844,544.078674 
	C450.473053,539.699585 443.727875,535.401794 437.180878,530.822205 
	C427.235809,523.865662 421.012054,514.666016 420.627502,502.110504 
	C420.577576,500.479126 420.079712,498.825134 419.574219,497.250671 
	C417.959229,492.220551 415.722168,491.622284 411.767334,495.066681 
	C407.960236,498.382355 404.032257,501.471222 398.620331,501.466217 
	C393.828918,501.461792 391.065857,499.016418 390.774231,494.302185 
	C390.370209,487.770660 390.743347,481.254791 393.354828,475.181366 
	C394.538696,472.428040 393.890778,471.026367 391.640503,469.423737 
	C382.251373,462.736877 373.612915,455.171631 365.551941,446.426147 
M345.410675,395.104187 
	C351.298950,414.550964 359.880829,432.447144 375.014587,446.624481 
	C364.838684,428.834534 357.759735,410.026215 355.485229,389.583679 
	C349.499481,390.737152 348.698547,389.955261 350.184570,384.455048 
	C350.559784,383.066467 350.932098,381.702271 349.381409,381.002258 
	C347.800598,380.288666 346.894012,381.661621 346.193573,382.722748 
	C343.777435,386.382935 344.359650,390.336792 345.410675,395.104187 
z"/>
<path fill="#000000" opacity="1.000000" stroke="none" 
	d="
M621.417847,293.710724 
	C620.553711,307.537476 609.395386,317.928833 595.902344,317.859894 
	C582.083679,317.789337 571.099182,307.274017 570.035278,293.097626 
	C569.093384,280.547241 579.122192,268.339050 591.754272,266.658783 
	C605.805969,264.789642 618.404053,273.193665 621.043884,286.339813 
	C621.497009,288.596558 621.322998,290.979279 621.417847,293.710724 
z"/>
<path fill="#000000" opacity="1.000000" stroke="none" 
	d="
M584.704102,401.745911 
	C594.841431,404.048248 600.737671,410.023560 601.321960,418.169495 
	C602.002686,427.659302 597.707336,435.071045 589.747742,438.140991 
	C582.603027,440.896637 574.220703,439.107849 569.044678,433.722961 
	C563.815491,428.282837 562.262939,419.906799 565.476990,412.925262 
	C569.141541,404.964966 575.549438,401.338654 584.704102,401.745911 
z"/>
<path fill="#000000" opacity="1.000000" stroke="none" 
	d="
M446.631836,361.607208 
	C438.258789,361.214691 433.423248,357.866089 431.913910,351.751953 
	C430.457886,345.853821 432.558197,339.748047 437.237091,336.766632 
	C442.313843,333.531738 447.528687,333.339569 452.699921,336.580994 
	C457.290741,339.458618 459.797791,345.153931 458.711243,350.318634 
	C457.372284,356.683197 453.537231,360.531555 446.631836,361.607208 
z"/>
<path fill="#000000" opacity="1.000000" stroke="none" 
	d="
M399.800018,265.586243 
	C403.719788,262.880249 407.392944,262.759003 410.586182,265.804321 
	C413.194763,268.292084 413.979767,271.472076 412.165375,274.912781 
	C410.407227,278.246765 407.610016,279.703522 403.916168,279.211975 
	C397.615509,278.373535 395.458984,271.772186 399.800018,265.586243 
z"/>
</svg>