<svg version="1.1" id="Layer_1" xmlns="http://www.w3.org/2000/svg" xmlns:xlink="http://www.w3.org/1999/xlink" x="0px" y="0px"
	 width="100%" viewBox="0 0 200 200" enable-background="new 0 0 200 200" xml:space="preserve">
<path fill="#FEFEFE" opacity="1.000000" stroke="none" 
	d="
M116.000000,201.000000 
	C77.357201,201.000000 39.214397,201.000000 1.035799,201.000000 
	C1.035799,134.398911 1.035799,67.797783 1.035799,1.098330 
	C67.559296,1.098330 134.118790,1.098330 200.839142,1.098330 
	C200.839142,67.666351 200.839142,134.333145 200.839142,201.000000 
	C172.798065,201.000000 144.649033,201.000000 116.000000,201.000000 
M64.778770,66.726532 
	C72.313805,69.241867 76.813118,66.390266 75.738235,59.681644 
	C75.455070,57.914364 74.815285,56.139172 74.009575,54.532986 
	C71.685982,49.900894 68.304817,48.681236 64.341965,50.847740 
	C59.585682,53.448021 57.880363,58.340313 60.445461,62.501026 
	C61.439098,64.112747 62.842949,65.471573 63.567150,67.788521 
	C62.943230,67.575813 62.334438,67.276268 61.692932,67.164505 
	C57.546650,66.442116 54.446960,68.696342 53.551201,72.101662 
	C52.942043,74.417419 54.062832,78.402618 55.851414,79.811722 
	C57.858120,81.392677 61.966331,82.050316 64.302368,81.068542 
	C67.991341,79.518158 67.121468,75.579765 65.992905,72.289116 
	C65.366737,70.463318 64.656441,68.666382 64.778770,66.726532 
M137.313507,119.893372 
	C137.811188,111.977806 137.780060,103.983307 138.946625,96.167572 
	C140.266785,87.322800 143.172455,78.713478 144.472229,69.867126 
	C146.544724,55.761665 138.710602,46.389606 124.480736,46.151257 
	C100.599342,45.751247 82.465942,56.471630 70.772781,77.015335 
	C67.578201,82.627869 66.487663,89.923286 66.107681,96.542618 
	C65.485901,107.374100 70.796242,116.793892 75.950027,125.906158 
	C82.159706,136.885330 86.341240,148.392410 88.202240,160.923325 
	C89.706818,171.054245 93.439072,180.515472 100.439667,188.306061 
	C110.526978,199.531693 124.655983,200.344681 135.784500,190.142075 
	C145.375229,181.349289 148.955490,170.151077 146.424179,157.536743 
	C143.944901,145.181656 140.512772,133.017792 137.313507,119.893372 
M135.170090,43.170795 
	C137.471878,41.969585 140.367630,41.292671 141.971664,39.475536 
	C148.574615,31.995369 150.529602,23.136190 148.214203,13.433618 
	C147.153656,8.989371 144.114838,6.208534 139.764160,5.129467 
	C128.621353,2.365792 117.703850,8.985543 116.289680,19.471605 
	C114.723930,31.081680 124.475616,44.303749 135.170090,43.170795 
M94.155457,35.954563 
	C95.261589,37.594051 96.182907,39.404873 97.511528,40.838116 
	C100.472717,44.032471 104.144234,46.126213 108.579185,44.773155 
	C112.958984,43.436932 114.159096,39.397404 114.861572,35.414715 
	C115.230484,33.323219 115.170425,31.111387 115.002823,28.977562 
	C114.218758,18.995096 106.737099,15.209542 98.189316,20.403257 
	C93.204605,23.432016 91.801880,28.291489 94.155457,35.954563 
M74.170586,37.852798 
	C69.025948,44.264225 74.390160,52.945377 80.648552,55.096054 
	C85.566025,56.785919 89.638680,54.972958 91.516685,50.170856 
	C93.657860,44.695782 92.171638,36.673161 88.518318,33.985687 
	C85.120094,31.485868 80.071548,32.684528 74.170586,37.852798 
z"/>
<path fill="#030303" opacity="1.000000" stroke="none" 
	d="
M137.406189,120.331680 
	C140.512772,133.017792 143.944901,145.181656 146.424179,157.536743 
	C148.955490,170.151077 145.375229,181.349289 135.784500,190.142075 
	C124.655983,200.344681 110.526978,199.531693 100.439667,188.306061 
	C93.439072,180.515472 89.706818,171.054245 88.202240,160.923325 
	C86.341240,148.392410 82.159706,136.885330 75.950027,125.906158 
	C70.796242,116.793892 65.485901,107.374100 66.107681,96.542618 
	C66.487663,89.923286 67.578201,82.627869 70.772781,77.015335 
	C82.465942,56.471630 100.599342,45.751247 124.480736,46.151257 
	C138.710602,46.389606 146.544724,55.761665 144.472229,69.867126 
	C143.172455,78.713478 140.266785,87.322800 138.946625,96.167572 
	C137.780060,103.983307 137.811188,111.977806 137.406189,120.331680 
M94.454147,94.644333 
	C92.858467,94.852150 91.231918,94.950310 89.699165,95.381699 
	C89.459267,95.449219 89.277458,97.466934 89.706169,97.829758 
	C90.858955,98.805389 92.356743,99.373383 93.717560,100.103218 
	C94.491501,98.384544 95.265450,96.665871 96.711426,94.804375 
	C100.110229,96.058533 102.040375,95.080551 102.304619,91.273140 
	C102.348808,90.636505 103.016914,90.043182 104.067909,89.500259 
	C106.146660,91.282616 108.931915,92.685921 110.113510,89.467789 
	C110.958565,87.166252 109.606834,84.058128 109.235291,81.309891 
	C106.983696,82.186081 104.367111,82.643799 102.654305,84.137718 
	C101.936462,84.763817 103.134171,87.586136 102.583817,89.562576 
	C100.791145,88.707687 98.759895,86.842941 97.253273,87.198883 
	C93.625168,88.056030 94.492729,91.258446 94.454147,94.644333 
M116.637611,93.483429 
	C106.746895,91.645828 100.441406,97.184746 95.434921,104.426826 
	C90.750412,111.203178 92.476936,117.873611 96.953743,124.334450 
	C98.357361,126.360123 98.887733,129.153229 99.289413,131.679077 
	C100.319916,138.159164 103.994438,141.329666 110.579079,141.000900 
	C118.118362,140.624481 123.917236,133.582199 121.460526,125.875389 
	C119.228928,118.874809 120.503723,113.138191 123.199341,106.867775 
	C125.836555,100.733231 123.659660,96.542419 116.637611,93.483429 
M114.439804,86.829575 
	C116.515511,89.678009 118.865395,92.029892 122.630890,89.669075 
	C125.682060,87.756104 127.118950,80.979355 125.210770,77.977463 
	C123.023048,74.535805 119.672676,75.135628 116.863884,76.474678 
	C112.651299,78.482933 112.387268,82.171265 114.439804,86.829575 
M92.174568,103.699333 
	C91.188560,102.832283 90.202560,101.965225 89.216560,101.098167 
	C88.457520,102.072556 87.085518,103.063133 87.110695,104.016823 
	C87.136215,104.983330 88.493477,106.608315 89.357704,106.669472 
	C90.273758,106.734299 91.296036,105.297981 92.174568,103.699333 
z"/>
<path fill="#030303" opacity="1.000000" stroke="none" 
	d="
M134.753052,43.211460 
	C124.475616,44.303749 114.723930,31.081680 116.289680,19.471605 
	C117.703850,8.985543 128.621353,2.365792 139.764160,5.129467 
	C144.114838,6.208534 147.153656,8.989371 148.214203,13.433618 
	C150.529602,23.136190 148.574615,31.995369 141.971664,39.475536 
	C140.367630,41.292671 137.471878,41.969585 134.753052,43.211460 
z"/>
<path fill="#040404" opacity="1.000000" stroke="none" 
	d="
M94.036842,35.577087 
	C91.801880,28.291489 93.204605,23.432016 98.189316,20.403257 
	C106.737099,15.209542 114.218758,18.995096 115.002823,28.977562 
	C115.170425,31.111387 115.230484,33.323219 114.861572,35.414715 
	C114.159096,39.397404 112.958984,43.436932 108.579185,44.773155 
	C104.144234,46.126213 100.472717,44.032471 97.511528,40.838116 
	C96.182907,39.404873 95.261589,37.594051 94.036842,35.577087 
z"/>
<path fill="#060606" opacity="1.000000" stroke="none" 
	d="
M74.415352,37.564396 
	C80.071548,32.684528 85.120094,31.485868 88.518318,33.985687 
	C92.171638,36.673161 93.657860,44.695782 91.516685,50.170856 
	C89.638680,54.972958 85.566025,56.785919 80.648552,55.096054 
	C74.390160,52.945377 69.025948,44.264225 74.415352,37.564396 
z"/>
<path fill="#090909" opacity="1.000000" stroke="none" 
	d="
M64.059921,66.945610 
	C62.842949,65.471573 61.439098,64.112747 60.445461,62.501026 
	C57.880363,58.340313 59.585682,53.448021 64.341965,50.847740 
	C68.304817,48.681236 71.685982,49.900894 74.009575,54.532986 
	C74.815285,56.139172 75.455070,57.914364 75.738235,59.681644 
	C76.813118,66.390266 72.313805,69.241867 64.390976,66.821777 
	C64.003181,66.917023 64.059921,66.945610 64.059921,66.945610 
z"/>
<path fill="#080808" opacity="1.000000" stroke="none" 
	d="
M63.993622,66.886734 
	C64.656441,68.666382 65.366737,70.463318 65.992905,72.289116 
	C67.121468,75.579765 67.991341,79.518158 64.302368,81.068542 
	C61.966331,82.050316 57.858120,81.392677 55.851414,79.811722 
	C54.062832,78.402618 52.942043,74.417419 53.551201,72.101662 
	C54.446960,68.696342 57.546650,66.442116 61.692932,67.164505 
	C62.334438,67.276268 62.943230,67.575813 63.813538,67.367065 
	C64.059921,66.945610 64.003181,66.917023 63.993622,66.886734 
z"/>
<path fill="#FBFBFB" opacity="1.000000" stroke="none" 
	d="
M117.016495,93.628075 
	C123.659660,96.542419 125.836555,100.733231 123.199341,106.867775 
	C120.503723,113.138191 119.228928,118.874809 121.460526,125.875389 
	C123.917236,133.582199 118.118362,140.624481 110.579079,141.000900 
	C103.994438,141.329666 100.319916,138.159164 99.289413,131.679077 
	C98.887733,129.153229 98.357361,126.360123 96.953743,124.334450 
	C92.476936,117.873611 90.750412,111.203178 95.434921,104.426826 
	C100.441406,97.184746 106.746895,91.645828 117.016495,93.628075 
z"/>
<path fill="#F6F6F6" opacity="1.000000" stroke="none" 
	d="
M114.260590,86.495621 
	C112.387268,82.171265 112.651299,78.482933 116.863884,76.474678 
	C119.672676,75.135628 123.023048,74.535805 125.210770,77.977463 
	C127.118950,80.979355 125.682060,87.756104 122.630890,89.669075 
	C118.865395,92.029892 116.515511,89.678009 114.260590,86.495621 
z"/>
<path fill="#F8F8F8" opacity="1.000000" stroke="none" 
	d="
M103.461006,89.409981 
	C103.134171,87.586136 101.936462,84.763817 102.654305,84.137718 
	C104.367111,82.643799 106.983696,82.186081 109.235291,81.309891 
	C109.606834,84.058128 110.958565,87.166252 110.113510,89.467789 
	C108.931915,92.685921 106.146660,91.282616 103.734344,89.438103 
	C103.400787,89.375946 103.461006,89.409981 103.461006,89.409981 
z"/>
<path fill="#F2F2F2" opacity="1.000000" stroke="none" 
	d="
M103.398758,89.402893 
	C103.016914,90.043182 102.348808,90.636505 102.304619,91.273140 
	C102.040375,95.080551 100.110229,96.058533 96.359192,94.906677 
	C96.006958,95.008980 96.076942,95.005157 96.111160,94.667206 
	C95.759987,94.193245 95.374603,94.057236 94.988258,93.959000 
	C94.987305,93.996758 95.060982,93.979988 95.060982,93.979988 
	C94.492729,91.258446 93.625168,88.056030 97.253273,87.198883 
	C98.759895,86.842941 100.791145,88.707687 103.022415,89.486282 
	C103.461006,89.409981 103.400787,89.375946 103.398758,89.402893 
z"/>
<path fill="#E5E5E5" opacity="1.000000" stroke="none" 
	d="
M96.023178,94.978088 
	C95.265450,96.665871 94.491501,98.384544 93.717560,100.103218 
	C92.356743,99.373383 90.858955,98.805389 89.706169,97.829758 
	C89.277458,97.466934 89.459267,95.449219 89.699165,95.381699 
	C91.231918,94.950310 92.858467,94.852150 94.757568,94.312164 
	C95.060982,93.979988 94.987305,93.996758 94.784027,94.377197 
	C95.079483,94.840141 95.578209,94.922646 96.076942,95.005157 
	C96.076942,95.005157 96.006958,95.008980 96.023178,94.978088 
z"/>
<path fill="#E3E3E3" opacity="1.000000" stroke="none" 
	d="
M92.223251,104.108307 
	C91.296036,105.297981 90.273758,106.734299 89.357704,106.669472 
	C88.493477,106.608315 87.136215,104.983330 87.110695,104.016823 
	C87.085518,103.063133 88.457520,102.072556 89.216560,101.098167 
	C90.202560,101.965225 91.188560,102.832283 92.223251,104.108307 
z"/>
<path fill="#030303" opacity="1.000000" stroke="none" 
	d="
M96.111160,94.667206 
	C95.578209,94.922646 95.079483,94.840141 94.784981,94.339432 
	C95.374603,94.057236 95.759987,94.193245 96.111160,94.667206 
z"/>
</svg>