<svg version="1.1" id="Layer_1" xmlns="http://www.w3.org/2000/svg" xmlns:xlink="http://www.w3.org/1999/xlink" x="0px" y="0px"
	 width="100%" viewBox="0 0 608 608" enable-background="new 0 0 608 608" xml:space="preserve">
<path fill="#000000" opacity="1.000000" stroke="none" 
	d="
M138.088654,315.864227 
	C135.152222,312.165283 131.671051,310.713287 127.317047,311.255951 
	C126.171669,311.398712 124.984077,311.298004 123.823891,311.206940 
	C121.393379,311.016205 119.609146,309.930420 119.504807,307.283295 
	C119.392433,304.432556 121.198380,302.418091 123.764008,302.895386 
	C134.217224,304.840118 139.006592,297.472748 144.273788,290.911896 
	C165.440979,264.545929 178.783905,234.978958 180.891525,200.848495 
	C181.004120,199.025040 181.347321,197.215485 181.591614,195.400589 
	C182.257492,190.453918 181.220383,186.187698 177.018585,182.978256 
	C175.723877,181.989334 174.622726,180.652084 173.702393,179.292007 
	C172.556763,177.598984 172.666122,175.811539 174.223175,174.310135 
	C175.713287,172.873291 177.388504,172.566757 179.235214,173.619370 
	C179.524292,173.784164 179.913498,173.889359 180.078262,174.139481 
	C187.451141,185.332611 198.603806,181.351929 208.266190,180.259216 
	C242.089325,176.434158 271.155548,161.757614 296.639282,139.493271 
	C300.770752,135.883713 303.729919,132.152100 302.757935,126.281372 
	C302.525146,124.875511 302.878601,123.281044 303.308929,121.879723 
	C303.867249,120.061462 305.478363,119.437172 307.259888,119.407310 
	C309.180878,119.375107 310.367432,120.479134 310.934418,122.217865 
	C311.187744,122.994629 311.428650,123.908150 311.261719,124.668892 
	C309.426270,133.032913 314.907471,137.362717 320.377533,141.949829 
	C343.019592,160.936996 368.398682,174.210342 397.743652,179.138977 
	C404.942108,180.347977 412.276337,180.734467 419.537292,181.590698 
	C424.244843,182.145828 428.002960,180.598465 431.019043,176.984818 
	C431.865387,175.970779 432.862457,175.052124 433.907990,174.241333 
	C435.884155,172.708801 437.961517,172.675156 439.763000,174.481766 
	C441.651672,176.375824 441.547028,178.769714 439.549286,180.170425 
	C431.892944,185.538712 432.389587,192.873367 432.984955,201.066422 
	C435.476959,235.361160 448.777252,265.031952 470.185577,291.447754 
	C471.758148,293.388184 473.508209,295.188873 475.022217,297.171753 
	C478.172516,301.297729 482.008881,303.629486 487.441498,302.789429 
	C488.856476,302.570618 490.439362,302.899841 491.847626,303.311188 
	C493.607086,303.825195 494.501831,305.168304 494.491211,307.095093 
	C494.480408,309.046295 493.450775,310.207855 491.743866,310.822388 
	C490.977448,311.098358 490.062500,311.381744 489.312042,311.217682 
	C480.947693,309.389343 476.476715,314.860504 471.936462,320.313232 
	C451.219360,345.194092 437.694946,373.312225 433.569824,405.638824 
	C433.001831,410.089722 432.910828,414.599609 432.434174,419.064606 
	C431.923889,423.844421 432.833649,427.941223 436.925140,431.010590 
	C438.227264,431.987396 439.245117,433.394897 440.235382,434.722900 
	C441.539917,436.472321 441.121826,438.239410 439.712402,439.696930 
	C438.265289,441.193329 436.519012,441.343262 434.705841,440.268066 
	C434.563049,440.183441 434.381226,440.116486 434.296509,439.988892 
	C426.959351,428.941528 415.869232,432.503571 406.134033,433.626709 
	C371.795624,437.588318 342.308533,452.459503 316.565491,475.252502 
	C312.779541,478.604645 310.519440,482.128418 311.270905,487.313690 
	C311.479492,488.752991 311.263000,490.332367 310.893188,491.757080 
	C310.434265,493.525116 309.092316,494.507568 307.194611,494.541168 
	C305.347321,494.573914 303.946136,493.800781 303.249939,492.060394 
	C302.948273,491.306335 302.634399,490.395630 302.783813,489.647430 
	C304.421234,481.446503 299.395782,476.954559 293.869690,472.242493 
	C269.145050,451.160034 240.838928,438.083710 208.673798,433.529724 
	C203.089417,432.739044 197.382523,432.835175 191.738022,432.438873 
	C188.858093,432.236694 186.554703,433.187988 184.617645,435.299805 
	C183.381104,436.647949 182.001297,437.864655 180.685730,439.140320 
	C178.632202,441.131500 176.393158,441.936432 174.177155,439.559296 
	C172.194717,437.432678 172.652298,434.947998 174.742447,433.415161 
	C181.827408,428.219238 181.622162,421.394958 181.083191,413.442841 
	C178.705566,378.363159 164.955261,348.232147 142.858612,321.463013 
	C141.374573,319.665192 139.848801,317.901855 138.088654,315.864227 
M399.211090,220.711334 
	C393.565155,226.366104 388.014099,232.120636 382.225891,237.625854 
	C379.957153,239.783676 379.148102,242.082611 379.219788,245.123276 
	C379.722321,266.446655 388.516632,284.270172 402.138458,300.111237 
	C404.075897,302.364288 406.518890,302.760315 409.311371,302.750275 
	C427.125946,302.686066 444.940948,302.728851 462.755646,302.681549 
	C464.135864,302.677887 465.765137,303.265350 467.128174,301.361023 
	C454.466766,286.750488 444.009460,270.643372 436.520844,252.666855 
	C429.079681,234.804321 424.930786,216.212189 424.239532,195.378525 
	C415.340790,204.391327 407.528473,212.303741 399.211090,220.711334 
M262.045868,381.458801 
	C256.829681,380.422516 251.639481,379.397003 246.275864,379.151367 
	C242.235733,378.966400 239.357895,380.284271 236.637634,383.166290 
	C231.263641,388.859924 225.644730,394.325226 220.057373,399.813965 
	C212.136627,407.594910 204.152939,415.311829 196.196136,423.056091 
	C196.420258,423.470795 196.644379,423.885468 196.868484,424.300140 
	C216.351791,424.968628 234.963516,429.233704 252.940689,436.663666 
	C270.920959,444.094940 286.867126,454.705536 302.122437,467.605804 
	C302.452850,466.051697 302.693695,465.445526 302.694427,464.839081 
	C302.717102,445.840240 302.675781,426.841217 302.762939,407.842743 
	C302.776031,404.985840 301.373810,403.246002 299.408875,401.535980 
	C288.682709,392.201447 276.576050,385.441681 262.045868,381.458801 
M383.132904,346.585938 
	C381.253754,351.599945 380.326080,356.857086 379.533234,362.103546 
	C378.532379,368.726135 379.451324,374.339661 385.132751,379.503784 
	C396.953766,390.248474 407.892853,401.961609 419.252533,413.218079 
	C420.671295,414.623962 421.844452,416.543640 424.320465,417.051971 
	C425.862976,376.700104 441.441437,342.380096 467.112976,312.463074 
	C465.900116,311.070190 464.827759,311.342438 463.883911,311.341064 
	C445.225861,311.314056 426.567291,311.385223 407.910095,311.256470 
	C404.577362,311.233459 402.729523,313.073395 400.867279,315.243439 
	C393.077576,324.320709 387.251465,334.525482 383.132904,346.585938 
M393.788635,399.711182 
	C388.238953,394.184631 382.614136,388.730774 377.171173,383.101013 
	C374.440582,380.276733 371.468170,378.963013 367.440735,379.199493 
	C346.604889,380.422913 328.934052,388.814209 313.475067,402.461090 
	C311.471741,404.229645 311.283997,406.388855 311.288635,408.786346 
	C311.323822,426.951263 311.303558,445.116272 311.349213,463.281158 
	C311.352264,464.494934 310.759979,465.975433 312.549591,467.039612 
	C342.524353,441.186890 377.069672,426.013092 418.413269,424.139862 
	C409.796753,415.599457 402.038483,407.909668 393.788635,399.711182 
M199.434647,193.281342 
	C212.119705,206.009384 224.861221,218.682083 237.440979,231.513382 
	C239.882370,234.003601 242.433899,234.932846 245.836075,234.785843 
	C267.085052,233.867737 284.907959,225.050583 300.695160,211.367371 
	C302.753357,209.583481 302.720032,207.338516 302.718201,204.993942 
	C302.704102,187.023102 302.708221,169.052231 302.674103,151.081436 
	C302.671692,149.811066 303.088470,148.427811 301.673401,146.804840 
	C271.557526,172.543350 237.171768,188.249115 197.097076,189.743622 
	C197.071732,191.414764 198.282471,191.941742 199.434647,193.281342 
M170.677963,267.076996 
	C164.186829,279.621887 155.821228,290.909332 146.688095,301.705048 
	C147.478699,302.226624 147.742233,302.552490 148.006714,302.553253 
	C167.646179,302.611176 187.285690,302.641388 206.925217,302.680603 
	C208.908127,302.684570 210.457565,301.790985 211.698608,300.347687 
	C225.434570,284.372772 234.244507,266.358368 234.797882,244.872681 
	C234.872375,241.980713 233.998703,239.839233 231.901581,237.831253 
	C226.733994,232.883255 221.705978,227.785965 216.713394,222.659515 
	C208.157959,213.874680 199.672424,205.021744 191.157547,196.197403 
	C190.690292,196.425613 190.223038,196.653824 189.755783,196.882034 
	C188.949249,221.572784 182.538757,244.706467 170.677963,267.076996 
M151.149933,311.293335 
	C149.847885,311.615875 148.141800,310.583160 147.059006,312.731628 
	C172.736008,342.750031 188.318985,377.093231 189.729034,418.102081 
	C204.654358,403.176453 218.857849,388.961273 233.080185,374.764984 
	C234.813034,373.035309 234.810104,370.877625 234.752197,368.706879 
	C234.183975,347.401154 225.533173,329.470673 211.767471,313.667297 
	C209.923767,311.550690 207.594574,311.270660 204.994675,311.277710 
	C187.330994,311.325562 169.667099,311.300415 151.149933,311.293335 
M311.320526,149.610413 
	C311.320587,168.087158 311.373749,186.564209 311.268524,205.040344 
	C311.251007,208.115692 312.073486,210.454544 314.428192,212.471252 
	C328.288818,224.342255 344.088287,232.027222 362.225647,234.545563 
	C368.646912,235.437149 374.353546,234.793579 379.170319,229.004257 
	C384.889557,222.130295 391.790619,216.242966 398.142670,209.891251 
	C404.562866,203.471420 410.938049,197.006561 417.881866,190.008209 
	C415.741760,189.751266 414.619232,189.547760 413.489288,189.490875 
	C384.353058,188.024323 357.909515,178.483139 333.539368,162.780014 
	C327.100433,158.631012 320.949829,154.083374 315.129822,149.077377 
	C314.348572,148.405396 312.736847,144.858353 311.320526,149.610413 
M384.303497,302.715912 
	C386.719177,302.715912 389.134857,302.715912 392.812653,302.715912 
	C380.150177,286.789581 373.071777,269.840820 370.744019,251.430969 
	C353.563416,268.588959 336.613495,285.516571 319.385010,302.722412 
	C340.557465,302.722412 361.957306,302.722412 384.303497,302.715912 
M333.244873,327.255188 
	C345.313965,339.300079 357.383026,351.344971 370.494537,364.430206 
	C373.094788,344.136414 380.213593,327.100281 392.394470,311.786194 
	C367.351868,311.786194 343.262634,311.786194 319.173431,311.786194 
	C318.829468,312.291016 318.485474,312.795837 318.141479,313.300629 
	C323.009216,317.785492 327.876984,322.270355 333.244873,327.255188 
M302.723328,361.500031 
	C302.723328,347.386414 302.723328,333.272766 302.723328,319.597504 
	C285.515106,336.916809 268.649078,353.891693 251.769745,370.880005 
	C270.073395,372.827087 286.910980,380.436798 302.722443,392.683350 
	C302.722443,381.757263 302.722443,372.128662 302.723328,361.500031 
M277.294617,271.214233 
	C285.336334,279.251495 293.378052,287.288788 302.287720,296.193512 
	C302.287720,270.595367 302.287720,246.509567 302.287720,221.451843 
	C286.739716,233.994751 269.688293,241.070999 249.492813,243.535965 
	C259.376862,253.381332 268.079834,262.050232 277.294617,271.214233 
M311.297821,362.499969 
	C311.297821,372.206757 311.297821,381.913544 311.297821,392.480530 
	C319.886139,386.472473 327.612885,381.321777 336.245880,377.691315 
	C344.817474,374.086670 353.854156,372.180023 362.396881,370.680084 
	C345.445160,353.548065 328.608185,336.532013 311.297394,319.037109 
	C311.297394,333.367798 311.297394,347.433868 311.297821,362.499969 
M235.107651,280.463348 
	C231.952621,288.316803 226.704239,294.966278 221.787155,302.350739 
	C246.605606,302.350739 270.636658,302.350739 294.330109,302.350739 
	C277.226624,285.296082 260.142181,268.260437 243.295395,251.461777 
	C241.842468,260.604706 239.819641,270.522339 235.107651,280.463348 
M293.088470,314.764740 
	C293.679443,313.853363 294.968384,313.301971 294.547852,311.594360 
	C270.538757,311.594360 246.502808,311.594360 221.442322,311.594360 
	C233.996002,327.267639 241.130020,344.488617 243.464233,364.580658 
	C260.426270,347.553864 276.517181,331.401520 293.088470,314.764740 
M329.473999,233.143478 
	C323.309906,230.023056 317.677124,226.007263 311.561310,221.729309 
	C311.561310,246.829620 311.561310,271.068268 311.561310,294.330231 
	C328.354004,277.681549 345.499634,260.682953 362.998383,243.334244 
	C351.471436,241.639114 340.371918,238.925415 329.473999,233.143478 
z"/>
</svg>