<svg version="1.1" id="Layer_1" xmlns="http://www.w3.org/2000/svg" xmlns:xlink="http://www.w3.org/1999/xlink" x="0px" y="0px"
	 width="100%" viewBox="0 0 218 208" enable-background="new 0 0 218 208" xml:space="preserve">
<path fill="#877CE4" opacity="1.000000" stroke="none" 
	d="
M34.985970,137.038055 
	C35.787441,114.320206 52.993328,97.337128 75.165947,97.037643 
	C84.288315,96.914421 93.413734,97.017235 103.362076,97.017235 
	C103.362076,88.751953 102.869492,80.959740 103.507095,73.261131 
	C104.090126,66.221436 104.835938,58.869919 107.366127,52.379379 
	C114.238640,34.749779 134.728409,24.790018 153.298172,29.089640 
	C173.138565,33.683468 185.951202,50.967690 184.956650,71.796860 
	C184.077682,90.205460 168.938141,106.743713 150.404007,108.944687 
	C143.332123,109.784485 136.131882,109.577171 128.987946,109.762680 
	C125.182968,109.861481 121.373306,109.780197 116.983421,109.780197 
	C116.850502,111.891167 116.682716,113.635895 116.640442,115.383652 
	C116.439369,123.697983 116.619331,132.037933 116.027115,140.323273 
	C114.376640,163.413956 96.557632,178.897064 72.928253,178.120193 
	C52.073662,177.434540 35.428604,159.618759 34.985970,137.038055 
M124.606049,97.002197 
	C131.762604,96.987572 138.925339,97.157875 146.074402,96.919159 
	C160.186218,96.447945 171.957047,84.186234 172.292236,69.864311 
	C172.644150,54.826897 161.724976,42.044205 147.598328,40.956055 
	C131.858063,39.743607 118.538605,49.645279 116.921944,64.490273 
	C116.025505,72.721939 116.291687,81.087570 116.176430,89.394798 
	C116.071007,96.993370 116.155556,96.994545 124.606049,97.002197 
M58.580017,160.040375 
	C77.270142,173.258301 99.187889,161.429321 102.047226,145.835495 
	C104.173149,134.241455 103.756233,122.181160 104.504837,109.782913 
	C94.140938,109.782913 85.180351,109.764282 76.219948,109.797295 
	C74.225906,109.804642 72.132370,109.643097 70.261238,110.177559 
	C67.087059,111.084190 63.810852,112.074013 61.000641,113.741806 
	C44.884529,123.306335 42.330982,146.760666 58.580017,160.040375 
z"/>
<path fill="#877CE4" opacity="1.000000" stroke="none" 
	d="
M79.480171,33.445381 
	C89.157112,40.834396 92.724411,50.498600 90.616394,61.846603 
	C88.604889,72.674995 81.846703,79.960304 71.262161,83.293091 
	C55.979389,88.105232 40.290627,79.283424 35.866272,63.558922 
	C31.706911,48.776218 40.914104,32.976460 55.940842,29.033983 
	C64.358932,26.825380 72.058243,28.403032 79.480171,33.445381 
M47.350857,57.275909 
	C47.628174,58.574005 47.797150,59.906826 48.200253,61.164612 
	C50.969437,69.805222 60.710445,74.144424 69.176437,70.548042 
	C77.700539,66.926987 81.073196,57.179928 76.653778,48.938324 
	C72.382713,40.973377 62.373600,38.271751 54.794949,43.115379 
	C49.941509,46.217289 47.794468,50.914196 47.350857,57.275909 
z"/>
<path fill="#867CE4" opacity="1.000000" stroke="none" 
	d="
M132.107010,163.741119 
	C121.506088,141.399841 138.629562,120.778969 158.931717,122.002708 
	C173.568359,122.884956 185.246964,135.701096 185.016693,150.897018 
	C184.793045,165.656845 173.073212,177.610947 158.538574,178.188034 
	C146.925827,178.649124 138.296722,173.865051 132.107010,163.741119 
M171.042618,143.756790 
	C169.646988,141.918243 168.488281,139.819580 166.810226,138.291107 
	C162.233917,134.122711 154.129425,133.482544 149.106842,136.612823 
	C143.266296,140.252899 140.172806,147.147629 141.648514,153.235840 
	C143.831207,162.240845 151.942490,167.317169 160.382065,165.376633 
	C168.634811,163.479050 175.488617,153.854141 171.042618,143.756790 
z"/>

</svg>