<svg version="1.1" id="Layer_1" xmlns="http://www.w3.org/2000/svg" xmlns:xlink="http://www.w3.org/1999/xlink" x="0px" y="0px"
	 width="100%" viewBox="0 0 653 203" enable-background="new 0 0 653 203" xml:space="preserve">
<path fill="#8E95FF" opacity="1.000000" stroke="none" 
	d="
M31.163691,134.549194 
	C30.075218,118.781937 35.406052,106.403358 49.117668,98.993774 
	C54.320770,96.182091 60.686901,94.888260 66.661209,94.294975 
	C74.534973,93.513046 82.544952,94.102753 91.106483,94.102753 
	C91.106483,85.743355 91.046799,77.962326 91.118484,70.182503 
	C91.285637,52.042099 102.360435,38.172943 120.139755,34.664631 
	C134.551956,31.820736 146.615692,36.721638 155.372513,48.319973 
	C163.610107,59.230595 165.260925,71.440994 159.293320,84.076111 
	C153.161407,97.059113 142.913284,104.369980 128.408859,104.990219 
	C121.089417,105.303230 113.744164,105.176414 106.415115,105.026604 
	C103.173035,104.960335 101.971695,106.124619 102.045906,109.383476 
	C102.205193,116.378784 102.146790,123.381264 102.063148,130.379440 
	C101.838722,149.158997 88.315102,163.850662 68.645081,165.480927 
	C51.805218,166.876648 35.504715,154.745590 31.903875,137.908813 
	C31.695105,136.932648 31.439295,135.966568 31.163691,134.549194 
M121.433006,45.618649 
	C112.247787,47.837276 105.184845,53.319210 103.555252,62.475731 
	C101.747803,72.631592 102.163582,83.183128 101.592659,93.912811 
	C112.101463,93.912811 121.438690,94.450882 130.676498,93.724594 
	C136.886429,93.236351 142.318237,89.900108 146.211716,84.658119 
	C152.318466,76.436317 153.278152,65.273758 147.887894,56.973438 
	C141.926300,47.793362 133.352173,43.576553 121.433006,45.618649 
M46.331219,115.936974 
	C38.570114,128.484787 41.730694,143.437378 53.700539,150.800919 
	C65.058029,157.787735 80.441772,154.443787 87.356064,142.816925 
	C94.379913,131.005829 89.993614,117.970795 91.118813,105.074066 
	C82.918175,105.074066 75.623802,105.068771 68.329453,105.078903 
	C67.000473,105.080750 65.650345,105.006111 64.346169,105.204575 
	C57.178017,106.295387 51.011612,109.176407 46.331219,115.936974 
z"/>
<path fill="#8E95FF" opacity="1.000000" stroke="none" 
	d="
M607.404663,103.363258 
	C609.030884,98.407997 610.391418,93.781548 612.008179,89.246399 
	C613.148132,86.048790 615.137817,83.315399 619.034729,84.827538 
	C622.629700,86.222527 622.326904,89.301689 621.276978,92.425186 
	C616.883240,105.496811 612.688782,118.639000 608.018982,131.610504 
	C607.289307,133.637375 604.656799,135.933960 602.585632,136.299179 
	C599.484741,136.845963 597.815002,134.219650 597.022827,131.108215 
	C594.689819,121.944069 592.154419,112.831429 589.269531,102.104256 
	C586.926453,110.101997 584.979126,116.693909 583.068726,123.296516 
	C582.284058,126.008194 582.040833,129.002808 580.698120,131.388519 
	C579.533508,133.457718 577.214355,136.104492 575.313293,136.180176 
	C573.480530,136.253113 570.522461,133.726273 569.794312,131.713684 
	C565.046814,118.591400 560.704712,105.320000 556.392944,92.044441 
	C555.412170,89.024834 555.560486,85.805626 559.321533,84.657150 
	C562.748169,83.610809 564.742249,85.910965 565.728943,88.742149 
	C568.298096,96.113838 570.603577,103.577209 573.036194,110.996834 
	C573.645508,112.855499 574.337341,114.687119 575.436707,117.787231 
	C578.203064,108.506210 580.595764,100.480026 582.987122,92.453453 
	C583.224060,91.658379 583.445984,90.858826 583.686340,90.064819 
	C584.609314,87.015900 586.247314,83.813156 589.654053,84.628174 
	C591.790649,85.139320 594.213135,87.932571 594.943665,90.204689 
	C597.328552,97.621613 598.988953,105.271065 600.944519,112.826820 
	C601.343323,114.367867 601.813599,115.890411 602.524658,118.379944 
	C604.302185,112.867851 605.775330,108.299469 607.404663,103.363258 
z"/>
<path fill="#8E95FF" opacity="1.000000" stroke="none" 
	d="
M262.694092,88.586502 
	C282.039398,77.478790 303.380920,89.435936 303.814209,111.293503 
	C303.939606,117.618484 303.809021,123.948174 303.844788,130.275436 
	C303.870483,134.826492 301.635010,137.020813 297.115753,137.010284 
	C290.455292,136.994781 283.792664,136.899429 277.134796,137.031677 
	C266.141846,137.250015 258.039398,132.482590 253.643387,122.539879 
	C248.955826,111.937737 250.238251,101.734200 257.910614,92.719391 
	C259.183929,91.223259 260.887329,90.093124 262.694092,88.586502 
M283.205719,126.082603 
	C285.683014,123.995338 288.770142,122.321533 290.519836,119.740959 
	C295.200378,112.837769 293.504730,102.872948 287.315582,97.615402 
	C281.233582,92.448860 273.429779,92.591087 266.907959,97.987343 
	C261.849854,102.172508 260.179169,112.112617 263.431641,118.670700 
	C266.888214,125.640312 273.449310,128.289459 283.205719,126.082603 
z"/>
<path fill="#8E95FF" opacity="1.000000" stroke="none" 
	d="
M415.785004,65.034271 
	C418.040253,64.084084 420.029266,62.994427 422.031311,62.969975 
	C434.849579,62.813442 447.671417,62.964088 460.490540,62.846912 
	C464.356384,62.811577 467.453644,63.894531 467.403839,68.085358 
	C467.357269,72.006294 464.278137,73.061394 460.673950,73.033607 
	C450.684784,72.956589 440.692413,73.129425 430.706024,72.945862 
	C426.972443,72.877235 425.631104,74.247406 425.823395,77.907043 
	C426.041473,82.058044 425.982635,86.232872 425.840118,90.390335 
	C425.743134,93.218765 426.890076,94.186348 429.663055,94.132362 
	C436.320374,94.002762 442.983032,94.166779 449.641296,94.064766 
	C453.399170,94.007202 456.583588,95.016037 456.855408,99.158394 
	C457.150269,103.651550 453.409454,104.539742 450.020050,104.681206 
	C443.704010,104.944847 437.357025,105.014755 431.047272,104.691017 
	C426.762695,104.471199 425.608154,106.084976 425.795776,110.133362 
	C426.088409,116.446632 425.869598,122.783478 425.872681,129.110336 
	C425.874542,132.978378 424.795105,136.500656 420.346039,136.521362 
	C415.929901,136.541946 414.824585,133.249435 414.842194,129.219284 
	C414.928772,109.406616 414.868286,89.593346 414.909790,69.780396 
	C414.912842,68.315628 415.310547,66.851685 415.785004,65.034271 
z"/>
<path fill="#8C93FF" opacity="1.000000" stroke="none" 
	d="
M391.799988,127.201279 
	C388.234375,122.837296 384.900879,118.741386 380.409241,113.222397 
	C378.975494,116.866333 377.605835,119.151520 377.235840,121.588486 
	C376.765900,124.683334 377.139191,127.901817 377.089539,131.066071 
	C377.036194,134.465378 375.212433,136.520523 371.875702,136.463455 
	C368.802856,136.410904 367.008301,134.441635 367.004883,131.259674 
	C366.982269,110.104561 366.970337,88.949356 367.019653,67.794327 
	C367.027130,64.584801 368.863800,62.919083 372.098450,62.947609 
	C375.716827,62.979515 377.085876,65.157547 377.092896,68.446220 
	C377.117371,79.936638 377.102386,91.427147 377.102386,104.210052 
	C383.088318,98.989624 388.371857,94.394341 393.638977,89.780296 
	C395.141907,88.463676 396.583252,87.076950 398.077576,85.750206 
	C400.532135,83.570869 403.175537,83.049812 405.574402,85.616859 
	C408.031158,88.245903 407.152863,90.755470 404.706268,92.976166 
	C399.541107,97.664314 394.396606,102.375221 388.948700,107.345940 
	C394.043396,113.562653 399.003693,119.552849 403.880890,125.609924 
	C405.122528,127.151947 406.804047,128.826569 407.003265,130.585266 
	C407.205750,132.372711 406.341431,135.116470 404.995392,136.006714 
	C403.673859,136.880737 400.545502,136.694427 399.293304,135.660950 
	C396.513092,133.366425 394.410828,130.250427 391.799988,127.201279 
z"/>
<path fill="#8E95FF" opacity="1.000000" stroke="none" 
	d="
M517.058594,85.843758 
	C530.198303,82.117836 541.799011,85.652100 548.048462,95.054131 
	C554.806396,105.221199 554.359375,118.369995 546.939270,127.679924 
	C539.828857,136.601257 526.133362,139.596603 515.173523,134.627411 
	C504.674683,129.867233 498.432861,118.077141 500.353790,106.769402 
	C502.036835,96.862083 506.819061,89.431015 517.058594,85.843758 
M542.022034,112.255554 
	C541.997864,110.761139 542.116089,109.248436 541.926697,107.775261 
	C540.584961,97.336174 529.827820,90.959686 520.566895,95.068565 
	C513.042419,98.407013 509.304688,106.287437 511.146484,114.930283 
	C512.749023,122.450500 518.678284,127.100899 526.617004,127.064018 
	C535.029541,127.024933 540.108704,122.417198 542.022034,112.255554 
z"/>
<path fill="#8E95FF" opacity="1.000000" stroke="none" 
	d="
M130.461273,117.174896 
	C146.154480,113.334030 159.505371,121.878265 162.389252,137.261032 
	C164.859833,150.439362 154.182251,163.823975 139.777344,165.605606 
	C129.391190,166.890182 117.984406,159.224686 114.390602,148.545395 
	C110.706528,137.597855 115.298965,125.098007 125.088654,119.581474 
	C126.677887,118.685928 128.404617,118.034363 130.461273,117.174896 
M131.922928,153.010452 
	C137.698547,155.255325 142.963928,154.800323 147.526245,150.193604 
	C151.646591,146.033188 152.181992,141.075821 150.406647,135.874878 
	C148.462524,130.179428 143.007416,126.749435 137.236816,127.086319 
	C131.140732,127.442207 126.338783,131.405991 124.675156,137.455383 
	C122.985870,143.598068 125.145554,148.628464 131.922928,153.010452 
z"/>
<path fill="#8E95FF" opacity="1.000000" stroke="none" 
	d="
M40.745667,78.294502 
	C30.003656,69.509109 27.754950,54.046394 35.518780,44.215767 
	C44.237118,33.176525 59.113327,30.580618 69.628891,38.263527 
	C81.227119,46.737469 83.710526,61.324348 75.549477,73.039536 
	C67.905617,84.012291 52.959431,86.376572 40.745667,78.294502 
M64.926407,48.544758 
	C60.140682,44.339062 54.730965,43.738659 49.223076,46.554401 
	C44.241348,49.101166 41.736084,53.542648 42.039127,59.211346 
	C42.339081,64.822296 45.089462,68.914055 50.333679,71.176483 
	C55.679447,73.482735 62.458599,71.801552 66.124626,67.281876 
	C70.423904,61.981495 70.190689,55.537266 64.926407,48.544758 
z"/>
<path fill="#8C93FF" opacity="1.000000" stroke="none" 
	d="
M199.877228,68.818405 
	C199.707886,64.298439 201.913528,62.858856 205.765656,62.873878 
	C221.582123,62.935562 237.399048,62.929024 253.215591,62.879055 
	C256.789734,62.867760 259.044922,64.160454 259.066956,68.003250 
	C259.088196,71.700500 256.611053,72.835403 253.484680,72.962601 
	C250.326447,73.091072 247.159149,72.995682 243.995834,73.000938 
	C234.308990,73.017052 234.993515,72.095589 234.996429,81.750824 
	C235.000961,96.735077 234.997910,111.719337 234.997253,126.703590 
	C234.997208,127.868996 235.048126,129.037918 234.976837,130.199158 
	C234.757233,133.776520 233.437927,136.303543 229.274155,136.201416 
	C225.354034,136.105270 224.095749,133.617264 224.039780,130.281418 
	C223.933670,123.956490 224.001572,117.628601 224.000641,111.301941 
	C223.999008,100.313484 223.847534,89.321846 224.077255,78.338196 
	C224.165344,74.126869 222.657654,72.684944 218.556198,72.940376 
	C214.244247,73.208923 209.851440,73.385323 205.595917,72.826126 
	C203.580460,72.561287 201.802521,70.489052 199.877228,68.818405 
z"/>
<path fill="#8E95FF" opacity="1.000000" stroke="none" 
	d="
M339.106995,105.927826 
	C342.321838,106.974915 345.241394,107.733704 347.936096,108.978958 
	C352.759705,111.208008 356.015350,114.664452 356.076233,120.446014 
	C356.142303,126.715027 353.521698,131.355270 348.043091,134.291122 
	C339.139832,139.062119 323.705383,137.358627 315.895996,130.866364 
	C313.485931,128.862778 311.976044,126.563316 314.119934,123.590462 
	C316.334869,120.519028 319.417297,119.793251 322.302765,122.326370 
	C327.070435,126.511909 332.618988,127.925690 338.517761,126.799179 
	C340.960815,126.332619 342.992920,123.714050 345.211914,122.074173 
	C343.443054,119.977692 342.057251,117.170410 339.810944,115.959946 
	C336.827850,114.352448 333.139282,114.099724 329.818695,113.058090 
	C327.299530,112.267845 324.774689,111.359306 322.442108,110.140366 
	C318.192078,107.919418 315.275116,104.314262 315.292267,99.489601 
	C315.311462,94.079704 317.566895,89.473663 322.881683,87.031906 
	C332.541504,82.593964 341.870667,83.151154 350.838287,88.938652 
	C350.978027,89.028847 351.144012,89.087807 351.263733,89.198235 
	C353.602234,91.355339 356.602570,93.641861 354.186768,97.116554 
	C351.758636,100.608887 348.597656,98.918808 345.333923,97.568184 
	C341.351776,95.920265 337.072571,94.707718 332.809631,94.118095 
	C329.865692,93.710915 326.046692,94.814934 326.276978,98.481812 
	C326.398376,100.415298 329.390106,102.589165 331.554016,103.852776 
	C333.624054,105.061592 336.300476,105.231956 339.106995,105.927826 
z"/>
<path fill="#8C93FF" opacity="1.000000" stroke="none" 
	d="
M477.886719,63.827415 
	C484.438904,62.299343 486.127014,63.574150 486.148865,69.881577 
	C486.200775,84.853958 486.141571,99.826729 486.193665,114.799110 
	C486.201141,116.941315 486.523621,119.089096 486.795868,121.222092 
	C487.182343,124.250038 488.672028,126.041206 492.011536,126.037430 
	C495.428101,126.033562 497.302155,127.852364 497.132141,131.346161 
	C496.958862,134.907852 494.671875,136.050095 491.420441,136.207474 
	C483.096039,136.610367 476.292542,130.829437 476.120453,122.019440 
	C475.769684,104.059242 475.933777,86.088150 476.010834,68.122086 
	C476.016602,66.775246 477.017731,65.432671 477.886719,63.827415 
z"/>
</svg>