<svg version="1.1" id="Layer_1" xmlns="http://www.w3.org/2000/svg" xmlns:xlink="http://www.w3.org/1999/xlink" x="0px" y="0px"
	 width="100%" viewBox="0 0 567 346" enable-background="new 0 0 567 346" xml:space="preserve">
<path fill="#8F95FF" opacity="1.000000" stroke="none" 
	d="
M264.751282,176.862885 
	C250.410919,182.635925 237.668701,179.933990 226.937759,169.989456 
	C216.688934,160.491684 212.730881,148.358887 216.801437,134.577667 
	C220.974777,120.448502 230.329987,111.516556 245.097321,109.038673 
	C249.651810,108.274460 254.352722,108.282104 258.992584,108.154533 
	C264.128235,108.013336 269.270782,108.122253 275.339233,108.122253 
	C275.339233,101.510635 274.874634,95.226799 275.464844,89.043655 
	C276.104401,82.343651 276.770081,75.377884 279.106537,69.160133 
	C285.271240,52.754433 304.635559,44.369434 322.130615,49.713009 
	C339.167145,54.916534 349.994568,72.827599 346.430481,89.910568 
	C342.654785,108.007690 328.461945,119.579781 309.831238,119.701500 
	C302.389282,119.750122 294.946716,119.709488 286.883331,119.709488 
	C286.883331,127.786926 286.977570,135.234772 286.863800,142.679428 
	C286.622437,158.476013 279.578339,169.994339 264.751282,176.862885 
M275.896179,141.313873 
	C275.895996,135.330963 275.853882,129.347641 275.915924,123.365372 
	C275.941223,120.925644 275.581390,119.107399 272.492828,119.147263 
	C265.181976,119.241623 257.803650,118.622681 250.580978,119.434242 
	C245.824219,119.968727 240.785660,121.700363 236.757706,124.277985 
	C227.088181,130.465836 224.097488,142.858856 228.758087,153.891235 
	C233.095474,164.158508 243.970947,170.031784 255.061844,168.096542 
	C267.882385,165.859512 275.485168,156.429321 275.896179,141.313873 
M335.972351,83.540733 
	C334.815887,69.501335 326.126038,60.254818 313.003174,59.100155 
	C301.469330,58.085300 289.374939,66.404297 287.622742,78.456383 
	C286.237762,87.982689 287.344116,97.871208 287.344116,108.121170 
	C295.166199,108.121170 302.770874,108.163986 310.374878,108.112030 
	C325.009705,108.012047 334.618225,99.087662 335.972351,83.540733 
z"/>
<path fill="#8E95FF" opacity="1.000000" stroke="none" 
	d="
M459.164124,250.146332 
	C459.695068,248.330444 459.747223,246.586899 460.626190,245.532883 
	C462.293701,243.533463 464.481720,240.498703 466.366394,240.560318 
	C468.276703,240.622742 471.036224,243.599030 471.758820,245.836746 
	C474.205139,253.412201 475.903351,261.228607 477.914459,268.945862 
	C478.239014,270.191284 478.701447,271.400757 479.456543,273.722900 
	C482.484406,264.299835 485.160980,255.953491 487.852295,247.611908 
	C488.260315,246.347244 488.372162,244.630905 489.257050,243.949677 
	C491.151886,242.490906 493.627533,240.413147 495.566528,240.688965 
	C498.952240,241.170593 499.448547,244.416733 498.444031,247.445526 
	C493.941711,261.020599 489.497589,274.619019 484.642365,288.068146 
	C484.006317,289.830017 481.080048,291.858826 479.281860,291.797333 
	C477.512543,291.736816 474.857330,289.484344 474.273285,287.656189 
	C471.545013,279.116516 469.402435,270.389923 467.035004,261.734436 
	C466.882568,261.177124 466.599457,260.655579 465.793884,258.705566 
	C462.966980,268.417908 460.538147,276.762177 458.109680,285.106506 
	C457.785278,286.221252 457.797394,287.690613 457.069977,288.378265 
	C455.529816,289.834259 453.658722,291.721375 451.819916,291.840942 
	C450.259277,291.942413 447.606720,290.147430 447.059845,288.613220 
	C442.205231,274.994598 437.618225,261.277313 433.192780,247.511826 
	C432.326019,244.815704 432.357025,241.465973 435.915497,240.421951 
	C439.472076,239.378479 441.646729,241.699417 442.695862,244.790375 
	C445.731018,253.732803 448.588959,262.735382 452.625793,271.930176 
	C454.770081,264.796783 456.914368,257.663391 459.164124,250.146332 
z"/>
<path fill="#8E95FF" opacity="1.000000" stroke="none" 
	d="
M305.291962,249.960068 
	C312.922882,249.985641 320.082581,250.044479 327.240845,249.969635 
	C330.956879,249.930786 333.716461,251.429138 333.739166,255.217743 
	C333.761108,258.879395 330.890442,260.118317 327.485077,260.109528 
	C321.158447,260.093170 314.822723,260.316986 308.508301,260.040741 
	C304.247345,259.854340 302.455536,261.151062 302.680359,265.661560 
	C302.994934,271.972504 302.837708,278.312317 302.726288,284.637024 
	C302.661469,288.315277 301.983154,291.803619 297.226990,292.054138 
	C293.346741,292.258484 291.286072,289.824860 291.267975,284.601654 
	C291.200470,265.122467 291.189423,245.642639 291.275085,226.163589 
	C291.299469,220.618896 293.691620,218.295074 299.298523,218.253235 
	C311.951141,218.158768 324.604919,218.229462 337.258240,218.220825 
	C341.042633,218.218246 343.942627,219.457581 344.041229,223.747925 
	C344.149536,228.460114 340.697510,228.887360 337.158020,228.897720 
	C327.668121,228.925491 318.166595,229.186050 308.692749,228.795105 
	C303.687561,228.588577 302.249664,230.384933 302.691010,235.062561 
	C303.033569,238.693130 302.580780,242.395386 302.856659,246.037369 
	C302.958313,247.379410 304.134216,248.640091 305.291962,249.960068 
z"/>
<path fill="#8D94FF" opacity="1.000000" stroke="none" 
	d="
M180.713654,283.658813 
	C180.278290,291.786346 179.080811,292.920746 171.349655,292.932770 
	C165.363785,292.942078 159.377258,292.987488 153.392105,292.920532 
	C139.080658,292.760437 128.422546,282.356842 128.012695,268.213501 
	C127.563148,252.700577 137.626770,240.972992 152.200394,240.026505 
	C166.552643,239.094391 178.540863,248.712463 179.993942,262.810455 
	C180.689697,269.560760 180.501770,276.402130 180.713654,283.658813 
M169.067932,260.774109 
	C165.767303,252.736694 160.782394,249.430771 152.664932,249.895813 
	C146.397812,250.254852 140.708252,255.024368 139.096466,261.270172 
	C137.083206,269.071777 139.716995,276.646484 145.813126,280.587158 
	C150.781631,283.798920 158.042816,283.769348 162.805923,280.517975 
	C168.643799,276.532959 170.992401,269.676331 169.067932,260.774109 
z"/>
<path fill="#8C93FF" opacity="1.000000" stroke="none" 
	d="
M243.867157,283.802734 
	C243.867462,264.173126 243.915665,245.017166 243.829590,225.861832 
	C243.811890,221.922699 244.533752,218.422806 249.162338,218.586487 
	C253.416611,218.736938 254.107681,222.174286 254.067841,225.872879 
	C253.967346,235.199799 254.023743,244.528564 254.046051,253.856522 
	C254.049850,255.442688 254.196472,257.028534 254.329361,259.641571 
	C261.359222,253.479095 267.731415,248.008560 273.960754,242.379852 
	C276.743744,239.865204 279.609985,238.281937 282.558868,241.553680 
	C285.408905,244.715775 283.398743,247.313614 280.788452,249.603958 
	C275.915588,253.879517 271.095764,258.215485 265.735748,262.987610 
	C270.442047,268.795868 275.107300,274.542236 279.757568,280.300690 
	C280.906982,281.724060 282.712402,283.075256 282.962952,284.657990 
	C283.324677,286.943359 283.339081,290.041443 282.062408,291.651489 
	C280.128540,294.090393 277.231537,293.261841 275.216705,290.832550 
	C270.224609,284.813416 265.284698,278.751038 260.294281,272.730560 
	C259.672791,271.980774 258.872864,271.378876 256.990814,269.619659 
	C255.830627,272.369904 254.486374,274.428009 254.146698,276.640320 
	C253.696915,279.569824 253.999115,282.620422 254.039734,285.618134 
	C254.087509,289.144806 253.345551,292.001190 248.995529,292.062744 
	C244.639801,292.124420 243.747543,289.366272 243.868408,285.775818 
	C243.885208,285.276672 243.868622,284.776398 243.867157,283.802734 
z"/>
<path fill="#8E94FF" opacity="1.000000" stroke="none" 
	d="
M414.521301,242.301895 
	C427.915619,248.823364 432.921600,263.091003 427.207184,277.636963 
	C422.404907,289.861206 408.311615,295.795380 394.255371,291.511780 
	C382.224884,287.845551 374.663879,273.977203 377.455811,260.698334 
	C380.989258,243.892929 397.326843,235.634552 414.521301,242.301895 
M397.036591,281.831146 
	C398.483429,282.186218 399.912018,282.709015 401.380096,282.868561 
	C409.785309,283.782166 417.193268,278.231171 418.790527,269.911133 
	C420.406006,261.496277 415.394470,252.318069 408.038666,250.220001 
	C399.795380,247.868774 391.592712,251.995682 388.627411,259.986145 
	C385.568695,268.228455 388.494690,276.404724 397.036591,281.831146 
z"/>
<path fill="#8E95FF" opacity="1.000000" stroke="none" 
	d="
M258.796875,88.798775 
	C249.693695,99.312546 234.589859,100.417076 224.212982,91.582298 
	C213.511261,82.470932 212.297714,66.872673 221.473709,56.373215 
	C229.971268,46.650043 245.860184,45.302147 255.705383,53.469269 
	C266.619995,62.523510 268.061188,77.707832 258.796875,88.798775 
M237.901855,86.107941 
	C244.347778,86.815514 249.518524,84.704948 252.398575,78.730690 
	C254.823196,73.701157 254.339447,68.651474 250.744812,64.206345 
	C246.944031,59.506298 241.135727,57.975178 235.451630,59.977112 
	C230.482239,61.727333 226.299728,67.477173 226.286179,72.577164 
	C226.270233,78.582146 230.274872,83.579514 237.901855,86.107941 
z"/>
<path fill="#8F95FF" opacity="1.000000" stroke="none" 
	d="
M311.859955,177.271362 
	C298.914734,170.378876 294.041931,156.160706 300.151215,143.923050 
	C306.179474,131.847717 320.670227,126.836807 332.907898,132.595825 
	C345.174316,138.368362 350.478058,152.767975 344.877533,165.093292 
	C339.178864,177.634583 325.246613,182.900162 311.859955,177.271362 
M315.763367,143.024231 
	C309.452332,147.132736 307.106812,153.332138 309.456604,159.693451 
	C311.549927,165.360428 318.454498,169.479309 324.133331,168.448746 
	C332.458405,166.937927 337.662506,159.439819 335.684204,151.733368 
	C333.599457,143.612396 324.037567,138.376053 315.763367,143.024231 
z"/>
<path fill="#9096FF" opacity="1.000000" stroke="none" 
	d="
M80.777336,228.781250 
	C77.342384,227.590759 75.069092,225.359589 76.568932,222.339005 
	C77.514236,220.435226 80.507217,218.444534 82.621193,218.400696 
	C98.422302,218.073090 114.233330,218.197678 130.041107,218.239792 
	C133.512756,218.249039 135.787933,219.954422 135.991302,223.581741 
	C136.215393,227.578735 133.436493,228.730270 130.181458,228.857803 
	C125.695435,229.033569 121.188721,229.087616 116.707726,228.860809 
	C112.925247,228.669342 111.842804,230.258255 111.870728,233.858719 
	C112.001030,250.664017 111.994911,267.471497 111.844467,284.276459 
	C111.825066,286.443024 111.264015,289.171722 109.878052,290.584930 
	C108.707962,291.778046 105.464905,292.337311 104.071236,291.542664 
	C102.481705,290.636383 101.079231,287.931824 101.051414,285.987946 
	C100.815697,269.517761 100.914330,253.042847 100.908432,236.569351 
	C100.905685,228.917114 100.901466,228.923355 93.175156,228.911728 
	C89.182060,228.905731 85.188995,228.872971 80.777336,228.781250 
z"/>
<path fill="#8E95FF" opacity="1.000000" stroke="none" 
	d="
M200.542450,242.299530 
	C210.746536,238.561218 220.138870,238.937607 228.649902,245.667343 
	C231.055817,247.569717 233.471436,249.975845 230.937195,253.202225 
	C228.465973,256.348328 225.038040,255.615021 222.545349,253.377747 
	C217.868500,249.180145 212.534485,249.262192 207.090591,250.409470 
	C205.509659,250.742645 203.157532,252.751389 203.166061,253.978088 
	C203.177444,255.611755 204.809433,258.074249 206.346832,258.698029 
	C210.777893,260.495911 215.508347,261.558502 220.125916,262.893616 
	C228.870102,265.421814 233.149414,270.161469 232.988098,277.160736 
	C232.823044,284.321045 227.476822,290.208893 219.194229,292.039520 
	C209.782639,294.119690 201.079742,292.278412 193.067886,286.936279 
	C189.880203,284.810791 188.825256,282.149017 191.249283,278.974731 
	C193.525803,275.993622 196.391846,275.540771 199.420319,278.135162 
	C204.893402,282.823822 211.152649,284.344604 217.958435,281.965027 
	C219.638565,281.377594 221.896301,279.121765 221.841553,277.712402 
	C221.769043,275.845184 220.083984,273.237457 218.380524,272.406647 
	C215.003677,270.759766 211.130814,270.140991 207.480087,269.040497 
	C205.262222,268.371918 202.982071,267.799927 200.895004,266.829498 
	C195.936707,264.523987 192.240906,260.973236 192.118713,255.149307 
	C191.995682,249.285522 194.915314,245.052429 200.542450,242.299530 
z"/>
<path fill="#8C93FF" opacity="1.000000" stroke="none" 
	d="
M362.935547,222.641113 
	C363.023773,239.575668 363.049774,256.069153 363.068054,272.562622 
	C363.073639,277.597321 363.712524,281.860657 370.352570,282.263367 
	C371.677795,282.343750 374.048157,285.735291 373.743927,287.117310 
	C373.331940,288.988800 371.019745,291.431244 369.145935,291.821991 
	C360.640442,293.595703 353.237854,286.974060 353.016052,277.194885 
	C352.679901,262.374420 352.856598,247.542343 352.819031,232.715210 
	C352.812286,230.049545 352.362976,227.273468 352.968048,224.752380 
	C353.470825,222.657715 354.794800,219.991776 356.523529,219.141602 
	C359.054138,217.897079 361.742554,219.093872 362.935547,222.641113 
z"/>
</svg>